<?xml version="1.0" encoding="UTF-8" standalone="no"?>
<!-- Created with Inkscape (http://www.inkscape.org/) -->
<svg xmlns:dc="http://purl.org/dc/elements/1.1/" xmlns:cc="http://creativecommons.org/ns#" xmlns:rdf="http://www.w3.org/1999/02/22-rdf-syntax-ns#" xmlns:svg="http://www.w3.org/2000/svg" xmlns="http://www.w3.org/2000/svg" xmlns:sodipodi="http://sodipodi.sourceforge.net/DTD/sodipodi-0.dtd" xmlns:inkscape="http://www.inkscape.org/namespaces/inkscape" width="80.745811" height="110.68633" id="svg3169" sodipodi:version="0.32" inkscape:version="0.48.0 r9654" sodipodi:docname="chronomètre.svg" inkscape:output_extension="org.inkscape.output.svg.inkscape" inkscape:export-filename="/Users/lmproulx/Desktop/isotype/Complété/chronomètre.png" inkscape:export-xdpi="300" inkscape:export-ydpi="300" version="1.1">
  <title id="title2993">chronomètre / chronometer</title>
  <defs id="defs3171">
    <inkscape:perspective sodipodi:type="inkscape:persp3d" inkscape:vp_x="0 : 526.18109 : 1" inkscape:vp_y="0 : 1000 : 0" inkscape:vp_z="744.09448 : 526.18109 : 1" inkscape:persp3d-origin="372.04724 : 350.78739 : 1" id="perspective3177"/>
  </defs>
  <sodipodi:namedview id="base" pagecolor="#ffffff" bordercolor="#666666" borderopacity="1.0" inkscape:pageopacity="0.0" inkscape:pageshadow="2" inkscape:zoom="1.4" inkscape:cx="278.3899" inkscape:cy="58.640931" inkscape:document-units="px" inkscape:current-layer="layer1" showgrid="false" inkscape:window-width="1539" inkscape:window-height="897" inkscape:window-x="4" inkscape:window-y="0" fit-margin-top="0" fit-margin-left="0" fit-margin-right="0" fit-margin-bottom="0" showborder="true" inkscape:showpageshadow="false" inkscape:window-maximized="0"/>
  <metadata id="metadata3174">
    <rdf:RDF>
      <cc:Work rdf:about="">
        <dc:format>image/svg+xml</dc:format>
        <dc:type rdf:resource="http://purl.org/dc/dcmitype/StillImage"/>
        <dc:title>chronomètre / chronometer</dc:title>
        <dc:date>2011-01-07</dc:date>
        <dc:creator>
          <cc:Agent>
            <dc:title>lmproulx</dc:title>
          </cc:Agent>
        </dc:creator>
        <cc:license rdf:resource="http://creativecommons.org/licenses/publicdomain/"/>
      </cc:Work>
      <cc:License rdf:about="http://creativecommons.org/licenses/publicdomain/">
        <cc:permits rdf:resource="http://creativecommons.org/ns#Reproduction"/>
        <cc:permits rdf:resource="http://creativecommons.org/ns#Distribution"/>
        <cc:permits rdf:resource="http://creativecommons.org/ns#DerivativeWorks"/>
      </cc:License>
    </rdf:RDF>
  </metadata>
  <g inkscape:label="Calque 1" inkscape:groupmode="layer" id="layer1" transform="translate(-346.6101,-326.57781)">
    <path style="fill:none;stroke:#000000;stroke-width:2.11330199;stroke-linecap:round;stroke-linejoin:round;stroke-miterlimit:4;stroke-opacity:1;stroke-dasharray:none;stroke-dashoffset:2" d="m 426.28793,397.50825 c 0.36807,21.36861 -19.81442,40.24093 -40.71469,38.59955 -20.07347,-0.24897 -38.55628,-18.65632 -37.88895,-39.27525 0.30331,-20.28014 18.53798,-38.44646 38.60534,-37.94599 18.89406,-0.67076 37.64326,14.35424 39.76535,33.73003 0.17008,1.62435 0.2812,3.25726 0.23295,4.89166 z" id="path3584" inkscape:export-filename="/Users/lmproulx/Desktop/isotype/text3279.png" inkscape:export-xdpi="84.154686" inkscape:export-ydpi="84.154686" inkscape:connector-curvature="0"/>
    <path style="fill:none;stroke:#000000;stroke-width:1.26798129;stroke-linecap:round;stroke-linejoin:round;stroke-miterlimit:4;stroke-opacity:1;stroke-dasharray:none;stroke-dashoffset:2" d="m 417.98817,397.27575 c 0.28682,16.64912 -15.4401,31.35328 -31.72633,30.07442 -15.64194,-0.19398 -30.04443,-14.53586 -29.52439,-30.60089 0.23631,-15.80105 14.44543,-29.95515 30.08264,-29.5652 14.72289,-0.52262 29.33295,11.18395 30.98657,26.28039 0.1325,1.26559 0.21911,2.53784 0.18151,3.81128 z" id="path3586" inkscape:export-filename="/Users/lmproulx/Desktop/isotype/text3279.png" inkscape:export-xdpi="84.154686" inkscape:export-ydpi="84.154686" inkscape:connector-curvature="0"/>
    <path style="fill:none;stroke:#000000;stroke-width:1.26798129;stroke-linecap:round;stroke-linejoin:round;stroke-miterlimit:4;stroke-opacity:1;stroke-dasharray:none;stroke-dashoffset:2" d="m 397.63981,380.75111 c 0.10111,5.7705 -5.44348,10.86689 -11.18528,10.42362 -5.51463,-0.0672 -10.59229,-5.03802 -10.40895,-10.60608 0.0833,-5.47657 5.09281,-10.38228 10.60577,-10.24712 5.19062,-0.18116 10.34147,3.87629 10.92446,9.10862 0.0467,0.43868 0.0773,0.87959 0.064,1.32096 z" id="path3590" inkscape:export-filename="/Users/lmproulx/Desktop/isotype/text3279.png" inkscape:export-xdpi="84.154686" inkscape:export-ydpi="84.154686" inkscape:connector-curvature="0"/>
    <path sodipodi:nodetypes="ccccccc" style="fill:none;stroke:#000000;stroke-width:1.69064176;stroke-linecap:round;stroke-linejoin:round;stroke-miterlimit:4;stroke-opacity:1;stroke-dasharray:none;stroke-dashoffset:0" d="m 364.3405,365.56996 -4.97066,-6.63911 0.33139,-3.65149 -8.94717,7.303 2.98237,0.33196 5.60765,7.07407 4.99642,-4.41843 z" id="path3596" inkscape:export-filename="/Users/lmproulx/Desktop/isotype/text3279.png" inkscape:export-xdpi="84.154686" inkscape:export-ydpi="84.154686" inkscape:connector-curvature="0"/>
    <path sodipodi:type="arc" style="fill:none;stroke:#000000;stroke-width:0.6686219;stroke-linecap:round;stroke-linejoin:round;stroke-miterlimit:4;stroke-opacity:1;stroke-dasharray:none;stroke-dashoffset:0" id="path3606" sodipodi:cx="-65.089287" sodipodi:cy="384.45163" sodipodi:rx="7.2321429" sodipodi:ry="6.7857141" d="m -57.857144,384.45163 c 0,3.74765 -3.237941,6.78571 -7.232143,6.78571 -3.994202,0 -7.232143,-3.03806 -7.232143,-6.78571 0,-3.74765 3.237941,-6.78571 7.232143,-6.78571 3.994202,0 7.232143,3.03806 7.232143,6.78571 z" transform="matrix(2.1133021,0,0,2.1133021,523.41433,-470.83786)" inkscape:export-filename="/Users/lmproulx/Desktop/isotype/text3279.png" inkscape:export-xdpi="84.154686" inkscape:export-ydpi="84.154686"/>
    <path sodipodi:type="arc" style="fill:none;stroke:#000000;stroke-width:0.76924074;stroke-linecap:round;stroke-linejoin:round;stroke-miterlimit:4;stroke-opacity:1;stroke-dasharray:none;stroke-dashoffset:0" id="path3608" sodipodi:cx="-65.089287" sodipodi:cy="384.45163" sodipodi:rx="7.2321429" sodipodi:ry="6.7857141" d="m -57.857144,384.45163 c 0,3.74765 -3.237941,6.78571 -7.232143,6.78571 -3.994202,0 -7.232143,-3.03806 -7.232143,-6.78571 0,-3.74765 3.237941,-6.78571 7.232143,-6.78571 3.994202,0 7.232143,3.03806 7.232143,6.78571 z" transform="matrix(1.6489629,0,0,1.6477461,493.37521,-292.02659)" inkscape:export-filename="/Users/lmproulx/Desktop/isotype/text3279.png" inkscape:export-xdpi="84.154686" inkscape:export-ydpi="84.154686"/>
    <path style="fill:#ffffff;fill-opacity:1;stroke:#000000;stroke-width:1.26798129;stroke-linecap:round;stroke-linejoin:round;stroke-miterlimit:4;stroke-opacity:1;stroke-dasharray:none;stroke-dashoffset:0" d="m 381.69975,358.61656 0.3774,-11.50993 7.54748,-0.37739 1.13214,11.88732 -9.05702,0 z" id="path3602" sodipodi:nodetypes="ccccc" inkscape:export-filename="/Users/lmproulx/Desktop/isotype/text3279.png" inkscape:export-xdpi="84.154686" inkscape:export-ydpi="84.154686" inkscape:connector-curvature="0"/>
    <path style="fill:#ffffff;fill-opacity:1;stroke:#000000;stroke-width:1.26798129;stroke-linecap:round;stroke-linejoin:round;stroke-miterlimit:4;stroke-opacity:1;stroke-dasharray:none;stroke-dashoffset:0" d="m 379.81289,340.69124 -0.37737,8.30225 12.83074,0 0,-8.67962 -12.45337,0.37737 z" id="path3604" sodipodi:nodetypes="ccccc" inkscape:export-filename="/Users/lmproulx/Desktop/isotype/text3279.png" inkscape:export-xdpi="84.154686" inkscape:export-ydpi="84.154686" inkscape:connector-curvature="0"/>
    <path style="fill:#ffffff;fill-opacity:1;stroke:#000000;stroke-width:1.26798129;stroke-linecap:round;stroke-linejoin:round;stroke-miterlimit:4;stroke-opacity:1;stroke-dasharray:none;stroke-dashoffset:0" d="m 411.68456,382.94944 -24.55984,14.7688 -6.35975,6.1159 2.09428,2.96288 8.71965,-4.44403 c 7.05091,-6.08816 14.32437,-13.7386 20.10566,-19.40355 z" id="path3612" sodipodi:nodetypes="cccccc" inkscape:export-filename="/Users/lmproulx/Desktop/isotype/text3279.png" inkscape:export-xdpi="84.154686" inkscape:export-ydpi="84.154686" inkscape:connector-curvature="0"/>
    <path sodipodi:type="arc" style="fill:#ffffff;fill-opacity:1;stroke:#000000;stroke-width:0.46006507;stroke-linecap:round;stroke-linejoin:round;stroke-miterlimit:4;stroke-opacity:1;stroke-dasharray:none;stroke-dashoffset:0" id="path3610" sodipodi:cx="-63.51334" sodipodi:cy="413.14325" sodipodi:rx="1.3889598" sodipodi:ry="1.3889598" d="m -62.12438,413.14325 c 0,0.7671 -0.621859,1.38896 -1.38896,1.38896 -0.767101,0 -1.38896,-0.62186 -1.38896,-1.38896 0,-0.7671 0.621859,-1.38896 1.38896,-1.38896 0.767101,0 1.38896,0.62186 1.38896,1.38896 z" transform="matrix(3.0318662,0,0,3.0318662,580.22136,-851.66557)" inkscape:export-filename="/Users/lmproulx/Desktop/isotype/text3279.png" inkscape:export-xdpi="84.154686" inkscape:export-ydpi="84.154686"/>
  </g>
</svg>