<?xml version="1.0" encoding="UTF-8" standalone="no"?>
<!-- Created with Inkscape (http://www.inkscape.org/) -->
<svg xmlns:dc="http://purl.org/dc/elements/1.1/" xmlns:cc="http://creativecommons.org/ns#" xmlns:rdf="http://www.w3.org/1999/02/22-rdf-syntax-ns#" xmlns:svg="http://www.w3.org/2000/svg" xmlns="http://www.w3.org/2000/svg" xmlns:xlink="http://www.w3.org/1999/xlink" xmlns:sodipodi="http://sodipodi.sourceforge.net/DTD/sodipodi-0.dtd" xmlns:inkscape="http://www.inkscape.org/namespaces/inkscape" width="210mm" height="297mm" id="svg6098" version="1.1" inkscape:version="0.48.1 " sodipodi:docname="alarmclock.svg">
  <defs id="defs6100">
    <linearGradient y2="69.571136" x2="181.2597" y1="64.064514" x1="183.51817" gradientUnits="userSpaceOnUse" id="linearGradient4887" xlink:href="#linearGradient4443" inkscape:collect="always"/>
    <linearGradient y2="62.029026" x2="166.15984" y1="58.162674" x1="171.73572" gradientUnits="userSpaceOnUse" id="linearGradient4885" xlink:href="#linearGradient4443" inkscape:collect="always"/>
    <linearGradient y2="68.116676" x2="109.10188" y1="59.212353" x1="121.47317" gradientUnits="userSpaceOnUse" id="linearGradient4883" xlink:href="#linearGradient4443" inkscape:collect="always"/>
    <linearGradient y2="64.513924" x2="127.96499" y1="60.06176" x1="125.01031" gradientUnits="userSpaceOnUse" id="linearGradient4881" xlink:href="#linearGradient4443" inkscape:collect="always"/>
    <radialGradient r="12.834592" fy="4.8043919" fx="-0.053483669" cy="4.8043919" cx="-0.053483669" gradientTransform="matrix(-1.44446, 0.768034, 0.10322, 0.194127, 124.384, 69.866)" gradientUnits="userSpaceOnUse" id="radialGradient4879" xlink:href="#linearGradient4538" inkscape:collect="always"/>
    <radialGradient r="5.507308" fy="169.13458" fx="387.5751" cy="169.13458" cx="387.5751" gradientTransform="matrix(-0.363881, -0.189704, -0.129394, 0.248197, 351.73, 84.7893)" gradientUnits="userSpaceOnUse" id="radialGradient4877" xlink:href="#linearGradient4443" inkscape:collect="always"/>
    <radialGradient r="5.507308" fy="169.13458" fx="387.5751" cy="169.13458" cx="387.5751" gradientTransform="matrix(1, 0, 0, 0.682081, 0, 54.6931)" gradientUnits="userSpaceOnUse" id="radialGradient4875" xlink:href="#linearGradient4443" inkscape:collect="always"/>
    <radialGradient r="3.7351668" fy="203.42572" fx="513.72266" cy="203.42572" cx="513.72266" gradientTransform="matrix(0.256853, -0.0195504, 0.0715241, 0.621952, 6.39457, -59.2146)" gradientUnits="userSpaceOnUse" id="radialGradient4873" xlink:href="#linearGradient4443" inkscape:collect="always"/>
    <radialGradient r="3.7351668" fy="203.42572" fx="513.72266" cy="203.42572" cx="513.72266" gradientTransform="matrix(0.256853, -0.0232395, 0.0715241, 0.620925, -1.55553, -55.5824)" gradientUnits="userSpaceOnUse" id="radialGradient4871" xlink:href="#linearGradient4443" inkscape:collect="always"/>
    <linearGradient y2="80.786469" x2="140.2097" y1="76.001915" x1="140.17191" gradientTransform="translate(0.16428, -2.35688)" gradientUnits="userSpaceOnUse" id="linearGradient4869" xlink:href="#linearGradient4431" inkscape:collect="always"/>
    <linearGradient y2="192.37967" x2="445.54617" y1="212.87605" x1="402.92859" gradientTransform="matrix(-0.282222, -0.00913515, 0, 0.282222, 304.956, 3.67627)" gradientUnits="userSpaceOnUse" id="linearGradient4867" xlink:href="#linearGradient4538" inkscape:collect="always"/>
    <linearGradient y2="192.37967" x2="445.54617" y1="212.87605" x1="402.92859" gradientTransform="matrix(0.282222, 0.00913515, 0, 0.282222, 0, -6.19474)" gradientUnits="userSpaceOnUse" id="linearGradient4865" xlink:href="#linearGradient4538" inkscape:collect="always"/>
    <radialGradient r="19.165068" fy="65.719887" fx="122.2899" cy="65.719887" cx="122.2899" gradientTransform="matrix(1.15768, -0.57983, 0.309468, 0.617877, -39.4297, 95.1995)" gradientUnits="userSpaceOnUse" id="radialGradient4863" xlink:href="#linearGradient4528" inkscape:collect="always"/>
    <radialGradient r="50.1945" fy="116.66313" fx="150.4472" cy="116.66313" cx="150.4472" gradientTransform="translate(0, 1.58883e-06)" gradientUnits="userSpaceOnUse" id="radialGradient4859" xlink:href="#linearGradient4401" inkscape:collect="always"/>
    <radialGradient r="12.834592" fy="4.8043919" fx="-0.053483669" cy="4.8043919" cx="-0.053483669" gradientTransform="matrix(1.44446, 0.768034, -0.10322, 0.194127, 179.15, 71.4717)" gradientUnits="userSpaceOnUse" id="radialGradient4851" xlink:href="#linearGradient4538" inkscape:collect="always"/>
    <linearGradient y2="439.37283" x2="530.1496" y1="260.40842" x1="531.52759" gradientUnits="userSpaceOnUse" id="linearGradient4849" xlink:href="#linearGradient4646" inkscape:collect="always"/>
    <radialGradient r="10.302952" fy="155.07948" fx="628.77014" cy="155.07948" cx="628.77014" gradientTransform="matrix(0.257912, -0.106242, 0.225947, 0.515859, -20.5482, 27.4991)" gradientUnits="userSpaceOnUse" id="radialGradient4847" xlink:href="#linearGradient4538" inkscape:collect="always"/>
    <radialGradient r="10.302952" fy="155.07948" fx="628.77014" cy="155.07948" cx="628.77014" gradientTransform="matrix(-0.257912, -0.122939, -0.225947, 0.501231, 325.49, 38.7704)" gradientUnits="userSpaceOnUse" id="radialGradient4845" xlink:href="#linearGradient4538" inkscape:collect="always"/>
    <radialGradient r="88.969516" fy="82.310715" fx="540.22546" cy="82.310715" cx="540.22546" gradientTransform="matrix(0.25566, 0.00748249, 0.000151111, 0.0487292, 14.3369, 25.7965)" gradientUnits="userSpaceOnUse" id="radialGradient4843" xlink:href="#linearGradient4538" inkscape:collect="always"/>
    <radialGradient r="19.165068" fy="66.417694" fx="121.55846" cy="66.417694" cx="121.55846" gradientTransform="matrix(-1.12395, -0.546101, -0.302002, 0.62156, 338.384, 92.4672)" gradientUnits="userSpaceOnUse" id="radialGradient4841" xlink:href="#linearGradient4528" inkscape:collect="always"/>
    <linearGradient y2="78.110901" x2="177.4451" y1="76.578903" x1="174.5639" gradientUnits="userSpaceOnUse" id="linearGradient4839" xlink:href="#linearGradient4507" inkscape:collect="always"/>
    <linearGradient y2="74.915604" x2="128.9231" y1="76.447601" x1="126.0419" gradientUnits="userSpaceOnUse" id="linearGradient4837" xlink:href="#linearGradient4507" inkscape:collect="always"/>
    <linearGradient gradientUnits="userSpaceOnUse" y2="64.513924" x2="127.96499" y1="60.06176" x1="125.01031" id="linearGradient4670" xlink:href="#linearGradient4443" inkscape:collect="always"/>
    <linearGradient gradientUnits="userSpaceOnUse" y2="68.116676" x2="109.10188" y1="59.212353" x1="121.47317" id="linearGradient4668" xlink:href="#linearGradient4443" inkscape:collect="always"/>
    <linearGradient gradientUnits="userSpaceOnUse" y2="62.029026" x2="166.15984" y1="58.162674" x1="171.73572" id="linearGradient4666" xlink:href="#linearGradient4443" inkscape:collect="always"/>
    <linearGradient gradientUnits="userSpaceOnUse" y2="69.571136" x2="181.2597" y1="64.064514" x1="183.51817" id="linearGradient4664" xlink:href="#linearGradient4443" inkscape:collect="always"/>
    <linearGradient gradientUnits="userSpaceOnUse" y2="439.37283" x2="530.1496" y1="260.40842" x1="531.52759" id="linearGradient4652" xlink:href="#linearGradient4646" inkscape:collect="always"/>
    <radialGradient r="12.834592" fy="4.8043919" fx="-0.053483669" cy="4.8043919" cx="-0.053483669" gradientTransform="matrix(-1.44446, 0.768034, 0.10322, 0.194127, 124.384, 69.866)" gradientUnits="userSpaceOnUse" id="radialGradient4579" xlink:href="#linearGradient4538" inkscape:collect="always"/>
    <radialGradient r="12.834592" fy="4.8043919" fx="-0.053483669" cy="4.8043919" cx="-0.053483669" gradientTransform="matrix(1.44446, 0.768034, -0.10322, 0.194127, 179.15, 71.4717)" gradientUnits="userSpaceOnUse" id="radialGradient4577" xlink:href="#linearGradient4538" inkscape:collect="always"/>
    <radialGradient r="19.165068" fy="66.417694" fx="121.55846" cy="66.417694" cx="121.55846" gradientTransform="matrix(-1.12395, -0.546101, -0.302002, 0.62156, 338.384, 92.4672)" gradientUnits="userSpaceOnUse" id="radialGradient4575" xlink:href="#linearGradient4528" inkscape:collect="always"/>
    <linearGradient gradientTransform="matrix(-0.282222, -0.00913515, 0, 0.282222, 304.956, 3.67627)" y2="192.37967" x2="445.54617" y1="212.87605" x1="402.92859" gradientUnits="userSpaceOnUse" id="linearGradient4564" xlink:href="#linearGradient4538" inkscape:collect="always"/>
    <radialGradient gradientUnits="userSpaceOnUse" gradientTransform="matrix(1.15768, -0.57983, 0.309468, 0.617877, -39.4297, 95.1995)" r="19.165068" fy="65.719887" fx="122.2899" cy="65.719887" cx="122.2899" id="radialGradient4558" xlink:href="#linearGradient4528" inkscape:collect="always"/>
    <linearGradient gradientTransform="matrix(0.282222, 0.00913515, 0, 0.282222, 0, -6.19474)" gradientUnits="userSpaceOnUse" y2="192.37967" x2="445.54617" y1="212.87605" x1="402.92859" id="linearGradient4556" xlink:href="#linearGradient4538" inkscape:collect="always"/>
    <radialGradient r="10.302952" fy="155.07948" fx="628.77014" cy="155.07948" cx="628.77014" gradientTransform="matrix(-0.257912, -0.122939, -0.225947, 0.501231, 325.49, 38.7704)" gradientUnits="userSpaceOnUse" id="radialGradient4552" xlink:href="#linearGradient4538" inkscape:collect="always"/>
    <radialGradient gradientUnits="userSpaceOnUse" gradientTransform="matrix(0.257912, -0.106242, 0.225947, 0.515859, -20.5482, 27.4991)" r="10.302952" fy="155.07948" fx="628.77014" cy="155.07948" cx="628.77014" id="radialGradient4548" xlink:href="#linearGradient4538" inkscape:collect="always"/>
    <radialGradient gradientUnits="userSpaceOnUse" gradientTransform="matrix(0.25566, 0.00748249, 0.000151111, 0.0487292, 14.3369, 25.7965)" r="88.969516" fy="82.310715" fx="540.22546" cy="82.310715" cx="540.22546" id="radialGradient4544" xlink:href="#linearGradient4538" inkscape:collect="always"/>
    <linearGradient gradientUnits="userSpaceOnUse" y2="78.110901" x2="177.4451" y1="76.578903" x1="174.5639" id="linearGradient4526" xlink:href="#linearGradient4507" inkscape:collect="always"/>
    <radialGradient r="5.507308" fy="169.13458" fx="387.5751" cy="169.13458" cx="387.5751" gradientTransform="matrix(-0.363881, -0.189704, -0.129394, 0.248197, 351.73, 84.7893)" gradientUnits="userSpaceOnUse" id="radialGradient4524" xlink:href="#linearGradient4443" inkscape:collect="always"/>
    <radialGradient gradientUnits="userSpaceOnUse" gradientTransform="matrix(1, 0, 0, 0.682081, 0, 54.6931)" r="5.507308" fy="169.13458" fx="387.5751" cy="169.13458" cx="387.5751" id="radialGradient4519" xlink:href="#linearGradient4443" inkscape:collect="always"/>
    <linearGradient gradientUnits="userSpaceOnUse" y2="74.915604" x2="128.9231" y1="76.447601" x1="126.0419" id="linearGradient4513" xlink:href="#linearGradient4507" inkscape:collect="always"/>
    <radialGradient gradientUnits="userSpaceOnUse" r="3.1998999" fy="117.52812" fx="150.09021" cy="117.52812" cx="150.09021" id="radialGradient4477" xlink:href="#linearGradient4471" inkscape:collect="always"/>
    <radialGradient r="3.7351668" fy="203.42572" fx="513.72266" cy="203.42572" cx="513.72266" gradientTransform="matrix(0.256853, -0.0195504, 0.0715241, 0.621952, 6.39457, -59.2146)" gradientUnits="userSpaceOnUse" id="radialGradient4461" xlink:href="#linearGradient4443" inkscape:collect="always"/>
    <radialGradient r="3.7351668" fy="203.42572" fx="513.72266" cy="203.42572" cx="513.72266" gradientTransform="matrix(0.256853, -0.0232395, 0.0715241, 0.620925, -1.55553, -55.5824)" gradientUnits="userSpaceOnUse" id="radialGradient4457" xlink:href="#linearGradient4443" inkscape:collect="always"/>
    <linearGradient gradientTransform="translate(0.16428, -2.35688)" gradientUnits="userSpaceOnUse" y2="80.786469" x2="140.2097" y1="76.001915" x1="140.17191" id="linearGradient4437" xlink:href="#linearGradient4431" inkscape:collect="always"/>
    <radialGradient gradientUnits="userSpaceOnUse" gradientTransform="matrix(1, 0, 0, 0.0925675, 0, 154.388)" r="34.299301" fy="170.13699" fx="150.786" cy="170.13699" cx="150.786" id="radialGradient4429" xlink:href="#linearGradient4423" inkscape:collect="always"/>
    <radialGradient gradientTransform="translate(0, 1.58883e-06)" gradientUnits="userSpaceOnUse" r="50.1945" fy="116.66313" fx="150.4472" cy="116.66313" cx="150.4472" id="radialGradient4407" xlink:href="#linearGradient4401" inkscape:collect="always"/>
    <linearGradient gradientUnits="userSpaceOnUse" y2="157.05" x2="180.55299" y1="160.743" x1="175.27901" id="linearGradient4399" xlink:href="#linearGradient4389" inkscape:collect="always"/>
    <linearGradient gradientUnits="userSpaceOnUse" y2="161.05701" x2="126.293" y1="157.364" x1="121.019" id="linearGradient4395" xlink:href="#linearGradient4389" inkscape:collect="always"/>
    <style id="style3178" type="text/css">
   
    .str0 {stroke:#373435;stroke-width:0.2}
    .fil0 {fill:none}
    .fil1 {fill:#373435;fill-rule:nonzero}
   
  </style>
    <linearGradient id="linearGradient4389">
      <stop id="stop4391" offset="0" style="stop-color:#4d4d4d;stop-opacity:1;"/>
      <stop style="stop-color:#ffffff;stop-opacity:1;" offset="0.5" id="stop4397"/>
      <stop id="stop4393" offset="1" style="stop-color:#4d4d4d;stop-opacity:1;"/>
    </linearGradient>
    <linearGradient id="linearGradient4401">
      <stop id="stop4403" offset="0" style="stop-color:#000000;stop-opacity:1;"/>
      <stop style="stop-color:#000000;stop-opacity:1;" offset="0.90447646" id="stop4409"/>
      <stop id="stop4413" offset="0.95805806" style="stop-color:#d0d0d0;stop-opacity:1;"/>
      <stop id="stop4405" offset="1" style="stop-color:#000000;stop-opacity:1;"/>
    </linearGradient>
    <linearGradient id="linearGradient4423">
      <stop id="stop4425" offset="0" style="stop-color:#000000;stop-opacity:1;"/>
      <stop id="stop4427" offset="1" style="stop-color:#999999;stop-opacity:0.2;"/>
    </linearGradient>
    <linearGradient id="linearGradient4431">
      <stop id="stop4433" offset="0" style="stop-color:#999999;stop-opacity:1;"/>
      <stop style="stop-color:#ffffff;stop-opacity:1;" offset="0.5" id="stop4439"/>
      <stop id="stop4435" offset="1" style="stop-color:#999999;stop-opacity:1;"/>
    </linearGradient>
    <linearGradient id="linearGradient4443">
      <stop id="stop4445" offset="0" style="stop-color:#ffffff;stop-opacity:1;"/>
      <stop id="stop4447" offset="1" style="stop-color:#ffffff;stop-opacity:0;"/>
    </linearGradient>
    <linearGradient id="linearGradient4471">
      <stop id="stop4473" offset="0" style="stop-color:#ffffff;stop-opacity:1;"/>
      <stop id="stop4475" offset="1" style="stop-color:#000000;stop-opacity:1;"/>
    </linearGradient>
    <linearGradient id="linearGradient4481">
      <stop id="stop4483" offset="0" style="stop-color:#7f7f7f;stop-opacity:1;"/>
      <stop id="stop4485" offset="1" style="stop-color:#000000;stop-opacity:1;"/>
    </linearGradient>
    <linearGradient id="linearGradient4507">
      <stop id="stop4509" offset="0" style="stop-color:#ffffff;stop-opacity:1;"/>
      <stop style="stop-color:#000000;stop-opacity:1;" offset="0.5" id="stop4515"/>
      <stop id="stop4511" offset="1" style="stop-color:#ffffff;stop-opacity:1;"/>
    </linearGradient>
    <linearGradient id="linearGradient4528">
      <stop id="stop4530" offset="0" style="stop-color:#000000;stop-opacity:1;"/>
      <stop id="stop4532" offset="1" style="stop-color:#ffffff;stop-opacity:1;"/>
    </linearGradient>
    <linearGradient id="linearGradient4538">
      <stop id="stop4540" offset="0" style="stop-color:#ffffff;stop-opacity:1;"/>
      <stop id="stop4542" offset="1" style="stop-color:#202020;stop-opacity:1;"/>
    </linearGradient>
    <linearGradient id="linearGradient4646">
      <stop id="stop4648" offset="0" style="stop-color:#000000;stop-opacity:0.15000001;"/>
      <stop id="stop4650" offset="1" style="stop-color:#000000;stop-opacity:0;"/>
    </linearGradient>
    <linearGradient inkscape:collect="always" xlink:href="#linearGradient4507" id="linearGradient7528" gradientUnits="userSpaceOnUse" gradientTransform="matrix(6.83244,0,0,6.83244,-653.686,-174.701)" x1="126.0419" y1="76.447601" x2="128.9231" y2="74.915604"/>
    <linearGradient inkscape:collect="always" xlink:href="#linearGradient4507" id="linearGradient7530" gradientUnits="userSpaceOnUse" gradientTransform="matrix(6.83244,0,0,6.83244,-653.686,-174.701)" x1="174.5639" y1="76.578903" x2="177.4451" y2="78.110901"/>
    <radialGradient inkscape:collect="always" xlink:href="#linearGradient4528" id="radialGradient7532" gradientUnits="userSpaceOnUse" gradientTransform="matrix(-7.67929,-3.7312,-2.06341,4.24677,1658.3,457.075)" cx="121.55846" cy="66.417694" fx="121.55846" fy="66.417694" r="19.165068"/>
    <radialGradient inkscape:collect="always" xlink:href="#linearGradient4538" id="radialGradient7534" gradientUnits="userSpaceOnUse" gradientTransform="matrix(1.74678,0.0511237,0.00103245,0.332939,-555.73,1.55213)" cx="540.22546" cy="82.310715" fx="540.22546" fy="82.310715" r="88.969516"/>
    <radialGradient inkscape:collect="always" xlink:href="#linearGradient4538" id="radialGradient7536" gradientUnits="userSpaceOnUse" gradientTransform="matrix(-1.76217,-0.839971,-1.54377,3.42463,1570.2,90.1954)" cx="628.77014" cy="155.07948" fx="628.77014" fy="155.07948" r="10.302952"/>
    <radialGradient inkscape:collect="always" xlink:href="#linearGradient4538" id="radialGradient7538" gradientUnits="userSpaceOnUse" gradientTransform="matrix(1.76217,-0.725893,1.54377,3.52457,-794.081,13.1847)" cx="628.77014" cy="155.07948" fx="628.77014" fy="155.07948" r="10.302952"/>
    <linearGradient inkscape:collect="always" xlink:href="#linearGradient4646" id="linearGradient7540" gradientUnits="userSpaceOnUse" gradientTransform="matrix(1.92827,0,0,1.92827,-653.686,-174.701)" x1="531.52759" y1="260.40842" x2="530.1496" y2="439.37283"/>
    <radialGradient inkscape:collect="always" xlink:href="#linearGradient4538" id="radialGradient7542" gradientUnits="userSpaceOnUse" gradientTransform="matrix(9.86919,5.24755,-0.705242,1.32636,570.346,313.625)" cx="-0.053483669" cy="4.8043919" fx="-0.053483669" fy="4.8043919" r="12.834592"/>
    <radialGradient inkscape:collect="always" xlink:href="#linearGradient4423" id="radialGradient7544" gradientUnits="userSpaceOnUse" gradientTransform="matrix(1,0,0,0.0925675,0,154.388)" cx="150.786" cy="170.13699" fx="150.786" fy="170.13699" r="34.299301"/>
    <linearGradient inkscape:collect="always" xlink:href="#linearGradient4389" id="linearGradient7546" gradientUnits="userSpaceOnUse" x1="175.27901" y1="160.743" x2="180.55299" y2="157.05"/>
    <linearGradient inkscape:collect="always" xlink:href="#linearGradient4389" id="linearGradient7548" gradientUnits="userSpaceOnUse" x1="121.019" y1="157.364" x2="126.293" y2="161.05701"/>
    <radialGradient inkscape:collect="always" xlink:href="#linearGradient4401" id="radialGradient7550" gradientUnits="userSpaceOnUse" gradientTransform="matrix(6.83244,0,0,6.83244,-653.686,-174.701)" cx="150.4472" cy="116.66313" fx="150.4472" fy="116.66313" r="50.1945"/>
    <radialGradient inkscape:collect="always" xlink:href="#linearGradient4471" id="radialGradient7552" gradientUnits="userSpaceOnUse" cx="150.09021" cy="117.52812" fx="150.09021" fy="117.52812" r="3.1998999"/>
    <radialGradient inkscape:collect="always" xlink:href="#linearGradient4528" id="radialGradient7554" gradientUnits="userSpaceOnUse" gradientTransform="matrix(7.90975,-3.96165,2.11442,4.22161,-923.087,475.744)" cx="122.2899" cy="65.719887" fx="122.2899" fy="65.719887" r="19.165068"/>
    <linearGradient inkscape:collect="always" xlink:href="#linearGradient4538" id="linearGradient7556" gradientUnits="userSpaceOnUse" gradientTransform="matrix(1.92827,0.0624154,0,1.92827,-653.686,-217.026)" x1="402.92859" y1="212.87605" x2="445.54617" y2="192.37967"/>
    <linearGradient inkscape:collect="always" xlink:href="#linearGradient4538" id="linearGradient7558" gradientUnits="userSpaceOnUse" gradientTransform="matrix(-1.92827,-0.0624154,0,1.92827,1429.91,-149.583)" x1="402.92859" y1="212.87605" x2="445.54617" y2="192.37967"/>
    <linearGradient inkscape:collect="always" xlink:href="#linearGradient4431" id="linearGradient7560" gradientUnits="userSpaceOnUse" gradientTransform="matrix(6.8324387,0,0,6.8324387,-626.40088,-269.16595)" x1="140.17191" y1="76.001915" x2="140.2097" y2="80.786469"/>
    <linearGradient inkscape:collect="always" xlink:href="#linearGradient4443" id="linearGradient7581" gradientUnits="userSpaceOnUse" gradientTransform="matrix(6.83244, 0, 0, 6.83244, -653.686, -174.701)" x1="183.51817" y1="64.064514" x2="181.2597" y2="69.571136"/>
    <linearGradient inkscape:collect="always" xlink:href="#linearGradient4443" id="linearGradient7584" gradientUnits="userSpaceOnUse" gradientTransform="matrix(6.83244, 0, 0, 6.83244, -653.686, -174.701)" x1="171.73572" y1="58.162674" x2="166.15984" y2="62.029026"/>
    <linearGradient inkscape:collect="always" xlink:href="#linearGradient4443" id="linearGradient7587" gradientUnits="userSpaceOnUse" gradientTransform="matrix(6.83244, 0, 0, 6.83244, -653.686, -174.701)" x1="121.47317" y1="59.212353" x2="109.10188" y2="68.116676"/>
    <linearGradient inkscape:collect="always" xlink:href="#linearGradient4443" id="linearGradient7590" gradientUnits="userSpaceOnUse" gradientTransform="matrix(6.83244, 0, 0, 6.83244, -653.686, -174.701)" x1="125.01031" y1="60.06176" x2="127.96499" y2="64.513924"/>
    <radialGradient inkscape:collect="always" xlink:href="#linearGradient4538" id="radialGradient3562" gradientUnits="userSpaceOnUse" gradientTransform="matrix(-9.86919,5.24755,0.705242,1.32636,196.16,302.654)" cx="-0.053483669" cy="4.8043919" fx="-0.053483669" fy="4.8043919" r="12.834592"/>
    <radialGradient inkscape:collect="always" xlink:href="#linearGradient4443" id="radialGradient3565" gradientUnits="userSpaceOnUse" gradientTransform="matrix(-2.4862,-1.29614,-0.884075,1.69579,1749.48,404.617)" cx="387.5751" cy="169.13458" fx="387.5751" fy="169.13458" r="5.507308"/>
    <radialGradient inkscape:collect="always" xlink:href="#linearGradient4443" id="radialGradient3568" gradientUnits="userSpaceOnUse" gradientTransform="matrix(2.4862,-1.29614,0.884075,1.69579,-982.873,393.766)" cx="387.5751" cy="169.13458" fx="387.5751" fy="169.13458" r="5.507308"/>
    <radialGradient inkscape:collect="always" xlink:href="#linearGradient4443" id="radialGradient3575" gradientUnits="userSpaceOnUse" gradientTransform="matrix(1.75493,-0.133577,0.488684,4.24945,-609.996,-579.281)" cx="513.72266" cy="203.42572" fx="513.72266" fy="203.42572" r="3.7351668"/>
    <radialGradient inkscape:collect="always" xlink:href="#linearGradient4443" id="radialGradient3578" gradientUnits="userSpaceOnUse" gradientTransform="matrix(1.75493,-0.158783,0.488684,4.24243,-664.315,-554.464)" cx="513.72266" cy="203.42572" fx="513.72266" fy="203.42572" r="3.7351668"/>
  </defs>
  <sodipodi:namedview id="base" pagecolor="#ffffff" bordercolor="#666666" borderopacity="1.0" inkscape:pageopacity="0.0" inkscape:pageshadow="2" inkscape:zoom="0.79563543" inkscape:cx="372.04724" inkscape:cy="576.45537" inkscape:document-units="px" inkscape:current-layer="layer1" showgrid="false" inkscape:window-width="1680" inkscape:window-height="988" inkscape:window-x="-8" inkscape:window-y="-8" inkscape:window-maximized="1"/>
  <metadata id="metadata6103">
    <rdf:RDF>
      <cc:Work rdf:about="">
        <dc:title/>
        <dc:format>image/svg+xml</dc:format>
        <dc:type rdf:resource="http://purl.org/dc/dcmitype/StillImage"/>
      </cc:Work>
    </rdf:RDF>
  </metadata>
  <g inkscape:label="Camada 1" inkscape:groupmode="layer" id="layer1">
    <g id="g3746">
      <path style="fill:url(#linearGradient7528);fill-rule:evenodd;stroke:#000000;stroke-width:1.92826641;stroke-miterlimit:4;stroke-opacity:1;stroke-dasharray:none" inkscape:connector-curvature="0" d="m 126.99495,196.23953 80.4923,151.38295 19.68561,-10.46729 -80.4916,-151.38295 c 1.27356,-3.15796 1.29817,-6.5202 -0.23025,-9.39461 -3.1682,-5.95925 -11.80715,-7.56284 -19.29482,-3.58156 -7.48834,3.98125 -10.98928,12.04011 -7.82108,17.99869 1.52842,2.87508 4.32971,4.7342 7.65984,5.44477 z" class="fil0 str0" id="_216857472"/>
      <path style="fill:url(#linearGradient7530);fill-rule:evenodd;stroke:#000000;stroke-width:1.92826641;stroke-miterlimit:4;stroke-opacity:1;stroke-dasharray:none" inkscape:connector-curvature="0" d="M 639.1888,207.60392 558.69651,358.98689 539.01089,348.51958 619.5025,197.13663 c -1.27357,-3.15796 -1.29817,-6.5202 0.23025,-9.39461 3.1682,-5.95925 11.80714,-7.56283 19.29481,-3.58156 7.48835,3.98125 10.98929,12.04011 7.82109,17.99869 -1.52842,2.8751 -4.32971,4.7342 -7.65985,5.44477 z" class="fil0 str0" id="_214191432"/>
      <path id="path4571" class="fil0 str0" d="m 588.12069,302.25559 -19.30786,-10.03182 -8.98171,15.80999 -115.25842,-61.2842 c 26.64856,-50.11869 104.56228,-60.80667 174.02498,-23.87256 69.46336,36.93413 104.17079,107.50434 77.5229,157.62303 L 579.82446,318.66441 z" inkscape:connector-curvature="0" style="fill:url(#radialGradient7532);fill-rule:evenodd;stroke:#000000;stroke-width:1.92826641;stroke-miterlimit:4;stroke-opacity:1;stroke-dasharray:none" sodipodi:nodetypes="ccccsccc"/>
      <rect class="fil0 str0" transform="matrix(0.99609638,-0.08827233,0.10596597,0.99436976,0,0)" width="8.0512104" height="58.094757" id="rect3204" x="335.5899" y="271.0679" style="fill:#808080;fill-rule:evenodd;stroke:#000000;stroke-width:1.92841864;stroke-miterlimit:4;stroke-opacity:1;stroke-dasharray:none"/>
      <path inkscape:transform-center-y="-34.028051" inkscape:transform-center-x="137.76807" sodipodi:nodetypes="czzcscsscsc" inkscape:connector-curvature="0" id="path4536" d="m 218.9313,80.771308 c 12.27291,-12.822104 37.75368,-25.22589 80.83871,-32.365913 43.08501,-7.140024 135.65761,-6.656144 186.59371,8.064029 50.93612,14.720155 52.81005,19.518819 69.96541,33.007197 0,0 5.12059,10.800659 0,15.755419 -5.12043,4.95478 -14.57372,-0.0779 -14.57372,-0.0779 C 530.89833,97.286389 514.52389,89.884102 481.87522,80.522292 425.00172,64.214133 366.37139,62.383244 304.79355,72.800568 c -15.22308,2.575354 -53.76398,10.006912 -70.97551,23.177396 0,0 -5.20141,1.403585 -11.89746,-3.14589 C 215.2245,88.2826 218.9313,80.771231 218.9313,80.771231 z" style="fill:url(#radialGradient7534);fill-rule:evenodd;stroke:none"/>
      <path inkscape:transform-center-y="-8.0026926" inkscape:transform-center-x="221.16716" style="fill:url(#radialGradient7536);fill-rule:evenodd;stroke:none" d="m 202.74082,168.3798 c 0,0 -2.71384,9.02311 1.55083,12.8443 4.26467,3.82116 12.2125,4.46613 12.2125,4.46613 0,0 4.84626,-6.24018 5.23391,-10.29848 0.38741,-4.05827 1.74468,-26.11321 2.32625,-35.9807 0.58145,-9.8675 2.19855,-26.40322 3.87701,-32.05354 4.34837,-14.638529 14.7215,-16.838661 20.72558,-19.504914 5.34255,-2.3725 4.85945,-11.441118 3.18002,-15.63018 -2.27902,-5.684819 -11.45887,-7.054505 -14.02015,-5.760889 -3.4316,1.733126 -23.77478,11.42224 -30.82122,35.953623 -1.76386,6.14066 -4.84623,24.84973 -4.45858,33.19781 0.38741,8.34806 0.19405,32.76684 0.19405,32.76684 z" id="path4550" inkscape:connector-curvature="0" sodipodi:nodetypes="cscssssssssc"/>
      <path inkscape:transform-center-y="-2.9014723" inkscape:transform-center-x="54.571666" sodipodi:nodetypes="cscssssssssc" inkscape:connector-curvature="0" id="path4546" d="m 573.3812,179.89496 c 0,0 2.71392,9.19878 -1.55075,12.74389 -4.26475,3.54508 -12.21258,3.67553 -12.21258,3.67553 0,0 -4.84625,-6.55391 -5.23391,-10.6373 -0.38741,-4.08339 -1.74468,-26.22616 -2.32619,-36.13132 -0.58143,-9.90513 -2.19853,-26.54551 -3.87699,-32.30451 -4.34845,-14.92002 -14.7216,-17.791693 -20.72566,-20.846626 -5.34257,-2.718374 -4.85937,-11.755715 -3.18002,-15.836062 2.27909,-5.537267 11.45888,-6.312662 14.02023,-4.853253 3.43153,1.9553 23.77477,12.961343 30.8212,37.948921 1.76386,6.25485 4.84625,25.16345 4.45852,33.48643 -0.38741,8.32299 -0.19404,32.7543 -0.19404,32.7543 z" style="fill:url(#radialGradient7538);fill-rule:evenodd;stroke:none"/>
      <circle d="m 195.6354,118.264 c 0,25.1336 -20.37481,45.5084 -45.5084,45.5084 -25.1336,0 -45.5084,-20.3748 -45.5084,-45.5084 0,-25.133595 20.3748,-45.5084 45.5084,-45.5084 25.13359,0 45.5084,20.374805 45.5084,45.5084 z" transform="matrix(6.83244,0,0,6.83244,-653.686,-174.701)" class="fil0 str0" cx="150.127" cy="118.264" r="45.5084" id="circle3186" sodipodi:cx="150.127" sodipodi:cy="118.264" sodipodi:rx="45.5084" sodipodi:ry="45.5084" style="fill:#fffae2;fill-opacity:1;fill-rule:evenodd;stroke:none"/>
      <path id="path4629" d="m 372.03077,326.10576 c -169.67518,0 -307.196938,137.52178 -307.196938,307.19694 0,13.73525 0.90455,27.2956 2.651328,40.55387 19.805668,-150.55356 148.58521,-266.7636 304.54561,-266.7636 155.96035,0 284.80021,116.21004 304.60582,266.7636 1.74677,-13.25827 2.6514,-26.81862 2.6514,-40.55387 0,-169.67516 -137.58204,-307.19694 -307.25722,-307.19694 z" style="fill:url(#linearGradient7540);fill-opacity:1;fill-rule:nonzero;stroke:none" inkscape:connector-curvature="0"/>
      <path style="fill:url(#radialGradient7542);fill-rule:evenodd;stroke:#000000;stroke-width:1.92826641;stroke-miterlimit:4;stroke-opacity:1" d="m 696.12018,380.50003 c -4.53729,8.53335 -59.40486,-11.66963 -124.67945,-45.55886 l 16.38658,-32.48662 c -3.74001,-2.08775 -15.29551,-8.32764 -19.35152,-10.31586 l -16.87831,32.08541 c -64.35913,-35.07532 -111.55147,-68.96169 -107.02511,-77.47456 4.76077,-8.95358 64.93092,13.72918 134.39394,50.66335 69.46304,36.93418 121.91458,74.13357 117.15387,83.08714 z" id="path4573" inkscape:connector-curvature="0" sodipodi:nodetypes="sccccsss"/>
      <ellipse d="m 185.0853,170.13699 c 0,1.75351 -15.35632,3.175 -34.2993,3.175 -18.94299,0 -34.29931,-1.42149 -34.29931,-3.175 0,-1.7535 15.35632,-3.175 34.29931,-3.175 18.94298,0 34.2993,1.4215 34.2993,3.175 z" transform="matrix(6.83244,0,0,6.83244,-653.686,-174.701)" class="fil0 str0" cx="150.786" cy="170.13699" rx="34.299301" ry="3.175" id="ellipse3357" sodipodi:cx="150.786" sodipodi:cy="170.13699" sodipodi:rx="34.299301" sodipodi:ry="3.175" style="fill:url(#radialGradient7544);fill-opacity:1;fill-rule:evenodd;stroke:none"/>
      <polygon transform="matrix(6.83244,0,0,6.83244,-653.686,-174.701)" class="fil0 str0" points="175.279,160.743 180.553,157.05 182.076,159.225 187.215,169.91 185.085,171.402 176.802,162.918 " id="polygon3353" style="fill:url(#linearGradient7546);fill-rule:evenodd;stroke:#373435;stroke-width:0.2"/>
      <polygon transform="matrix(6.83244,0,0,6.83244,-653.686,-174.701)" class="fil0 str0" points="126.293,161.057 121.019,157.364 119.496,159.539 114.357,170.225 116.487,171.716 124.77,163.232 " id="polygon3355" style="fill:url(#linearGradient7548);fill-rule:evenodd;stroke:#373435;stroke-width:0.2"/>
      <path class="fil0 str0" d="m 372.04724,291.06422 c 189.02902,0 342.26765,153.23866 342.26765,342.26766 0,189.02901 -153.23863,342.26765 -342.26765,342.26765 -189.02902,0 -342.267652,-153.23864 -342.267652,-342.26765 0,-189.029 153.238632,-342.26766 342.267652,-342.26766 z m 0,37.35978 c 168.39574,0 304.90788,136.51216 304.90788,304.90788 0,168.39571 -136.51214,304.90787 -304.90788,304.90787 -168.39574,0 -304.907876,-136.51216 -304.907876,-304.90787 0,-168.39572 136.512136,-304.90788 304.907876,-304.90788 z" id="path3182" inkscape:connector-curvature="0" style="fill:url(#radialGradient7550);fill-rule:evenodd;stroke:#000000;stroke-width:1.92826641;stroke-miterlimit:4;stroke-opacity:1;stroke-dasharray:none"/>
      <path class="fil0 str0" d="m 367.35048,615.414 c 0,0 -5.11798,-108.38136 -5.11798,-133.93451 0,-25.55246 7.21779,-88.11406 7.21779,-88.11406 l 5.40844,0 c 0,0 7.21777,62.5616 7.21777,88.11406 0,25.55315 -5.11796,133.93451 -5.11796,133.93451 l -9.60806,0 z" id="path3206" inkscape:connector-curvature="0" style="fill:#000000;fill-rule:evenodd;stroke:#000000;stroke-width:1.67075086;stroke-opacity:1"/>
      <path class="fil0 str0" d="m 380.62878,617.0898 c 0,0 32.10974,-66.98046 40.68445,-82.20655 8.57471,-15.22609 35.57447,-49.12251 35.57447,-49.12251 l 4.50052,2.53482 c 0,0 -14.98695,40.66055 -23.56166,55.88732 -8.57404,15.22609 -49.20246,77.4095 -49.20246,77.4095 l -7.99532,-4.50258 z" id="path3208" inkscape:connector-curvature="0" style="fill:#000000;fill-rule:evenodd;stroke:#000000;stroke-width:1.36648798;stroke-opacity:1"/>
      <path class="fil0 str0" d="m 372.04724,353.73273 c 154.41793,0 279.59915,125.18122 279.59915,279.59915 0,154.41792 -125.18122,279.59914 -279.59915,279.59914 -154.41793,0 -279.599148,-125.18122 -279.599148,-279.59914 0,-154.41793 125.181218,-279.59915 279.599148,-279.59915 z m 0,21.69299 c 142.43724,0 257.90615,115.46892 257.90615,257.90616 0,142.43724 -115.46891,257.90615 -257.90615,257.90615 -142.43724,0 -257.90615,-115.46891 -257.90615,-257.90615 0,-142.43724 115.46891,-257.90616 257.90615,-257.90616 z" id="path3184" inkscape:connector-curvature="0" style="fill:none;stroke:#000000;stroke-width:1.36648798;stroke-opacity:1"/>
      <circle d="m 154.36,118.264 c 0,2.33782 -1.89518,4.233 -4.233,4.233 -2.33782,0 -4.233,-1.89518 -4.233,-4.233 0,-2.33782 1.89518,-4.233 4.233,-4.233 2.33782,0 4.233,1.89518 4.233,4.233 z" transform="matrix(6.83244,0,0,6.83244,-653.686,-174.701)" class="fil0 str0" cx="150.127" cy="118.264" r="4.2329998" id="circle3188" sodipodi:cx="150.127" sodipodi:cy="118.264" sodipodi:rx="4.2329998" sodipodi:ry="4.2329998" style="fill:#000000;fill-rule:evenodd;stroke:none"/>
      <circle d="m 153.3269,118.264 c 0,1.76726 -1.43265,3.1999 -3.1999,3.1999 -1.76726,0 -3.1999,-1.43264 -3.1999,-3.1999 0,-1.76726 1.43264,-3.1999 3.1999,-3.1999 1.76725,0 3.1999,1.43264 3.1999,3.1999 z" transform="matrix(6.83244,0,0,6.83244,-653.686,-174.701)" class="fil0 str0" cx="150.127" cy="118.264" r="3.1998999" id="circle3190" sodipodi:cx="150.127" sodipodi:cy="118.264" sodipodi:rx="3.1998999" sodipodi:ry="3.1998999" style="fill:url(#radialGradient7552);fill-rule:evenodd;stroke:none"/>
      <path sodipodi:nodetypes="ccccsccc" style="fill:url(#radialGradient7554);fill-rule:evenodd;stroke:#000000;stroke-width:1.92826641;stroke-miterlimit:4;stroke-opacity:1;stroke-dasharray:none" inkscape:connector-curvature="0" d="m 178.38522,291.28457 19.30786,-10.03183 8.98166,15.80997 115.25848,-61.2842 C 295.28463,185.65982 217.37091,174.97185 147.90823,211.90596 78.444867,248.84009 43.737441,319.4103 70.385311,369.52899 L 186.68145,307.69336 z" class="fil0 str0" id="_215788296"/>
      <path inkscape:transform-center-y="28.520974" inkscape:transform-center-x="250.44595" inkscape:connector-curvature="0" id="path4554" d="m 219.18159,183.27099 -17.11028,-13.08535 c 0,0 -1.20497,4.78081 -3.37393,7.12049 -2.16889,2.3397 -10.60353,7.85047 -14.94138,9.87897 -4.33785,2.0285 -60.97065,26.94534 -60.97065,26.94534 l 1.44595,8.24047 90.13047,-35.64107 c 0,0 3.37387,-1.09574 4.81982,-3.45885 z" style="fill:url(#linearGradient7556);fill-rule:evenodd;stroke:none"/>
      <path inkscape:transform-center-y="36.073447" inkscape:transform-center-x="25.242785" style="fill:url(#linearGradient7558);fill-rule:evenodd;stroke:none" d="m 557.03706,194.20692 17.11034,-11.97768 c 0,0 1.20489,4.85881 3.37384,7.33891 2.1689,2.48011 10.60362,8.53691 14.94139,10.84623 4.33785,2.30933 60.97065,30.89242 60.97065,30.89242 l -1.44595,8.14687 -90.13047,-41.47587 c 0,0 -3.37385,-1.31419 -4.8198,-3.77088 z" id="path4562" inkscape:connector-curvature="0"/>
      <path inkscape:transform-center-y="0.15234544" inkscape:transform-center-x="137.85449" class="fil0 str0" d="m 388.0898,66.510486 c -65.88179,-2.132509 -142.5035,15.34148 -155.768,31.113215 -13.26451,15.771719 -3.85896,83.066189 -16.2694,88.053229 l -91.59364,36.80549 -1.50588,-7.88281 c 25.81091,-15.1333 72.47237,-26.88813 78.63796,-42.34714 5.87317,-14.72648 -9.04615,-66.04274 19.88513,-93.961723 28.93129,-27.918983 100.73204,-36.510393 166.61383,-34.377885 65.88181,2.132508 137.68256,15.372101 166.61384,45.164029 28.93129,29.791889 14.01196,80.142339 19.88514,95.249009 6.16559,15.85818 52.82705,30.63374 78.63796,47.43796 l -1.50588,7.78534 -91.59364,-42.73503 C 547.71678,191.0237 557.12233,124.33813 543.85782,107.7077 530.59331,91.077255 453.97161,68.642975 388.0898,66.510486 z" id="path3200" inkscape:connector-curvature="0" style="fill:none;stroke:#000000;stroke-width:1.36648798;stroke-opacity:1"/>
      <rect class="fil0 str0" transform="matrix(0.99254619,-0.12186902,0.12186902,0.99254619,0,0)" width="70.80407" height="32.689873" rx="12.543979" ry="12.4939" id="rect3202" x="298.88318" y="250.1122" style="fill:url(#linearGradient7560);fill-rule:evenodd;stroke:#000000;stroke-width:1.92826605;stroke-miterlimit:4;stroke-opacity:1;stroke-dasharray:none"/>
      <polygon transform="matrix(6.83244,0,0,6.83244,-654.243,-178.48)" class="fil0 str0" points="150.595,77.895 149.822,77.895 150.208,78.8624 150.595,79.8297 150.982,78.8624 151.368,77.895 " id="polygon3210" style="fill:#000000;fill-rule:evenodd;stroke:#000000;stroke-width:0.2;stroke-opacity:1"/>
      <polygon transform="matrix(6.83244,0,0,6.83244,-653.686,-174.701)" class="fil0 str0" points="131.021,82.6383 130.351,83.025 129.682,83.4116 130.5,84.0561 131.319,84.7005 131.17,83.6694 " id="polygon3212" style="fill:#000000;fill-opacity:1;fill-rule:evenodd;stroke:#000000;stroke-width:0.2;stroke-opacity:1"/>
      <polygon transform="matrix(6.83244,0,0,6.83244,-653.116,-175.699)" class="fil0 str0" points="170.728,83.2896 170.058,82.903 169.909,83.9341 169.761,84.9651 170.579,84.3207 171.398,83.6762 " id="polygon3214" style="fill:#000000;fill-opacity:1;fill-rule:evenodd;stroke:#000000;stroke-width:0.2;stroke-opacity:1"/>
      <polygon transform="matrix(6.83244,0,0,6.83244,-652.546,-175.129)" class="fil0 str0" points="185.504,98.3839 185.117,97.7142 184.472,98.5327 183.828,99.3512 184.859,99.2024 185.89,99.0535 " id="polygon3216" style="fill:#000000;fill-opacity:1;fill-rule:evenodd;stroke:#000000;stroke-width:0.2;stroke-opacity:1"/>
      <polygon transform="matrix(6.83244,0,0,6.83244,-655.68,-175.251)" class="fil0 str0" points="116.33,97.7417 116.974,98.5602 115.943,98.4114 114.912,98.2625 115.298,97.5928 115.685,96.9231 " id="polygon3218" style="fill:#000000;fill-opacity:1;fill-rule:evenodd;stroke:#000000;stroke-width:0.2;stroke-opacity:1"/>
      <polygon transform="matrix(6.83244,0,0,6.83244,-654.684,-173.134)" class="fil0 str0" points="129.699,153.217 129.029,152.83 129.848,152.186 130.666,151.541 130.517,152.572 130.368,153.603 " id="polygon3220" style="fill:#000000;fill-opacity:1;fill-rule:evenodd;stroke:#000000;stroke-width:0.2;stroke-opacity:1"/>
      <polygon transform="matrix(6.83244,0,0,6.83244,-654.114,-175.556)" class="fil0 str0" points="170.229,153.917 170.899,153.53 170.08,152.886 169.262,152.241 169.411,153.273 169.56,154.304 " id="polygon3222" style="fill:#000000;fill-opacity:1;fill-rule:evenodd;stroke:#000000;stroke-width:0.2;stroke-opacity:1"/>
      <polygon transform="matrix(6.83244,0,0,6.83244,-656.394,-174.701)" class="fil0 str0" points="109.761,117.933 109.761,118.707 110.729,118.32 111.696,117.933 110.729,117.547 109.761,117.16 " id="polygon3224" style="fill:#000000;fill-opacity:1;fill-rule:evenodd;stroke:#000000;stroke-width:0.2;stroke-opacity:1"/>
      <polygon transform="matrix(6.83244,0,0,6.83244,-652.689,-174.274)" class="fil0 str0" points="190.717,118.619 190.717,119.392 189.75,119.006 188.783,118.619 189.75,118.232 190.717,117.846 " id="polygon3226" style="fill:#000000;fill-opacity:1;fill-rule:evenodd;stroke:#000000;stroke-width:0.2;stroke-opacity:1"/>
      <polygon transform="matrix(6.83244,0,0,6.83244,-654.969,-173.846)" class="fil0 str0" points="114.901,138.256 115.288,138.926 115.933,138.107 116.577,137.289 115.546,137.437 114.515,137.586 " id="polygon3228" style="fill:#000000;fill-opacity:1;fill-rule:evenodd;stroke:#000000;stroke-width:0.2;stroke-opacity:1"/>
      <polygon transform="matrix(6.83244,0,0,6.83244,-652.404,-174.131)" class="fil0 str0" points="185.163,138.697 184.776,139.367 184.132,138.548 183.487,137.73 184.519,137.878 185.55,138.027 " id="polygon3230" style="fill:#000000;fill-opacity:1;fill-rule:evenodd;stroke:#000000;stroke-width:0.2;stroke-opacity:1"/>
      <polyline transform="matrix(6.83244,0,0,6.83244,-653.971,-175.271)" style="fill:none;stroke:#000000;stroke-width:0.2;stroke-opacity:1" points="146.367,77.8907 146.642,80.5007 146.642,80.501 " class="fil0 str0" id="_215787600"/>
      <polyline transform="matrix(6.83244,0,0,6.83244,-653.829,-175.841)" style="fill:none;stroke:#000000;stroke-width:0.2;stroke-opacity:1" points="142.231,78.571 142.777,81.138 142.777,81.1383 " class="fil0 str0" id="_215787048"/>
      <polyline transform="matrix(6.83244,0,0,6.83244,-654.399,-176.839)" style="fill:none;stroke:#000000;stroke-width:0.2;stroke-opacity:1" points="138.037,79.7821 138.848,82.2781 138.849,82.2784 " class="fil0 str0" id="_216858312"/>
      <polyline transform="matrix(6.83244,0,0,6.83244,-654.542,-177.124)" style="fill:none;stroke:#000000;stroke-width:0.2;stroke-opacity:1" points="134.152,81.3043 135.22,83.7018 135.22,83.702 " class="fil0 str0" id="_214191360"/>
      <polyline transform="matrix(6.83244,0,0,6.83244,-653.686,-175.129)" style="fill:none;stroke:#000000;stroke-width:0.2;stroke-opacity:1" points="154.712,77.9789 154.437,80.5889 154.437,80.5892 " class="fil0 str0" id="_218418568"/>
      <polyline transform="matrix(6.83244,0,0,6.83244,-653.544,-175.271)" style="fill:none;stroke:#000000;stroke-width:0.2;stroke-opacity:1" points="158.847,78.6592 158.302,81.2262 158.302,81.2265 " class="fil0 str0" id="_219188944"/>
      <polyline transform="matrix(6.83244,0,0,6.83244,-653.259,-175.699)" style="fill:none;stroke:#000000;stroke-width:0.2;stroke-opacity:1" points="163.041,79.8703 162.23,82.3663 162.23,82.3666 " class="fil0 str0" id="_219188920"/>
      <polyline transform="matrix(6.83244,0,0,6.83244,-653.401,-175.556)" style="fill:none;stroke:#000000;stroke-width:0.2;stroke-opacity:1" points="166.926,81.3925 165.859,83.79 165.859,83.7902 " class="fil0 str0" id="_219188296"/>
      <polyline transform="matrix(6.83244,0,0,6.83244,-654.542,-175.271)" style="fill:none;stroke:#000000;stroke-width:0.2;stroke-opacity:1" points="117.589,94.1613 119.712,95.7039 119.713,95.704 " class="fil0 str0" id="_219190288"/>
      <polyline transform="matrix(6.83244,0,0,6.83244,-654.256,-175.414)" style="fill:none;stroke:#000000;stroke-width:0.2;stroke-opacity:1" points="120.246,90.9197 122.197,92.6758 122.197,92.676 " class="fil0 str0" id="_219188176"/>
      <polyline transform="matrix(6.83244,0,0,6.83244,-654.542,-175.556)" style="fill:none;stroke:#000000;stroke-width:0.2;stroke-opacity:1" points="123.392,87.8932 125.148,89.8435 125.148,89.8438 " class="fil0 str0" id="_219190096"/>
      <polyline transform="matrix(6.83244,0,0,6.83244,-654.114,-175.556)" style="fill:none;stroke:#000000;stroke-width:0.2;stroke-opacity:1" points="126.653,85.2898 128.195,87.413 128.196,87.4133 " class="fil0 str0" id="_219187120"/>
      <polyline transform="matrix(6.83244,0,0,6.83244,-653.259,-174.844)" style="fill:none;stroke:#000000;stroke-width:0.2;stroke-opacity:1" points="183.124,94.6164 181.001,96.159 181.001,96.1591 " class="fil0 str0" id="_219189160"/>
      <polyline transform="matrix(6.83244,0,0,6.83244,-653.116,-174.986)" style="fill:none;stroke:#000000;stroke-width:0.2;stroke-opacity:1" points="180.467,91.3748 178.517,93.1309 178.517,93.1311 " class="fil0 str0" id="_216860272"/>
      <polyline transform="matrix(6.83244,0,0,6.83244,-652.689,-175.699)" style="fill:none;stroke:#000000;stroke-width:0.2;stroke-opacity:1" points="177.321,88.3483 175.565,90.2986 175.565,90.2989 " class="fil0 str0" id="_219188776"/>
      <polyline transform="matrix(6.83244,0,0,6.83244,-652.404,-176.126)" style="fill:none;stroke:#000000;stroke-width:0.2;stroke-opacity:1" points="174.061,85.7449 172.518,87.8681 172.518,87.8684 " class="fil0 str0" id="_215787744"/>
      <polyline transform="matrix(6.83244,0,0,6.83244,-654.399,-174.559)" style="fill:none;stroke:#000000;stroke-width:0.2;stroke-opacity:1" points="190.674,114.232 188.064,114.506 188.064,114.506 " class="fil0 str0" id="_219189232"/>
      <polyline transform="matrix(6.83244,0,0,6.83244,-653.971,-174.559)" style="fill:none;stroke:#000000;stroke-width:0.2;stroke-opacity:1" points="189.994,110.096 187.427,110.642 187.427,110.642 " class="fil0 str0" id="_219189952"/>
      <polyline transform="matrix(6.83244,0,0,6.83244,-653.686,-174.701)" style="fill:none;stroke:#000000;stroke-width:0.2;stroke-opacity:1" points="188.783,105.902 186.287,106.713 186.287,106.713 " class="fil0 str0" id="_218417128"/>
      <polyline transform="matrix(6.83244,0,0,6.83244,-652.831,-174.986)" style="fill:none;stroke:#000000;stroke-width:0.2;stroke-opacity:1" points="187.261,102.017 184.863,103.085 184.863,103.085 " class="fil0 str0" id="_218418928"/>
      <polyline transform="matrix(6.83244,0,0,6.83244,-655.254,-175.129)" style="fill:none;stroke:#000000;stroke-width:0.2;stroke-opacity:1" points="109.962,113.66 112.572,113.935 112.572,113.935 " class="fil0 str0" id="_120270400"/>
      <polyline transform="matrix(6.83244,0,0,6.83244,-655.254,-174.844)" style="fill:none;stroke:#000000;stroke-width:0.2;stroke-opacity:1" points="110.642,109.525 113.209,110.07 113.209,110.07 " class="fil0 str0" id="_214717040"/>
      <polyline transform="matrix(6.83244,0,0,6.83244,-655.397,-175.271)" style="fill:none;stroke:#000000;stroke-width:0.2;stroke-opacity:1" points="111.853,105.331 114.349,106.142 114.349,106.142 " class="fil0 str0" id="_218417680"/>
      <polyline transform="matrix(6.83244,0,0,6.83244,-655.112,-175.271)" style="fill:none;stroke:#000000;stroke-width:0.2;stroke-opacity:1" points="113.375,101.446 115.773,102.513 115.773,102.513 " class="fil0 str0" id="_218419120"/>
      <polyline transform="matrix(6.83244,0,0,6.83244,-655.254,-174.559)" style="fill:none;stroke:#000000;stroke-width:0.2;stroke-opacity:1" points="109.85,122.138 112.46,121.864 112.46,121.864 " class="fil0 str0" id="_218419240"/>
      <polyline transform="matrix(6.83244,0,0,6.83244,-655.397,-174.131)" style="fill:none;stroke:#000000;stroke-width:0.2;stroke-opacity:1" points="110.53,126.274 113.097,125.729 113.098,125.729 " class="fil0 str0" id="_218419408"/>
      <polyline transform="matrix(6.83244,0,0,6.83244,-656.109,-173.419)" style="fill:none;stroke:#000000;stroke-width:0.2;stroke-opacity:1" points="111.742,130.468 114.238,129.657 114.238,129.657 " class="fil0 str0" id="_218420776"/>
      <polyline transform="matrix(6.83244,0,0,6.83244,-656.252,-173.419)" style="fill:none;stroke:#000000;stroke-width:0.2;stroke-opacity:1" points="113.264,134.353 115.661,133.286 115.661,133.286 " class="fil0 str0" id="_218418736"/>
      <polyline transform="matrix(6.83244,0,0,6.83244,-651.264,-174.274)" style="fill:none;stroke:#000000;stroke-width:0.2;stroke-opacity:1" points="190.144,122.594 187.534,122.32 187.534,122.32 " class="fil0 str0" id="_218418640"/>
      <polyline transform="matrix(6.83244,0,0,6.83244,-650.979,-174.131)" style="fill:none;stroke:#000000;stroke-width:0.2;stroke-opacity:1" points="189.464,126.73 186.897,126.185 186.896,126.184 " class="fil0 str0" id="_218417224"/>
      <polyline transform="matrix(6.83244,0,0,6.83244,-650.551,-173.846)" style="fill:none;stroke:#000000;stroke-width:0.2;stroke-opacity:1" points="188.253,130.924 185.757,130.113 185.756,130.113 " class="fil0 str0" id="_218418088"/>
      <polyline transform="matrix(6.83244,0,0,6.83244,-650.836,-173.276)" style="fill:none;stroke:#000000;stroke-width:0.2;stroke-opacity:1" points="186.73,134.809 184.333,133.742 184.333,133.742 " class="fil0 str0" id="_218419024"/>
      <polyline transform="matrix(6.83244,0,0,6.83244,-648.129,-170.568)" style="fill:none;stroke:#000000;stroke-width:0.2;stroke-opacity:1" points="182.214,141.401 180.091,139.859 180.091,139.859 " class="fil0 str0" id="_218420272"/>
      <polyline transform="matrix(6.83244,0,0,6.83244,-648.271,-169.571)" style="fill:none;stroke:#000000;stroke-width:0.2;stroke-opacity:1" points="179.557,144.643 177.607,142.887 177.607,142.887 " class="fil0 str0" id="_218418304"/>
      <polyline transform="matrix(6.83244,0,0,6.83244,-648.556,-168.573)" style="fill:none;stroke:#000000;stroke-width:0.2;stroke-opacity:1" points="176.411,147.669 174.655,145.719 174.655,145.719 " class="fil0 str0" id="_218417320"/>
      <polyline transform="matrix(6.83244,0,0,6.83244,-648.841,-168.003)" style="fill:none;stroke:#000000;stroke-width:0.2;stroke-opacity:1" points="173.151,150.273 171.608,148.15 171.608,148.149 " class="fil0 str0" id="_218419480"/>
      <polyline transform="matrix(6.83244,0,0,6.83244,-653.401,-170.568)" style="fill:none;stroke:#000000;stroke-width:0.2;stroke-opacity:1" points="153.884,158.108 153.61,155.498 153.61,155.498 " class="fil0 str0" id="_218420536"/>
      <polyline transform="matrix(6.83244,0,0,6.83244,-652.546,-169.856)" style="fill:none;stroke:#000000;stroke-width:0.2;stroke-opacity:1" points="158.02,157.428 157.475,154.861 157.474,154.861 " class="fil0 str0" id="_219187744"/>
      <polyline transform="matrix(6.83244,0,0,6.83244,-651.691,-169.713)" style="fill:none;stroke:#000000;stroke-width:0.2;stroke-opacity:1" points="162.214,156.217 161.403,153.721 161.403,153.721 " class="fil0 str0" id="_218420008"/>
      <polyline transform="matrix(6.83244,0,0,6.83244,-651.264,-169.428)" style="fill:none;stroke:#000000;stroke-width:0.2;stroke-opacity:1" points="166.099,154.695 165.032,152.297 165.031,152.297 " class="fil0 str0" id="_218417416"/>
      <polyline transform="matrix(6.83244,0,0,6.83244,-653.686,-175.271)" style="fill:none;stroke:#000000;stroke-width:0.2;stroke-opacity:1" points="145.704,158.765 145.979,156.155 145.979,156.155 " class="fil0 str0" id="_218419288"/>
      <polyline transform="matrix(6.83244,0,0,6.83244,-653.971,-175.129)" style="fill:none;stroke:#000000;stroke-width:0.2;stroke-opacity:1" points="141.569,158.085 142.114,155.518 142.114,155.518 " class="fil0 str0" id="_218419936"/>
      <polyline transform="matrix(6.83244,0,0,6.83244,-653.686,-174.701)" style="fill:none;stroke:#000000;stroke-width:0.2;stroke-opacity:1" points="137.375,156.874 138.186,154.378 138.186,154.378 " class="fil0 str0" id="_218419984"/>
      <polyline transform="matrix(6.83244,0,0,6.83244,-653.829,-174.416)" style="fill:none;stroke:#000000;stroke-width:0.2;stroke-opacity:1" points="133.49,155.352 134.557,152.954 134.557,152.954 " class="fil0 str0" id="_218418136"/>
      <polyline transform="matrix(6.83244,0,0,6.83244,-652.404,-175.414)" style="fill:none;stroke:#000000;stroke-width:0.2;stroke-opacity:1" points="116.892,142.056 119.015,140.513 119.015,140.513 " class="fil0 str0" id="_218418016"/>
      <polyline transform="matrix(6.83244,0,0,6.83244,-653.259,-175.129)" style="fill:none;stroke:#000000;stroke-width:0.2;stroke-opacity:1" points="119.549,145.298 121.499,143.541 121.5,143.541 " class="fil0 str0" id="_218420464"/>
      <polyline transform="matrix(6.83244,0,0,6.83244,-653.544,-174.986)" style="fill:none;stroke:#000000;stroke-width:0.2;stroke-opacity:1" points="122.695,148.324 124.451,146.374 124.451,146.374 " class="fil0 str0" id="_218418880"/>
      <polyline transform="matrix(6.83244,0,0,6.83244,-653.829,-174.559)" style="fill:none;stroke:#000000;stroke-width:0.2;stroke-opacity:1" points="125.956,150.928 127.498,148.804 127.498,148.804 " class="fil0 str0" id="_218420392"/>
      <circle d="m 152.8535,101.554 c 0,1.37602 -1.11548,2.4915 -2.4915,2.4915 -1.37602,0 -2.4915,-1.11548 -2.4915,-2.4915 0,-1.37602 1.11548,-2.491499 2.4915,-2.491499 1.37602,0 2.4915,1.115479 2.4915,2.491499 z" transform="matrix(6.83244,0,0,6.83244,-653.686,-174.701)" class="fil0 str0" cx="150.362" cy="101.554" r="2.4914999" id="circle3294" sodipodi:cx="150.362" sodipodi:cy="101.554" sodipodi:rx="2.4914999" sodipodi:ry="2.4914999" style="fill:#000000;fill-rule:evenodd;stroke:none"/>
      <line class="fil0 str0" x1="373.65289" y1="455.43768" x2="373.65289" y2="462.66846" id="line3296" style="fill:none;stroke:#000000;stroke-width:1.36648798;stroke-opacity:1"/>
      <line style="fill:none;stroke:#000000;stroke-width:1.36648798;stroke-opacity:1" y2="463.14264" x2="366.29437" y1="455.97336" x1="365.3446" class="fil0 str0" id="_218418232"/>
      <line style="fill:none;stroke:#000000;stroke-width:1.36648798;stroke-opacity:1" y2="464.37521" x2="359.80353" y1="457.39038" x1="357.93823" class="fil0 str0" id="_218417584"/>
      <line style="fill:none;stroke:#000000;stroke-width:1.36648798;stroke-opacity:1" y2="466.44678" x2="353.28534" y1="459.76669" x1="350.51822" class="fil0 str0" id="_218420968"/>
      <line style="fill:none;stroke:#000000;stroke-width:1.36648798;stroke-opacity:1" y2="469.38812" x2="346.897" y1="463.12622" x1="343.28268" class="fil0 str0" id="_215787864"/>
      <line style="fill:none;stroke:#000000;stroke-width:1.36648798;stroke-opacity:1" y2="463.17746" x2="381.27786" y1="456.00818" x1="382.22076" class="fil0 str0" id="_218421112"/>
      <line style="fill:none;stroke:#000000;stroke-width:1.36648798;stroke-opacity:1" y2="464.41006" x2="387.76187" y1="457.42526" x1="389.634" class="fil0 str0" id="_218419696"/>
      <line style="fill:none;stroke:#000000;stroke-width:1.36648798;stroke-opacity:1" y2="466.48166" x2="394.28683" y1="459.80157" x1="397.05402" class="fil0 str0" id="_215787096"/>
      <line style="fill:none;stroke:#000000;stroke-width:1.36648798;stroke-opacity:1" y2="469.42303" x2="400.67517" y1="463.1611" x1="404.28949" class="fil0 str0" id="_214099944"/>
      <line style="fill:none;stroke:#000000;stroke-width:1.36648798;stroke-opacity:1" y2="473.97406" x2="407.56915" y1="468.23758" x1="411.96918" class="fil0 str0" id="_218419456"/>
      <line style="fill:none;stroke:#000000;stroke-width:1.36648798;stroke-opacity:1" y2="478.284" x2="412.56363" y1="473.1713" x1="417.68112" class="fil0 str0" id="_219189520"/>
      <line style="fill:none;stroke:#000000;stroke-width:1.36648798;stroke-opacity:1" y2="483.33862" x2="417.17548" y1="478.93649" x1="422.91476" class="fil0 str0" id="_217764056"/>
      <line style="fill:none;stroke:#000000;stroke-width:1.36648798;stroke-opacity:1" y2="489.07925" x2="421.24078" y1="485.4642" x1="427.4993" class="fil0 str0" id="_217763720"/>
      <line style="fill:none;stroke:#000000;stroke-width:1.36648798;stroke-opacity:1" y2="496.12964" x2="425.25827" y1="493.36246" x1="431.94046" class="fil0 str0" id="_217764680"/>
      <line style="fill:none;stroke:#000000;stroke-width:1.36648798;stroke-opacity:1" y2="502.36221" x2="427.43103" y1="500.49078" x1="434.42059" class="fil0 str0" id="_217764392"/>
      <line style="fill:none;stroke:#000000;stroke-width:1.36648798;stroke-opacity:1" y2="509.0484" x2="428.89993" y1="508.10144" x1="436.06717" class="fil0 str0" id="_217764488"/>
      <line style="fill:none;stroke:#000000;stroke-width:1.36648798;stroke-opacity:1" y2="516.04486" x2="429.54224" y1="516.04486" x1="436.77777" class="fil0 str0" id="_217764656"/>
      <line style="fill:none;stroke:#000000;stroke-width:1.36648798;stroke-opacity:1" y2="495.64386" x2="322.26614" y1="492.87671" x1="315.58398" class="fil0 str0" id="_217765496"/>
      <line style="fill:none;stroke:#000000;stroke-width:1.36648798;stroke-opacity:1" y2="501.87643" x2="320.09335" y1="500.005" x1="313.11069" class="fil0 str0" id="_217765136"/>
      <line style="fill:none;stroke:#000000;stroke-width:1.36648798;stroke-opacity:1" y2="508.55646" x2="318.62439" y1="507.61575" x1="311.45718" class="fil0 str0" id="_217765712"/>
      <line style="fill:none;stroke:#000000;stroke-width:1.36648798;stroke-opacity:1" y2="515.55969" x2="317.98221" y1="515.55969" x1="310.74661" class="fil0 str0" id="_217764320"/>
      <line style="fill:none;stroke:#000000;stroke-width:1.36648798;stroke-opacity:1" y2="473.53476" x2="340.33102" y1="467.79822" x1="335.931" class="fil0 str0" id="_219189472"/>
      <line style="fill:none;stroke:#000000;stroke-width:1.36648798;stroke-opacity:1" y2="477.84479" x2="335.32977" y1="472.73193" x1="330.21906" class="fil0 str0" id="_217766048"/>
      <line style="fill:none;stroke:#000000;stroke-width:1.36648798;stroke-opacity:1" y2="482.89929" x2="330.71783" y1="478.49719" x1="324.98541" class="fil0 str0" id="_217765808"/>
      <line style="fill:none;stroke:#000000;stroke-width:1.36648798;stroke-opacity:1" y2="488.63989" x2="326.65927" y1="485.02487" x1="320.40076" class="fil0 str0" id="_217764368"/>
      <line class="fil0 str0" x1="314.3541" y1="540.03357" x2="321.02942" y2="537.26636" id="line3328" style="fill:none;stroke:#000000;stroke-width:1.36648798;stroke-opacity:1"/>
      <line class="fil0 str0" x1="311.87399" y1="532.90033" x2="318.85666" y2="531.02832" id="line3330" style="fill:none;stroke:#000000;stroke-width:1.36648798;stroke-opacity:1"/>
      <line class="fil0 str0" x1="310.22052" y1="525.28906" x2="317.39462" y2="524.34631" id="line3332" style="fill:none;stroke:#000000;stroke-width:1.36648798;stroke-opacity:1"/>
      <line style="fill:none;stroke:#000000;stroke-width:1.36648798;stroke-opacity:1" y2="561.07745" x2="337.58435" y1="566.80988" x1="333.1843" class="fil0 str0" id="_217767608"/>
      <line style="fill:none;stroke:#000000;stroke-width:1.36648798;stroke-opacity:1" y2="556.76617" x2="332.58307" y1="561.87683" x1="327.47235" class="fil0 str0" id="_217766648"/>
      <line style="fill:none;stroke:#000000;stroke-width:1.36648798;stroke-opacity:1" y2="551.71027" x2="327.97113" y1="556.11029" x1="322.23877" class="fil0 str0" id="_217767488"/>
      <line style="fill:none;stroke:#000000;stroke-width:1.36648798;stroke-opacity:1" y2="545.97089" x2="323.91269" y1="549.58533" x1="317.65421" class="fil0 str0" id="_217767680"/>
      <line style="fill:none;stroke:#000000;stroke-width:1.36648798;stroke-opacity:1" y2="573.41003" x2="363.2402" y1="580.57727" x1="362.2973" class="fil0 str0" id="_217767200"/>
      <line style="fill:none;stroke:#000000;stroke-width:1.36648798;stroke-opacity:1" y2="572.17334" x2="356.75632" y1="579.16296" x1="354.88419" class="fil0 str0" id="_217766264"/>
      <line style="fill:none;stroke:#000000;stroke-width:1.36648798;stroke-opacity:1" y2="570.10315" x2="350.23807" y1="576.78522" x1="347.47095" class="fil0 str0" id="_217767032"/>
      <line style="fill:none;stroke:#000000;stroke-width:1.36648798;stroke-opacity:1" y2="567.16522" x2="343.84973" y1="573.42371" x1="340.23535" class="fil0 str0" id="_217765520"/>
      <line style="fill:none;stroke:#000000;stroke-width:1.36648798;stroke-opacity:1" y2="575.1181" x2="381.42816" y1="582.29218" x1="382.37103" class="fil0 str0" id="_217766192"/>
      <line style="fill:none;stroke:#000000;stroke-width:1.36648798;stroke-opacity:1" y2="573.88824" x2="387.91223" y1="580.87103" x1="389.7843" class="fil0 str0" id="_217765616"/>
      <line style="fill:none;stroke:#000000;stroke-width:1.36648798;stroke-opacity:1" y2="571.81805" x2="394.43719" y1="578.49329" x1="397.20432" class="fil0 str0" id="_217765688"/>
      <line style="fill:none;stroke:#000000;stroke-width:1.36648798;stroke-opacity:1" y2="568.87329" x2="400.81863" y1="575.13861" x1="404.43307" class="fil0 str0" id="_218417632"/>
      <path sodipodi:nodetypes="zsssz" inkscape:connector-curvature="0" id="path4441" d="m 343.9916,226.64526 c 0.91124,9.06692 0.0847,15.77021 -3.87986,16.0484 -3.96473,0.27821 -10.24874,-6.84218 -10.98335,-14.64715 -0.73463,-7.80497 2.92134,-16.49335 6.88607,-16.77154 3.96473,-0.27823 7.0659,6.30335 7.97714,15.37029 z" style="fill:url(#radialGradient3578);fill-opacity:1;fill-rule:nonzero;stroke:none"/>
      <path style="fill:url(#radialGradient3575);fill-opacity:1;fill-rule:nonzero;stroke:none" d="m 399.40473,215.77448 c 0.73471,7.81554 -2.60937,16.31308 -6.57396,16.53433 -3.96473,0.22131 -8.34077,-5.9343 -9.38373,-14.9119 -1.04298,-8.97757 0.76563,-16.2443 4.73036,-16.46555 3.96465,-0.2213 10.49272,7.02761 11.22733,14.84312 z" id="path4459" inkscape:connector-curvature="0" sodipodi:nodetypes="sszss"/>
      <polygon style="fill:#000000;fill-rule:evenodd;stroke:#000000;stroke-width:0.2;stroke-opacity:1" id="polygon4489" points="151.368,77.895 150.595,77.895 149.822,77.895 150.208,78.8624 150.595,79.8297 150.982,78.8624 " class="fil0 str0" transform="matrix(6.83244,0,0,-6.83244,-659.089,1443.97)"/>
      <path sodipodi:nodetypes="cc" inkscape:connector-curvature="0" id="path4501" d="m 356.6843,489.74344 c 10.04607,-3.70356 22.63771,-3.09386 32.83568,-0.11415" style="fill:none;stroke:#000000;stroke-width:0.96413314;stroke-linecap:butt;stroke-linejoin:miter;stroke-miterlimit:4;stroke-opacity:1;stroke-dasharray:none"/>
      <path style="fill:#000000;fill-opacity:1;fill-rule:nonzero;stroke:none" d="m 387.70247,488.64267 c 0,0 1.52071,3.88091 4.91862,7.62138 3.3979,3.74049 8.02518,4.91995 8.02518,4.91995 0,0 -0.95573,-4.56766 -4.63924,-8.13595 -3.68349,-3.5683 -8.30456,-4.40538 -8.30456,-4.40538 z" id="path4503" inkscape:connector-curvature="0" sodipodi:nodetypes="czczc"/>
      <path sodipodi:nodetypes="czczc" inkscape:connector-curvature="0" id="path4505" d="m 358.62055,488.64267 c 0,0 -1.52071,3.88091 -4.91862,7.62138 -3.3979,3.74049 -8.02518,4.91995 -8.02518,4.91995 0,0 0.95573,-4.56766 4.63924,-8.13595 3.68351,-3.5683 8.30456,-4.40538 8.30456,-4.40538 z" style="fill:#000000;fill-opacity:1;fill-rule:nonzero;stroke:none"/>
      <path id="path4517" d="m 146.51346,176.0021 c 2.68905,5.1579 -1.26134,12.53512 -8.82334,16.47746 -7.56208,3.94236 -15.87218,2.95696 -18.56115,-2.20092 -2.68904,-5.15792 1.26134,-12.53514 8.82335,-16.4775 7.56208,-3.94234 15.87215,-2.95696 18.56114,2.20096 z" style="fill:url(#radialGradient3568);fill-opacity:1;fill-rule:nonzero;stroke:none" inkscape:connector-curvature="0"/>
      <path inkscape:connector-curvature="0" style="fill:url(#radialGradient3565);fill-opacity:1;fill-rule:nonzero;stroke:none" d="m 620.09808,186.85249 c -2.68897,5.1579 1.26134,12.53512 8.82342,16.47746 7.562,3.94236 15.8721,2.95696 18.56107,-2.20092 2.68904,-5.15792 -1.26134,-12.53514 -8.82334,-16.4775 -7.56201,-3.94234 -15.87218,-2.95696 -18.56115,2.20096 z" id="path4522"/>
      <path sodipodi:nodetypes="sccccsss" inkscape:connector-curvature="0" id="_214191456" d="m 70.385658,369.52899 c 4.537288,8.53335 59.404932,-11.66964 124.679522,-45.55886 l -16.38665,-32.48662 c 3.74002,-2.08776 15.29558,-8.32765 19.3516,-10.31582 l 16.8783,32.08542 c 64.35914,-35.07538 111.55147,-68.96175 107.02506,-77.47462 -4.76072,-8.95357 -64.93094,13.72918 -134.39396,50.66335 -69.46297,36.93419 -121.914569,74.13357 -117.153872,83.08715 z" style="fill:url(#radialGradient3562);fill-rule:evenodd;stroke:#000000;stroke-width:1.92826641;stroke-miterlimit:4;stroke-opacity:1"/>
      <g id="text4581" style="font-size:73.27412415px;font-style:normal;font-variant:normal;font-weight:normal;font-stretch:normal;line-height:125%;letter-spacing:0px;word-spacing:0px;fill:#000000;fill-opacity:1;fill-rule:evenodd;stroke:none;font-family:Adobe Garamond Pro;-inkscape-font-specification:Bodoni MT">
        <path id="path3732" style="font-family:Bodoni MT;-inkscape-font-specification:Bodoni MT" d="m 358.75265,387.12139 0,45.29543 8.26481,0 0,1.8247 -23.29173,0 0,-1.8247 8.22903,0 0,-42.00382 -8.22903,0 0,-1.8247 1.25224,0 c 5.22363,5e-5 9.81519,-0.48892 13.77468,-1.46691 z"/>
        <path id="path3734" style="font-family:Bodoni MT;-inkscape-font-specification:Bodoni MT" d="m 404.94254,420.96774 -1.18069,13.27378 -26.83378,0 0,-4.25763 c 2.7907,-3.12464 6.88732,-7.19144 12.28987,-12.20043 5.40251,-5.00895 8.10378,-10.54267 8.1038,-16.60117 -2e-5,-3.41083 -0.75137,-6.16577 -2.25403,-8.2648 -1.50272,-2.09896 -3.63749,-3.14846 -6.40433,-3.1485 -2.4568,4e-5 -4.46039,0.7812 -6.01077,2.34348 -1.55041,1.56237 -2.3256,3.24991 -2.3256,5.06264 0,0.93028 0.21467,1.3954 0.64401,1.39536 0.0954,4e-5 0.28622,-0.0835 0.57246,-0.25045 0.78711,-0.52471 1.55038,-0.78709 2.28981,-0.78712 0.93023,3e-5 1.72332,0.36378 2.37927,1.09124 0.65592,0.72753 0.98389,1.58024 0.9839,2.55815 -10e-6,1.00183 -0.3578,1.86647 -1.07335,2.59393 -0.71558,0.72753 -1.59811,1.09127 -2.6476,1.09125 -1.47885,2e-5 -2.70724,-0.63802 -3.68517,-1.91415 -0.97795,-1.27606 -1.46692,-2.8682 -1.46692,-4.77641 0,-2.90994 1.19857,-5.48002 3.59573,-7.71024 2.39714,-2.23014 5.48004,-3.34523 9.24871,-3.34528 3.69708,5e-5 6.88135,1.02569 9.55283,3.07694 2.67142,2.05134 4.00715,4.73471 4.00718,8.05013 -3e-5,3.53017 -1.18072,6.76215 -3.54206,9.69595 -2.3614,2.93385 -5.83786,6.53553 -10.4294,10.80507 -4.59157,4.26956 -7.85336,7.45383 -9.78539,9.55282 l 16.27917,0 c 3.02921,10e-6 4.68097,-0.25044 4.9553,-0.75134 0.27427,-0.50089 0.49491,-1.66965 0.6619,-3.50628 l 0.32201,-3.07694 z"/>
      </g>
      <g id="text4585" style="font-size:73.27412415px;font-style:normal;font-variant:normal;font-weight:normal;font-stretch:normal;line-height:125%;letter-spacing:0px;word-spacing:0px;fill:#000000;fill-opacity:1;fill-rule:evenodd;stroke:none;font-family:Bodoni MT;-inkscape-font-specification:Bodoni MT">
        <path id="path3737" style="font-family:Bodoni MT;-inkscape-font-specification:Bodoni MT" d="m 261.80273,417.64266 0,45.29543 8.2648,0 0,1.8247 -23.29172,0 0,-1.8247 8.22903,0 0,-42.00382 -8.22903,0 0,-1.8247 1.25224,0 c 5.22363,5e-5 9.81519,-0.48892 13.77468,-1.46691 z"/>
        <path id="path3739" style="font-family:Bodoni MT;-inkscape-font-specification:Bodoni MT" d="m 297.72422,417.64266 0,45.29543 8.26481,0 0,1.8247 -23.29173,0 0,-1.8247 8.22903,0 0,-42.00382 -8.22903,0 0,-1.8247 1.25225,0 c 5.22363,5e-5 9.81518,-0.48892 13.77467,-1.46691 z"/>
      </g>
      <g id="text4589" style="font-size:73.27412415px;font-style:normal;font-variant:normal;font-weight:normal;font-stretch:normal;line-height:125%;letter-spacing:0px;word-spacing:0px;fill:#000000;fill-opacity:1;fill-rule:evenodd;stroke:none;font-family:Bodoni MT;-inkscape-font-specification:Bodoni MT">
        <path id="path3742" style="font-family:Bodoni MT;-inkscape-font-specification:Bodoni MT" d="m 175.62499,494.84343 0,45.29543 8.26481,0 0,1.8247 -23.29173,0 0,-1.8247 8.22903,0 0,-42.00381 -8.22903,0 0,-1.8247 1.25225,0 c 5.22363,4e-5 9.81518,-0.48893 13.77467,-1.46692 z"/>
        <path id="path3744" style="font-family:Bodoni MT;-inkscape-font-specification:Bodoni MT" d="m 208.04021,543.00114 c -4.1026,-10e-6 -7.60888,-2.43293 -10.51885,-7.29879 -2.90998,-4.86585 -4.36496,-10.28031 -4.36496,-16.24339 0,-6.36852 1.47884,-12.06324 4.43652,-17.08418 2.95767,-5.02085 6.51165,-7.5313 10.66196,-7.53135 4.00715,5e-5 7.47765,2.51646 10.41151,7.54924 2.93379,5.03286 4.4007,10.57851 4.40074,16.63695 -4e-5,5.91538 -1.47887,11.38946 -4.43652,16.42228 -2.95771,5.03282 -6.48784,7.54923 -10.5904,7.54924 z m 7.40612,-18.78365 0,-12.30777 c -2e-5,-10.20872 -2.39717,-15.3131 -7.19145,-15.31315 -2.4091,5e-5 -4.25764,1.19266 -5.54565,3.57784 -1.28804,2.38527 -1.93205,6.54748 -1.93203,12.48666 l 0,13.91779 c -2e-5,9.77943 2.46869,14.66914 7.40612,14.66913 2.38521,1e-5 4.19201,-1.27013 5.42042,-3.81039 1.22837,-2.54026 1.84257,-6.94696 1.84259,-13.22011 z"/>
      </g>
      <g id="text4593" style="font-size:73.27412415px;font-style:normal;font-variant:normal;font-weight:normal;font-stretch:normal;line-height:125%;letter-spacing:0px;word-spacing:0px;fill:#000000;fill-opacity:1;fill-rule:evenodd;stroke:none;font-family:Bodoni MT;-inkscape-font-specification:Bodoni MT">
        <path id="path3705" style="font-family:Bodoni MT;-inkscape-font-specification:Bodoni MT" d="m 133.81064,657.64788 0,-1.46691 c 10.37571,-1.71736 16.41033,-8.4914 18.10386,-20.32212 l -0.14311,-0.14312 c -2.26599,2.55221 -4.92551,3.82831 -7.97858,3.82829 -3.38704,2e-5 -6.46994,-1.50864 -9.24871,-4.52596 -2.7788,-3.01729 -4.16819,-6.54146 -4.16819,-10.57252 0,-4.29337 1.35361,-8.10376 4.06085,-11.43119 2.70722,-3.32734 6.15983,-4.99104 10.35784,-4.99108 4.46035,4e-5 8.14552,1.83667 11.05552,5.50987 2.90994,3.67328 4.36493,8.45566 4.36496,14.34713 -3e-5,7.56118 -2.51644,14.1444 -7.54923,19.74967 -5.03285,5.60528 -11.31791,8.94459 -18.85521,10.01794 z m 18.39009,-24.68708 0.39356,-11.94998 c -3e-5,-7.58498 -2.49258,-11.37748 -7.47768,-11.37753 -2.50451,5e-5 -4.31727,1.00781 -5.43832,3.02328 -1.12106,2.01555 -1.68159,6.78004 -1.68158,14.29346 -1e-5,7.17955 2.07513,10.76931 6.22544,10.76929 2.9338,2e-5 5.59333,-1.58615 7.97858,-4.75852 z"/>
      </g>
      <g id="text4597" style="font-size:73.27412415px;font-style:normal;font-variant:normal;font-weight:normal;font-stretch:normal;line-height:125%;letter-spacing:0px;word-spacing:0px;fill:#000000;fill-opacity:1;fill-rule:evenodd;stroke:none;font-family:Bodoni MT;-inkscape-font-specification:Bodoni MT">
        <path id="path3708" style="font-family:Bodoni MT;-inkscape-font-specification:Bodoni MT" d="m 181.01118,744.20866 0,0.14311 c 3.9356,0.90641 6.86346,2.43296 8.78359,4.57964 1.92008,2.14672 2.88013,4.6035 2.88016,7.37034 -3e-5,3.50629 -1.36557,6.53553 -4.09662,9.08771 -2.73111,2.55219 -6.39839,3.82829 -11.00186,3.82829 -4.50808,0 -8.13959,-1.22839 -10.89451,-3.68517 -2.75494,-2.45678 -4.13241,-5.43831 -4.13241,-8.9446 0,-3.24389 1.13895,-5.96305 3.41684,-8.15747 2.27788,-2.19439 5.21767,-3.55396 8.81937,-4.07874 l 0,-0.14311 c -3.64941,-0.69169 -6.39241,-2.1109 -8.22903,-4.25763 -1.83663,-2.14667 -2.75494,-4.50804 -2.75493,-7.08412 -1e-5,-3.19616 1.32379,-5.95109 3.9714,-8.2648 2.64759,-2.31362 5.91534,-3.47046 9.80327,-3.47051 4.22183,5e-5 7.60885,1.18074 10.16106,3.54206 2.55217,2.36142 3.82826,5.0925 3.82829,8.19325 -3e-5,2.36141 -0.88853,4.65122 -2.66549,6.86945 -1.77702,2.21829 -4.40673,3.70905 -7.88913,4.4723 z m -3.22006,-0.78712 c 2.05128,2e-5 3.63745,-0.76325 4.75853,-2.28982 1.12103,-1.52652 1.68156,-4.37686 1.68158,-8.55103 -2e-5,-3.74477 -0.55459,-6.29696 -1.66369,-7.65658 -1.10915,-1.35953 -2.74899,-2.03932 -4.91953,-2.03936 -2.07516,4e-5 -3.67922,0.67983 -4.81219,2.03936 -1.13299,1.35962 -1.69949,4.49619 -1.69947,9.40972 -2e-5,6.0585 2.21824,9.08773 6.65477,9.08771 z m -0.28622,24.04307 c 2.59987,0 4.50805,-0.74538 5.72454,-2.23615 1.21644,-1.49076 1.82467,-4.23973 1.8247,-8.24692 -3e-5,-7.72811 -2.49259,-11.59217 -7.47769,-11.59219 -2.36138,2e-5 -4.18608,0.86466 -5.47409,2.59393 -1.28803,1.72931 -1.93204,4.89569 -1.93203,9.49916 -1e-5,3.72096 0.57244,6.31489 1.71736,7.7818 1.1449,1.46691 3.0173,2.20037 5.61721,2.20037 z"/>
      </g>
      <g id="text4601" style="font-size:73.27412415px;font-style:normal;font-variant:normal;font-weight:normal;font-stretch:normal;line-height:125%;letter-spacing:0px;word-spacing:0px;fill:#000000;fill-opacity:1;fill-rule:evenodd;stroke:none;font-family:Bodoni MT;-inkscape-font-specification:Bodoni MT">
        <path id="path3711" style="font-family:Bodoni MT;-inkscape-font-specification:Bodoni MT" d="m 244.36577,797.28835 25.04486,0 -4.97319,12.16465 c -0.11929,0.45322 -0.93623,2.51048 -2.45082,6.17177 -1.51464,3.66134 -2.58203,6.67865 -3.20217,9.05193 -0.62018,2.37331 -0.93025,4.35901 -0.93023,5.9571 -2e-5,1.40729 0.32794,3.17236 0.9839,5.2952 0.65592,2.12285 0.98388,3.6971 0.98391,4.72274 -3e-5,0.9541 -0.33992,1.85452 -1.01969,2.70127 -0.67981,0.84676 -1.60408,1.27013 -2.77282,1.27013 -1.33575,0 -2.42698,-0.52475 -3.27372,-1.57424 -0.84677,-1.0495 -1.27015,-2.43293 -1.27014,-4.1503 -1e-5,-1.78891 0.56052,-4.0668 1.68159,-6.83367 l 11.62797,-28.1218 -17.06629,0 c -1.66966,3e-5 -2.72512,0.20874 -3.16638,0.62612 -0.44128,0.41745 -0.92428,1.62795 -1.44903,3.6315 l -0.57245,2.18248 -1.8247,0 z"/>
      </g>
      <g id="text4605" style="font-size:73.27412415px;font-style:normal;font-variant:normal;font-weight:normal;font-stretch:normal;line-height:125%;letter-spacing:0px;word-spacing:0px;fill:#000000;fill-opacity:1;fill-rule:evenodd;stroke:none;font-family:Bodoni MT;-inkscape-font-specification:Bodoni MT">
        <path id="path3714" style="font-family:Bodoni MT;-inkscape-font-specification:Bodoni MT" d="m 381.63088,827.3868 0,2.21826 c -10.87665,1.33577 -16.93511,7.72817 -18.17542,19.17721 l 0.14312,0.14311 c 2.19439,-2.52831 4.80621,-3.79247 7.83546,-3.7925 3.67323,3e-5 6.83961,1.52061 9.49916,4.56174 2.6595,3.04118 3.98926,6.57728 3.98929,10.60829 -3e-5,4.34112 -1.43713,8.19922 -4.31129,11.5743 -2.87423,3.3751 -6.30298,5.06264 -10.28629,5.06265 -4.34112,-10e-6 -7.94281,-1.92607 -10.80507,-5.77821 -2.86227,-3.85213 -4.29341,-8.7001 -4.2934,-14.54391 -1e-5,-7.75196 2.48659,-14.34114 7.45979,-19.76756 4.97318,-5.42634 11.28805,-8.5808 18.94465,-9.46338 z m -18.56898,24.68708 -0.21467,6.33277 c -1e-5,8.72994 0.88252,13.70909 2.6476,14.93748 1.76505,1.22839 3.37508,1.84259 4.83008,1.84259 2.24209,0 3.96542,-0.94813 5.16998,-2.84439 1.20451,-1.89624 1.80678,-5.76627 1.80681,-11.61008 -3e-5,-6.17771 -0.55459,-10.02985 -1.6637,-11.55642 -1.10915,-1.52651 -2.67744,-2.28979 -4.70486,-2.28981 -2.81458,2e-5 -5.43832,1.72931 -7.87124,5.18786 z"/>
      </g>
      <g id="text4609" style="font-size:73.27412415px;font-style:normal;font-variant:normal;font-weight:normal;font-stretch:normal;line-height:125%;letter-spacing:0px;word-spacing:0px;fill:#000000;fill-opacity:1;fill-rule:evenodd;stroke:none;font-family:Bodoni MT;-inkscape-font-specification:Bodoni MT">
        <path id="path3717" style="font-family:Bodoni MT;-inkscape-font-specification:Bodoni MT" d="m 477.43531,807.24766 -0.57245,13.41689 c 2.52832,-0.7871 4.9851,-1.18066 7.37034,-1.18069 4.50806,3e-5 8.26479,1.31787 11.27019,3.95351 3.00536,2.6357 4.50805,5.93327 4.50808,9.89273 -3e-5,4.198 -1.63391,7.72813 -4.90164,10.5904 -3.26778,2.86227 -7.13184,4.2934 -11.59219,4.2934 -3.67326,0 -6.48783,-0.94216 -8.4437,-2.82649 -1.95589,-1.88432 -2.93383,-4.04295 -2.93383,-6.47589 0,-1.07334 0.33393,-1.99165 1.0018,-2.75493 0.66785,-0.76326 1.58616,-1.1449 2.75493,-1.14491 0.95408,1e-5 1.75313,0.33394 2.39715,1.0018 0.644,0.66787 0.96601,1.5027 0.96602,2.50448 -1e-5,1.71737 -0.76328,2.89806 -2.28982,3.54206 -0.62016,0.26238 -0.93024,0.52476 -0.93024,0.78713 0,0.66786 0.63804,1.38343 1.91415,2.1467 1.27608,0.76327 2.88014,1.14491 4.81219,1.14491 6.22542,0 9.33813,-3.85214 9.33816,-11.55642 -3e-5,-8.75376 -3.32741,-13.13064 -9.98217,-13.13067 -1.93205,3e-5 -3.4407,0.28029 -4.52597,0.8408 -1.08528,0.56055 -1.74718,0.84081 -1.9857,0.84079 -0.47705,2e-5 -0.70364,-0.4651 -0.67979,-1.39536 l 0.67979,-14.49024 c 0.11926,-2.88608 0.47108,-4.65711 1.05547,-5.31309 0.58437,-0.65589 2.33154,-0.98386 5.24153,-0.98391 l 7.69235,0 c 2.31365,5e-5 3.75671,-0.10729 4.32918,-0.322 0.57243,-0.21463 0.98985,-0.87056 1.25225,-1.96781 l 1.53847,0 c -0.14314,3.95951 -0.74541,6.38052 -1.80681,7.26301 -1.06145,0.88257 -2.88018,1.32384 -5.4562,1.3238 z"/>
      </g>
      <g id="text4613" style="font-size:73.27412415px;font-style:normal;font-variant:normal;font-weight:normal;font-stretch:normal;line-height:125%;letter-spacing:0px;word-spacing:0px;fill:#000000;fill-opacity:1;fill-rule:evenodd;stroke:none;font-family:Bodoni MT;-inkscape-font-specification:Bodoni MT">
        <path id="path3720" style="font-family:Bodoni MT;-inkscape-font-specification:Bodoni MT" d="m 578.38306,713.87847 0,32.52255 6.01076,0 0,-5.25943 1.75314,0 0,12.80867 -1.75314,0 0,-5.68877 -6.01076,0 0,10.91241 5.40253,0 0,1.8247 -18.39009,0 0,-1.8247 6.08233,0 0,-10.91241 -16.85162,0 0,-1.86047 c 8.0382,-15.00304 14.83609,-25.84388 20.39368,-32.52255 z m -6.90523,32.52255 0,-24.75864 -0.14312,0 c -4.07874,6.0585 -8.95653,14.31137 -14.63335,24.75864 z"/>
      </g>
      <g id="text4617" style="font-size:73.27412415px;font-style:normal;font-variant:normal;font-weight:normal;font-stretch:normal;line-height:125%;letter-spacing:0px;word-spacing:0px;fill:#000000;fill-opacity:1;fill-rule:evenodd;stroke:none;font-family:Bodoni MT;-inkscape-font-specification:Bodoni MT">
        <path id="path3723" style="font-family:Bodoni MT;-inkscape-font-specification:Bodoni MT" d="m 605.44678,633.61767 0,0.14311 c 5.22362,0.42937 8.83723,1.85454 10.84084,4.27552 2.00356,2.42102 3.00536,5.09843 3.00539,8.03225 -3e-5,3.6971 -1.56235,6.8933 -4.68697,9.5886 -3.12467,2.69531 -6.8814,4.04296 -11.27019,4.04296 -3.43474,0 -6.27315,-0.91831 -8.51525,-2.75494 -2.24212,-1.83662 -3.36318,-3.85213 -3.36317,-6.04654 -1e-5,-1.24031 0.34585,-2.28385 1.03757,-3.13061 0.69171,-0.84674 1.56232,-1.27012 2.61182,-1.27013 0.97794,10e-6 1.80084,0.36376 2.46871,1.09124 0.66785,0.7275 1.00178,1.60407 1.0018,2.62971 -2e-5,1.62196 -0.64403,2.75494 -1.93204,3.39894 -0.81098,0.35779 -1.21647,0.64402 -1.21646,0.85869 -10e-6,0.45319 0.74537,1.11509 2.23615,1.9857 1.49075,0.8706 3.15444,1.30591 4.99108,1.30591 5.81993,0 8.7299,-3.54206 8.72993,-10.62618 -3e-5,-5.10437 -1.06741,-8.43175 -3.20217,-9.98217 -2.13479,-1.55037 -4.46635,-2.32557 -6.99467,-2.3256 l -3.11272,0.21468 c -1.14492,2e-5 -1.71737,-0.38162 -1.71736,-1.14491 -10e-6,-0.7394 0.48896,-1.10911 1.46691,-1.10913 0.31007,2e-5 1.06738,0.0597 2.27193,0.17889 1.20452,0.11929 1.81872,0.17892 1.84258,0.17889 0.73941,3e-5 1.81872,-0.39354 3.23795,-1.18069 1.41919,-0.78709 2.46869,-1.83063 3.1485,-3.1306 0.67976,-1.29992 1.01966,-3.35718 1.01968,-6.17177 -2e-5,-3.74477 -0.51881,-6.24329 -1.55636,-7.49558 -1.03759,-1.25219 -2.52239,-1.87832 -4.45441,-1.87836 -1.76508,4e-5 -3.26777,0.35187 -4.50807,1.05546 -1.24033,0.70369 -1.86049,1.35366 -1.86048,1.94992 -10e-6,0.26242 0.47107,0.65002 1.41325,1.1628 0.94215,0.51287 1.41323,1.40136 1.41324,2.66549 -10e-6,0.88257 -0.34587,1.65181 -1.03757,2.30771 -0.69173,0.65597 -1.46693,0.98394 -2.3256,0.9839 -0.97795,4e-5 -1.78296,-0.40545 -2.41504,-1.21646 -0.63209,-0.81094 -0.94813,-1.75311 -0.94812,-2.8265 -10e-6,-1.95584 1.03756,-3.75072 3.11271,-5.38464 2.07514,-1.63384 4.74659,-2.45077 8.01436,-2.45082 3.64938,5e-5 6.70246,1.03166 9.15927,3.09483 2.45675,2.06326 3.68514,4.57371 3.68517,7.53135 -3e-5,5.62916 -3.86409,9.44552 -11.59219,11.44908 z"/>
      </g>
      <g id="text4621" style="font-size:73.27412415px;font-style:normal;font-variant:normal;font-weight:normal;font-stretch:normal;line-height:125%;letter-spacing:0px;word-spacing:0px;fill:#000000;fill-opacity:1;fill-rule:evenodd;stroke:none;font-family:Bodoni MT;-inkscape-font-specification:Bodoni MT">
        <path id="path3726" style="font-family:Bodoni MT;-inkscape-font-specification:Bodoni MT" d="m 580.87468,525.09902 -1.18068,13.27378 -26.83379,0 0,-4.25762 c 2.79071,-3.12464 6.88733,-7.19145 12.28987,-12.20043 5.40252,-5.00895 8.10378,-10.54267 8.10381,-16.60117 -3e-5,-3.41084 -0.75137,-6.16577 -2.25404,-8.26481 -1.50271,-2.09895 -3.63749,-3.14845 -6.40433,-3.14849 -2.4568,4e-5 -4.46038,0.7812 -6.01077,2.34348 -1.5504,1.56236 -2.3256,3.24991 -2.32559,5.06264 -10e-6,0.93027 0.21466,1.39539 0.64401,1.39536 0.0954,3e-5 0.28622,-0.0834 0.57245,-0.25045 0.78712,-0.52471 1.55039,-0.78709 2.28982,-0.78713 0.93022,4e-5 1.72331,0.36379 2.37926,1.09124 0.65592,0.72753 0.98389,1.58025 0.98391,2.55816 -2e-5,1.00183 -0.3578,1.86647 -1.07336,2.59393 -0.71558,0.72752 -1.59811,1.09127 -2.6476,1.09124 -1.47884,3e-5 -2.70723,-0.63802 -3.68517,-1.91414 -0.97795,-1.27606 -1.46692,-2.8682 -1.46691,-4.77642 -1e-5,-2.90993 1.19857,-5.48001 3.59572,-7.71024 2.39714,-2.23014 5.48005,-3.34523 9.24872,-3.34527 3.69707,4e-5 6.88135,1.02569 9.55282,3.07694 2.67143,2.05133 4.00715,4.73471 4.00718,8.05013 -3e-5,3.53017 -1.18071,6.76214 -3.54206,9.69594 -2.3614,2.93385 -5.83786,6.53554 -10.4294,10.80507 -4.59157,4.26957 -7.85336,7.45384 -9.78538,9.55283 l 16.27916,0 c 3.02921,10e-6 4.68098,-0.25044 4.95531,-0.75134 0.27427,-0.50089 0.4949,-1.66965 0.6619,-3.50629 l 0.322,-3.07694 z"/>
      </g>
      <g id="text4625" style="font-size:73.27412415px;font-style:normal;font-variant:normal;font-weight:normal;font-stretch:normal;line-height:125%;letter-spacing:0px;word-spacing:0px;fill:#000000;fill-opacity:1;fill-rule:evenodd;stroke:none;font-family:Bodoni MT;-inkscape-font-specification:Bodoni MT">
        <path id="path3729" style="font-family:Bodoni MT;-inkscape-font-specification:Bodoni MT" d="m 495.20077,414.05187 0,45.29543 8.26481,0 0,1.8247 -23.29173,0 0,-1.8247 8.22903,0 0,-42.00382 -8.22903,0 0,-1.8247 1.25224,0 c 5.22363,5e-5 9.81519,-0.48892 13.77468,-1.46691 z"/>
      </g>
    </g>
  </g>
</svg>