<?xml version="1.0" encoding="UTF-8" standalone="no"?>
<!-- Created with Inkscape (http://www.inkscape.org/) -->
<svg xmlns:dc="http://purl.org/dc/elements/1.1/" xmlns:cc="http://creativecommons.org/ns#" xmlns:rdf="http://www.w3.org/1999/02/22-rdf-syntax-ns#" xmlns:svg="http://www.w3.org/2000/svg" xmlns="http://www.w3.org/2000/svg" version="1.1" width="744.09448" height="1052.3622" id="svg5105">
  <defs id="defs5107"/>
  <metadata id="metadata5110">
    <rdf:RDF>
      <cc:Work rdf:about="">
        <dc:format>image/svg+xml</dc:format>
        <dc:type rdf:resource="http://purl.org/dc/dcmitype/StillImage"/>
        <dc:title/>
      </cc:Work>
    </rdf:RDF>
  </metadata>
  <g id="layer1">
    <g transform="translate(-982.17251,475.03986)" id="g5030">
      <path d="m 1375.6729,-95.999365 c -30.7348,0 -58.0373,14.70959 -75.25,37.46874 -14.5938,-9.26756 -31.9011,-14.62499 -50.4688,-14.62499 -46.8762,0 -85.7683,34.21646 -93.0625,79.031243 -43.0734,8.7073 -75.5312,46.76545 -75.5312,92.40625 0,52.072562 42.2399,94.281252 94.3125,94.281252 21.2357,0 40.8317,-7.0284 56.5937,-18.875 9.1676,2.97269 18.9356,4.59375 29.0938,4.59375 9.8334,0 19.3376,-1.51965 28.25,-4.3125 16.7195,15.10442 38.8812,24.3125 63.1875,24.3125 24.6804,0 47.1627,-9.47919 63.9687,-25 15.1389,10.35953 33.4585,16.40625 53.1875,16.40625 15.6575,0 30.4112,-3.80895 43.4063,-10.5625 6.2741,1.31526 12.7725,2 19.4375,2 52.0725,0 94.2812,-42.20869 94.2812,-94.281252 0,-52.07256 -42.2087,-94.28125 -94.2812,-94.28125 -0.5112,0 -1.022,0.0231 -1.5313,0.0312 -16.7881,-20.34247 -41.9342,-33.528313 -70.1875,-34.281253 -15.0406,-32.09368 -47.6198,-54.31249 -85.4062,-54.31249 z" id="path3962" style="fill:#ffffff;fill-opacity:1;stroke:none"/>
      <path d="m 1375.6416,-100.01502 c -30.7714,0 -58.1687,14.271135 -76.1875,36.437505 -14.565,-8.53248 -31.4502,-13.5625 -49.5313,-13.5625 -47.8941,0 -87.7571,34.34004 -96.4374,79.749993 -43.6005,10.06429 -76.125,49.07889 -76.125,95.6875 0,54.234102 44.0472,98.281252 98.2812,98.281252 21.3791,0 41.1766,-6.89264 57.3125,-18.5 9.0039,2.71821 18.5237,4.21875 28.4063,4.21875 9.4809,0 18.6317,-1.39656 27.3124,-3.90625 17.2155,14.84941 39.6225,23.90625 64.125,23.90625 24.5985,0 47.0431,-9.1417 64.2813,-24.09375 15.2704,9.77098 33.3842,15.5 52.8437,15.5 15.8142,0 30.7532,-3.78999 44,-10.4375 6.1241,1.19179 12.4177,1.875 18.875,1.875 54.2342,0 98.2813,-44.04716 98.2813,-98.281252 0,-54.17089 -43.9465,-98.17876 -98.0937,-98.28125 -16.9956,-19.74901 -41.7321,-32.652423 -69.4688,-34.062503 -16.1207,-32.27552 -49.3856,-54.531245 -87.875,-54.531245 z m 0,8.000005 c 36.2163,0 67.4131,21.30599 81.8125,52.03124 a 4.0004,4.0004 0 0 0 3.5313,2.3125 c 27.0615,0.72951 51.1144,13.336433 67.1874,32.812503 a 4.0004,4.0004 0 0 0 3.1563,1.46875 c 0.5879,-0.009 1.0784,-0.0312 1.4687,-0.0312 49.9112,0 90.2813,40.37022 90.2813,90.28125 0,49.911032 -40.3702,90.281252 -90.2813,90.281252 -6.4009,0 -12.6477,-0.64501 -18.6562,-1.90625 a 4.0004,4.0004 0 0 0 -2.6562,0.3437 c -12.4377,6.46025 -26.5627,10.125 -41.5626,10.125 -18.9177,0 -36.4342,-5.81995 -50.9374,-15.75 a 4.0004,4.0004 0 0 0 -4.9688,0.375 c -16.1011,14.87414 -37.5599,23.96875 -61.2188,23.96875 -23.2947,0 -44.4854,-8.81452 -60.5,-23.28125 a 4.0004,4.0004 0 0 0 -3.875,-0.84375 c -8.5404,2.67897 -17.6299,4.125 -27.0624,4.125 -9.7392,0 -19.0931,-1.55704 -27.875,-4.40625 a 4.0004,4.0004 0 0 0 -3.6563,0.625 c -15.0964,11.34565 -33.8352,18.0625 -54.1875,18.0625 -49.911,0 -90.2812,-40.37023 -90.2812,-90.281252 0,-43.75519 31.0624,-80.17399 72.3124,-88.5 a 4.0004,4.0004 0 0 0 3.1563,-3.25 c 6.9849,-42.909093 44.1648,-75.687493 89.0937,-75.687493 17.7963,0 34.3388,5.1272 48.3126,13.99999 a 4.0004,4.0004 0 0 0 5.3437,-0.96875 c 16.4857,-21.80894 42.5971,-35.90624 72.0625,-35.90624 z" id="path4283" style="font-size:medium;font-style:normal;font-variant:normal;font-weight:normal;font-stretch:normal;text-indent:0;text-align:start;text-decoration:none;line-height:normal;letter-spacing:normal;word-spacing:normal;text-transform:none;direction:ltr;block-progression:tb;writing-mode:lr-tb;text-anchor:start;baseline-shift:baseline;color:#000000;fill:#000000;fill-opacity:1;fill-rule:nonzero;stroke:none;stroke-width:8;marker:none;visibility:visible;display:inline;overflow:visible;enable-background:accumulate;font-family:Sans;-inkscape-font-specification:Sans"/>
      <path d="m 1374.3291,-83.233765 c -35.258,0 -65.6322,21.4416 -79.5625,52.312493 0.1075,0.0695 0.2052,0.14877 0.3125,0.21875 16.0094,-21.790413 41.4046,-35.874993 70,-35.874993 28.6826,0 54.1519,14.18413 70.1563,36.093743 -0.2189,0.03899 -0.4381,0.08439 -0.6563,0.125 3.4635,4.85882 6.467,10.07566 8.9687,15.59375 5.4214,0.15107 10.7326,0.80256 15.875,1.90625 0.1567,0.03223 0.3122,0.06061 0.4688,0.09375 12.6482,2.78767 24.2976,8.32556 34.3438,16 -0.1341,0.03347 -0.2725,0.05975 -0.4063,0.09375 5.1962,3.72848 9.9347,7.97387 14.1563,12.59375 0.5101,-0.007 1.0191,-0.03125 1.5312,-0.03125 52.1643,0 94.4375,38.20068 94.4375,85.312502 0,12.12575 -2.7939,23.64934 -7.8437,34.09375 11.1935,-14.01981 17.8124,-31.20779 17.8124,-49.812502 0,-47.11182 -42.2732,-85.3125 -94.4374,-85.3125 -0.4257,0 -0.857,0.02624 -1.2813,0.03125 -15.7922,-18.91107 -38.8525,-31.10549 -64.7187,-31.96875 -14.1021,-30.408163 -44.229,-51.468743 -79.1563,-51.468743 z m -123.9375,21.125 c -2.2098,-0.036 -4.4141,0.0385 -6.6562,0.1875 -34.2585,2.27702 -62.2544,25.82146 -73.0626,57.593743 13.6814,-23.05874 37.3916,-39.050463 65.3126,-40.906253 16.4365,-1.09248 32.1034,2.86132 45.5937,10.59375 3.2767,-5.23997 7.1138,-10.08606 11.375,-14.46875 -12.4925,-8.03159 -27.0938,-12.74783 -42.5625,-12.99999 z m 128.625,29.843743 c -24.8685,0.0657 -47.7566,10.09867 -64.1562,26.53125 1.8694,1.34176 3.7154,2.71725 5.4687,4.1875 17.6229,-12.54099 39.9812,-18.89233 63.5,-16.25 49.6063,5.57324 85.4334,49.04093 80.0313,97.125 -0.6719,5.97927 -1.9321,11.77416 -3.75,17.28125 5.0969,-9.40345 8.4577,-19.90123 9.7187,-31.125 5.4022,-48.08407 -30.425,-91.58301 -80.0313,-97.15625 -3.6199,-0.4067 -7.2286,-0.60314 -10.7812,-0.59375 z m -151.9375,25.21875 c -6.9318,0.0048 -13.9732,0.79948 -21.0313,2.4375 -20.4654,4.74958 -37.7435,15.89577 -50.0624,30.71875 0.8633,-4.60055 2.1185,-9.05218 3.6874,-13.375 -26.6639,6.9561 -48.4359,25.43551 -59.3124,49.59375 12.852,-17.27652 31.9937,-29.8648 54.2187,-34.5 -12.4771,15.78433 -19.4749,35.48302 -19,56 5.4198,-34.77149 32.1285,-64.74041 69.4687,-73.40625 22.6976,-5.26761 45.308,-1.73598 64.0938,8.3125 4.4141,-2.54626 9.125,-4.73896 14.0312,-6.5625 -15.57,-12.21727 -35.2984,-19.23304 -56.0937,-19.21875 z" id="path3981" style="fill:#000000;fill-opacity:1;stroke:none"/>
    </g>
  </g>
</svg>