<?xml version="1.0" encoding="UTF-8" standalone="no"?>
<!-- Created with Inkscape (http://www.inkscape.org/) -->
<svg xmlns:dc="http://purl.org/dc/elements/1.1/" xmlns:cc="http://creativecommons.org/ns#" xmlns:rdf="http://www.w3.org/1999/02/22-rdf-syntax-ns#" xmlns:svg="http://www.w3.org/2000/svg" xmlns="http://www.w3.org/2000/svg" xmlns:xlink="http://www.w3.org/1999/xlink" xmlns:sodipodi="http://sodipodi.sourceforge.net/DTD/sodipodi-0.dtd" xmlns:inkscape="http://www.inkscape.org/namespaces/inkscape" width="208.91519" height="171.38075" id="svg5675" version="1.1" inkscape:version="0.48.1 " sodipodi:docname="Network.svg">
  <defs id="defs5677">
    <linearGradient inkscape:collect="always" xlink:href="#linearGradient3793-3" id="linearGradient5404" gradientUnits="userSpaceOnUse" gradientTransform="matrix(0.89256199,0,0,1.1128984,-695.75017,214.83791)" x1="219.80609" y1="442.18985" x2="219.80609" y2="490.81241"/>
    <linearGradient inkscape:collect="always" id="linearGradient3793-3">
      <stop style="stop-color:#ffffff;stop-opacity:1;" offset="0" id="stop3795-2"/>
      <stop style="stop-color:#ffffff;stop-opacity:0;" offset="1" id="stop3797-4"/>
    </linearGradient>
    <linearGradient inkscape:collect="always" xlink:href="#linearGradient3810-2" id="linearGradient5406" gradientUnits="userSpaceOnUse" gradientTransform="translate(-813.4277,397.14264)" x1="267.90625" y1="387.29968" x2="267.90625" y2="376.20435"/>
    <linearGradient inkscape:collect="always" id="linearGradient3810-2">
      <stop style="stop-color:#2d404c;stop-opacity:1;" offset="0" id="stop3812-8"/>
      <stop style="stop-color:#2d404c;stop-opacity:0;" offset="1" id="stop3814-5"/>
    </linearGradient>
    <linearGradient inkscape:collect="always" xlink:href="#linearGradient3793" id="linearGradient5408" gradientUnits="userSpaceOnUse" x1="268.95001" y1="332.94186" x2="268.95001" y2="381.5643"/>
    <linearGradient inkscape:collect="always" id="linearGradient3793">
      <stop style="stop-color:#ffffff;stop-opacity:1;" offset="0" id="stop3795"/>
      <stop style="stop-color:#ffffff;stop-opacity:0;" offset="1" id="stop3797"/>
    </linearGradient>
    <linearGradient inkscape:collect="always" xlink:href="#linearGradient3810" id="linearGradient5410" gradientUnits="userSpaceOnUse" gradientTransform="translate(-767.99023,367.6255)" x1="267.90625" y1="387.29968" x2="267.90625" y2="376.20435"/>
    <linearGradient inkscape:collect="always" id="linearGradient3810">
      <stop style="stop-color:#2d404c;stop-opacity:1;" offset="0" id="stop3812"/>
      <stop style="stop-color:#2d404c;stop-opacity:0;" offset="1" id="stop3814"/>
    </linearGradient>
    <linearGradient inkscape:collect="always" xlink:href="#linearGradient3793" id="linearGradient5412" gradientUnits="userSpaceOnUse" x1="268.95001" y1="332.94186" x2="268.95001" y2="381.5643"/>
    <linearGradient inkscape:collect="always" xlink:href="#linearGradient3810" id="linearGradient5414" gradientUnits="userSpaceOnUse" gradientTransform="translate(-767.99023,367.6255)" x1="267.90625" y1="387.29968" x2="267.90625" y2="376.20435"/>
    <linearGradient inkscape:collect="always" xlink:href="#linearGradient3793-3" id="linearGradient5392" gradientUnits="userSpaceOnUse" gradientTransform="matrix(0.89256199,0,0,1.1128984,-695.75017,214.83791)" x1="219.80609" y1="442.18985" x2="219.80609" y2="490.81241"/>
    <linearGradient inkscape:collect="always" xlink:href="#linearGradient3810-2" id="linearGradient5394" gradientUnits="userSpaceOnUse" gradientTransform="translate(-813.4277,397.14264)" x1="267.90625" y1="387.29968" x2="267.90625" y2="376.20435"/>
    <linearGradient inkscape:collect="always" xlink:href="#linearGradient3793" id="linearGradient5396" gradientUnits="userSpaceOnUse" x1="268.95001" y1="332.94186" x2="268.95001" y2="381.5643"/>
    <linearGradient inkscape:collect="always" xlink:href="#linearGradient3810" id="linearGradient5398" gradientUnits="userSpaceOnUse" gradientTransform="translate(-767.99023,367.6255)" x1="267.90625" y1="387.29968" x2="267.90625" y2="376.20435"/>
    <linearGradient inkscape:collect="always" xlink:href="#linearGradient3793" id="linearGradient5400" gradientUnits="userSpaceOnUse" x1="268.95001" y1="332.94186" x2="268.95001" y2="381.5643"/>
    <linearGradient inkscape:collect="always" xlink:href="#linearGradient3810" id="linearGradient5402" gradientUnits="userSpaceOnUse" gradientTransform="translate(-767.99023,367.6255)" x1="267.90625" y1="387.29968" x2="267.90625" y2="376.20435"/>
    <linearGradient inkscape:collect="always" xlink:href="#linearGradient3793-3" id="linearGradient5380" gradientUnits="userSpaceOnUse" gradientTransform="matrix(0.89256199,0,0,1.1128984,-695.75017,214.83791)" x1="219.80609" y1="442.18985" x2="219.80609" y2="490.81241"/>
    <linearGradient inkscape:collect="always" xlink:href="#linearGradient3810-2" id="linearGradient5382" gradientUnits="userSpaceOnUse" gradientTransform="translate(-813.4277,397.14264)" x1="267.90625" y1="387.29968" x2="267.90625" y2="376.20435"/>
    <linearGradient inkscape:collect="always" xlink:href="#linearGradient3793" id="linearGradient5384" gradientUnits="userSpaceOnUse" x1="268.95001" y1="332.94186" x2="268.95001" y2="381.5643"/>
    <linearGradient inkscape:collect="always" xlink:href="#linearGradient3810" id="linearGradient5386" gradientUnits="userSpaceOnUse" gradientTransform="translate(-767.99023,367.6255)" x1="267.90625" y1="387.29968" x2="267.90625" y2="376.20435"/>
    <linearGradient inkscape:collect="always" xlink:href="#linearGradient3793" id="linearGradient5388" gradientUnits="userSpaceOnUse" x1="268.95001" y1="332.94186" x2="268.95001" y2="381.5643"/>
    <linearGradient inkscape:collect="always" xlink:href="#linearGradient3810" id="linearGradient5390" gradientUnits="userSpaceOnUse" gradientTransform="translate(-767.99023,367.6255)" x1="267.90625" y1="387.29968" x2="267.90625" y2="376.20435"/>
    <linearGradient inkscape:collect="always" xlink:href="#linearGradient3793-3" id="linearGradient5368" gradientUnits="userSpaceOnUse" gradientTransform="matrix(0.89256199,0,0,1.1128984,-695.75017,214.83791)" x1="219.80609" y1="442.18985" x2="219.80609" y2="490.81241"/>
    <linearGradient inkscape:collect="always" xlink:href="#linearGradient3810-2" id="linearGradient5370" gradientUnits="userSpaceOnUse" gradientTransform="translate(-813.4277,397.14264)" x1="267.90625" y1="387.29968" x2="267.90625" y2="376.20435"/>
    <linearGradient inkscape:collect="always" xlink:href="#linearGradient3793" id="linearGradient5372" gradientUnits="userSpaceOnUse" x1="268.95001" y1="332.94186" x2="268.95001" y2="381.5643"/>
    <linearGradient inkscape:collect="always" xlink:href="#linearGradient3810" id="linearGradient5374" gradientUnits="userSpaceOnUse" gradientTransform="translate(-767.99023,367.6255)" x1="267.90625" y1="387.29968" x2="267.90625" y2="376.20435"/>
    <linearGradient inkscape:collect="always" xlink:href="#linearGradient3793" id="linearGradient5376" gradientUnits="userSpaceOnUse" x1="268.95001" y1="332.94186" x2="268.95001" y2="381.5643"/>
    <linearGradient inkscape:collect="always" xlink:href="#linearGradient3810" id="linearGradient5378" gradientUnits="userSpaceOnUse" gradientTransform="translate(-767.99023,367.6255)" x1="267.90625" y1="387.29968" x2="267.90625" y2="376.20435"/>
    <linearGradient inkscape:collect="always" xlink:href="#linearGradient3793-3" id="linearGradient5356" gradientUnits="userSpaceOnUse" gradientTransform="matrix(0.89256199,0,0,1.1128984,-695.75017,214.83791)" x1="219.80609" y1="442.18985" x2="219.80609" y2="490.81241"/>
    <linearGradient inkscape:collect="always" xlink:href="#linearGradient3810-2" id="linearGradient5358" gradientUnits="userSpaceOnUse" gradientTransform="translate(-813.4277,397.14264)" x1="267.90625" y1="387.29968" x2="267.90625" y2="376.20435"/>
    <linearGradient inkscape:collect="always" xlink:href="#linearGradient3793" id="linearGradient5360" gradientUnits="userSpaceOnUse" x1="268.95001" y1="332.94186" x2="268.95001" y2="381.5643"/>
    <linearGradient inkscape:collect="always" xlink:href="#linearGradient3810" id="linearGradient5362" gradientUnits="userSpaceOnUse" gradientTransform="translate(-767.99023,367.6255)" x1="267.90625" y1="387.29968" x2="267.90625" y2="376.20435"/>
    <linearGradient inkscape:collect="always" xlink:href="#linearGradient3793" id="linearGradient5364" gradientUnits="userSpaceOnUse" x1="268.95001" y1="332.94186" x2="268.95001" y2="381.5643"/>
    <linearGradient inkscape:collect="always" xlink:href="#linearGradient3810" id="linearGradient5366" gradientUnits="userSpaceOnUse" gradientTransform="translate(-767.99023,367.6255)" x1="267.90625" y1="387.29968" x2="267.90625" y2="376.20435"/>
    <linearGradient inkscape:collect="always" xlink:href="#linearGradient3810" id="linearGradient6031" gradientUnits="userSpaceOnUse" gradientTransform="matrix(0.6992579,0.03389651,0,0.6992579,132.70519,287.33642)" x1="267.90625" y1="387.29968" x2="267.90625" y2="376.20435"/>
    <linearGradient inkscape:collect="always" xlink:href="#linearGradient3810" id="linearGradient6036" gradientUnits="userSpaceOnUse" gradientTransform="matrix(0.6992579,0.03389651,0,0.6992579,132.70519,287.33642)" x1="267.90625" y1="387.29968" x2="267.90625" y2="376.20435"/>
    <linearGradient inkscape:collect="always" xlink:href="#linearGradient3810-2" id="linearGradient6041" gradientUnits="userSpaceOnUse" gradientTransform="matrix(0.6992579,0.03389651,0,0.6992579,100.93268,306.43634)" x1="267.90625" y1="387.29968" x2="267.90625" y2="376.20435"/>
    <linearGradient inkscape:collect="always" xlink:href="#linearGradient3793-3" id="linearGradient6044" gradientUnits="userSpaceOnUse" gradientTransform="matrix(0.62486389,0,0,0.778203,183.43477,174.06561)" x1="219.80609" y1="442.18985" x2="219.80609" y2="490.81241"/>
    <linearGradient inkscape:collect="always" xlink:href="#linearGradient3810" id="linearGradient6048" gradientUnits="userSpaceOnUse" gradientTransform="matrix(0.67045942,0.04463622,0,0.67045942,223.46766,304.33467)" x1="267.90625" y1="387.29968" x2="267.90625" y2="376.20435"/>
    <linearGradient inkscape:collect="always" xlink:href="#linearGradient3810" id="linearGradient6053" gradientUnits="userSpaceOnUse" gradientTransform="matrix(0.67045942,0.04463622,0,0.67045942,223.46766,304.33467)" x1="267.90625" y1="387.29968" x2="267.90625" y2="376.20435"/>
    <linearGradient inkscape:collect="always" xlink:href="#linearGradient3810-2" id="linearGradient6058" gradientUnits="userSpaceOnUse" gradientTransform="matrix(0.67045942,0.04463622,0,0.67045942,193.00368,322.09656)" x1="267.90625" y1="387.29968" x2="267.90625" y2="376.20435"/>
    <linearGradient inkscape:collect="always" xlink:href="#linearGradient3793-3" id="linearGradient6061" gradientUnits="userSpaceOnUse" gradientTransform="matrix(0.59975133,0,0,0.74615322,272.50359,187.0193)" x1="219.80609" y1="442.18985" x2="219.80609" y2="490.81241"/>
    <linearGradient inkscape:collect="always" xlink:href="#linearGradient3810" id="linearGradient6065" gradientUnits="userSpaceOnUse" gradientTransform="matrix(0.67045942,0.04463622,0,0.67045942,308.71352,311.84294)" x1="267.90625" y1="387.29968" x2="267.90625" y2="376.20435"/>
    <linearGradient inkscape:collect="always" xlink:href="#linearGradient3810" id="linearGradient6070" gradientUnits="userSpaceOnUse" gradientTransform="matrix(0.67045942,0.04463622,0,0.67045942,308.71352,311.84294)" x1="267.90625" y1="387.29968" x2="267.90625" y2="376.20435"/>
    <linearGradient inkscape:collect="always" xlink:href="#linearGradient3810-2" id="linearGradient6075" gradientUnits="userSpaceOnUse" gradientTransform="matrix(0.67045942,0.04463622,0,0.67045942,278.24954,329.60483)" x1="267.90625" y1="387.29968" x2="267.90625" y2="376.20435"/>
    <linearGradient inkscape:collect="always" xlink:href="#linearGradient3793-3" id="linearGradient6078" gradientUnits="userSpaceOnUse" gradientTransform="matrix(0.59975133,0,0,0.74615322,357.93816,188.85228)" x1="219.80609" y1="442.18985" x2="219.80609" y2="490.81241"/>
    <linearGradient inkscape:collect="always" xlink:href="#linearGradient3810" id="linearGradient6082" gradientUnits="userSpaceOnUse" gradientTransform="matrix(0.55271969,0.02895043,0,0.55271969,260.67959,307.73616)" x1="267.90625" y1="387.29968" x2="267.90625" y2="376.20435"/>
    <linearGradient inkscape:collect="always" xlink:href="#linearGradient3810" id="linearGradient6087" gradientUnits="userSpaceOnUse" gradientTransform="matrix(0.55271969,0.02895043,0,0.55271969,260.67959,307.73616)" x1="267.90625" y1="387.29968" x2="267.90625" y2="376.20435"/>
    <linearGradient inkscape:collect="always" xlink:href="#linearGradient3810-2" id="linearGradient6092" gradientUnits="userSpaceOnUse" gradientTransform="matrix(0.55271969,0.02895043,0,0.55271969,235.5654,322.73543)" x1="267.90625" y1="387.29968" x2="267.90625" y2="376.20435"/>
    <linearGradient inkscape:collect="always" xlink:href="#linearGradient3793-3" id="linearGradient6095" gradientUnits="userSpaceOnUse" gradientTransform="matrix(0.49401285,0,0,0.61512086,301.02016,209.63353)" x1="219.80609" y1="442.18985" x2="219.80609" y2="490.81241"/>
    <linearGradient inkscape:collect="always" xlink:href="#linearGradient3810" id="linearGradient6099" gradientUnits="userSpaceOnUse" gradientTransform="matrix(1.0750899,0.13390869,0,1.0750899,105.60926,189.42461)" x1="267.90625" y1="387.29968" x2="267.90625" y2="376.20435"/>
    <linearGradient inkscape:collect="always" xlink:href="#linearGradient3810" id="linearGradient6104" gradientUnits="userSpaceOnUse" gradientTransform="matrix(1.0750899,0.13390869,0,1.0750899,105.60926,189.42461)" x1="267.90625" y1="387.29968" x2="267.90625" y2="376.20435"/>
    <linearGradient inkscape:collect="always" xlink:href="#linearGradient3810-2" id="linearGradient6109" gradientUnits="userSpaceOnUse" gradientTransform="matrix(1.0750899,0.13390869,0,1.0750899,56.759895,215.07371)" x1="267.90625" y1="387.29968" x2="267.90625" y2="376.20435"/>
    <linearGradient inkscape:collect="always" xlink:href="#linearGradient3793-3" id="linearGradient6112" gradientUnits="userSpaceOnUse" gradientTransform="matrix(0.9669993,0,0,1.1964658,184.69002,12.009965)" x1="219.80609" y1="442.18985" x2="219.80609" y2="490.81241"/>
  </defs>
  <sodipodi:namedview id="base" pagecolor="#ffffff" bordercolor="#666666" borderopacity="1.0" inkscape:pageopacity="0.0" inkscape:pageshadow="2" inkscape:zoom="1" inkscape:cx="396.60045" inkscape:cy="157.11894" inkscape:document-units="px" inkscape:current-layer="layer1" showgrid="false" inkscape:window-width="1680" inkscape:window-height="988" inkscape:window-x="-8" inkscape:window-y="-8" inkscape:window-maximized="0" fit-margin-top="0" fit-margin-left="0" fit-margin-right="0" fit-margin-bottom="0"/>
  <metadata id="metadata5680">
    <rdf:RDF>
      <cc:Work rdf:about="">
        <dc:format>image/svg+xml</dc:format>
        <dc:type rdf:resource="http://purl.org/dc/dcmitype/StillImage"/>
        <dc:title/>
      </cc:Work>
    </rdf:RDF>
  </metadata>
  <g inkscape:label="Layer 1" inkscape:groupmode="layer" id="layer1" transform="translate(-298.39955,-518.10037)">
    <path inkscape:connector-curvature="0" id="path5254" d="m 506.57492,596.06412 c 3.0655,8.48556 -3.6607,15.06099 -15.2714,14.32558 -0.867,30.19627 -28.2911,57.51556 -72.4659,63.10541 -4.82,10.12062 -15.7749,17.01299 -28.15179,15.86032 -12.3649,-1.15156 -21.4481,-9.8963 -23.7913,-20.66043 -41.6094,-13.4754 -61.79401,-44.97935 -55.6402,-74.48758 -11.02981,-1.48543 -15.80131,-8.92842 -10.98171,-16.52317 4.4852,-7.06803 15.80591,-11.77525 25.89541,-11.24824 15.5602,-16.65565 40.7843,-26.46341 66.4178,-27.57045 1.2098,-4.50609 8.54139,-7.39863 16.63859,-6.69464 8.1024,0.70443 14.6218,4.80531 14.7559,9.43408 24.9527,5.53084 47.5624,19.56971 59.0571,38.69942 10.2873,1.13145 20.6892,7.87582 23.5375,15.7597 0,0 0,0 0,0 m -6.1743,-0.55006 c -1.9073,-5.71219 -9.3379,-10.56444 -16.886,-11.23406 -7.5437,-0.66923 -12.6413,3.06708 -11.4774,8.7071 1.2282,5.95109 8.8349,11.49752 17.1433,12.24118 0.5194,0.0465 1.0273,0.0685 1.5215,0.0755 7.3923,0.0934 11.5824,-4.14815 9.6988,-9.7893 0,0 -2e-4,-4.5e-4 -2e-4,-4.5e-4 m -15.8715,13.66247 c -8.1544,-2.39853 -15.0493,-7.77266 -17.6811,-13.67529 0,0 -44.3274,-3.95434 -44.3274,-3.95434 -2.0215,6.47213 -10.0953,11.14245 -19.8353,10.86185 0,0 -3.7567,34.09161 -3.7567,34.09161 12.8034,2.07665 22.7886,13.03856 22.506,26.33892 -0.012,0.5783 -0.091,1.14292 -0.1408,1.7131 37.6451,-5.93725 61.4011,-29.14629 63.2353,-55.37585 0,0 0,0 0,0 m -7.106,-28.90742 c -10.3359,-17.65372 -30.9803,-30.71591 -54.1072,-36.00334 -2.0022,3.62135 -8.2233,5.99283 -15.5622,5.50515 0,0 -2.7037,23.62684 -2.7037,23.62684 9.4571,1.06657 17.0529,6.81082 17.8786,13.73183 0,0 42.7965,3.81036 42.7965,3.81036 -0.2265,-5.80755 4.5764,-9.89028 11.698,-10.67084 0,0 0,0 0,0 m -64.2749,81.80793 c 0.5012,-9.94664 -7.036,-18.07521 -17.00589,-18.98554 -9.9621,-0.90961 -19.216,5.67514 -21.0429,15.48553 -1.9641,10.54591 5.3554,20.31989 16.6959,21.37184 11.35039,1.05287 20.81409,-7.17832 21.35289,-17.87183 0,0 0,0 0,0 m 3.7289,-74.00426 c 0.2772,-5.50007 -5.4641,-10.1892 -12.9656,-10.85469 -7.49709,-0.66509 -14.20329,2.9153 -15.21419,8.34409 -1.0667,5.72721 4.584,11.08236 12.83599,11.82097 8.2571,0.73909 15.0515,-3.50761 15.3438,-9.31037 0,0 0,0 0,0 m 2.3497,-46.63145 c 0.1691,-3.35594 -4.3847,-6.32853 -10.2887,-6.84239 -5.9013,-0.51362 -11.04999,1.61233 -11.66719,4.92634 -0.6434,3.45508 3.86629,6.74201 10.22539,7.29853 6.3623,0.55682 11.5542,-1.88356 11.7305,-5.38248 0,0 0,0 0,0 m -27.93829,94.87097 c 0,0 4.8735,-34.87009 4.8735,-34.87009 -8.5426,-2.32318 -14.1265,-8.33273 -13.7884,-14.74633 0,0 -42.7782,-3.81403 -42.7782,-3.81403 -3.5981,5.98814 -12.3072,10.61613 -21.5793,11.45694 -4.2383,25.81204 13.3953,52.64251 48.5546,65.22715 0.085,-0.58249 0.1459,-1.16482 0.2721,-1.74841 2.5602,-11.84414 12.9295,-20.25231 24.4457,-21.50523 0,0 0,0 0,0 m 7.96449,-62.96744 c 0,0 3.5092,-24.36599 3.5092,-24.36599 -5.39099,-1.38108 -9.23979,-4.22376 -10.14719,-7.39526 -23.7597,1.17575 -46.8448,10.33179 -60.958,25.70095 6.4822,1.79597 10.2832,6.15118 9.519,11.35058 0,0 42.3529,3.76883 42.3529,3.76883 2.4788,-4.96028 8.6188,-8.38735 15.72409,-9.05911 0,0 0,0 0,0 m -64.90249,7.37545 c 2.4219,-5.2917 -1.66,-9.82053 -9.1155,-10.48194 -7.4513,-0.66103 -15.7372,2.76617 -18.88381,7.98744 -3.319,5.50735 0.4124,10.67469 8.60871,11.40834 8.2016,0.7341 16.8357,-3.33188 19.3906,-8.91384 0,0 0,0 0,0" style="font-size:medium;font-style:normal;font-variant:normal;font-weight:normal;font-stretch:normal;text-indent:0;text-align:start;text-decoration:none;line-height:normal;letter-spacing:normal;word-spacing:normal;text-transform:none;direction:ltr;block-progression:tb;writing-mode:lr-tb;text-anchor:start;baseline-shift:baseline;color:#000000;fill:#486a83;fill-opacity:1;stroke:none;stroke-width:5;marker:none;visibility:visible;display:inline;overflow:visible;enable-background:accumulate;font-family:Sans;-inkscape-font-specification:Sans"/>
    <rect ry="6.5849185" rx="6.6358018" y="588.29663" x="379.71384" height="32.521469" width="32.77277" id="rect5258" style="color:#000000;fill:#2f4e62;fill-opacity:1;fill-rule:nonzero;stroke:none;stroke-width:0.40000001;marker:none;visibility:visible;display:inline;overflow:visible;enable-background:accumulate" transform="matrix(0.99233203,0.12360072,0,1,0,0)"/>
    <rect style="color:#000000;fill:url(#linearGradient6112);fill-opacity:1;fill-rule:nonzero;stroke:none;stroke-width:0.24782795;marker:none;visibility:visible;display:inline;overflow:visible;enable-background:accumulate" id="rect5260" width="29.251728" height="9.5431738" x="381.47433" y="589.30365" rx="3.8564591" ry="4.7715869" transform="matrix(0.99233203,0.12360072,0,1,0,0)"/>
    <path inkscape:connector-curvature="0" id="path5262" d="m 376.80221,659.04951 0,2.11659 c 0,3.64805 2.93688,6.95073 6.58493,7.40511 l 19.35162,2.41036 c 3.64805,0.45439 6.58492,-2.11669 6.58492,-5.76473 l 0,-2.11659 c 0,3.64805 -2.93687,6.21912 -6.58492,5.76474 l -19.35162,-2.41036 c -3.64805,-0.45438 -6.58493,-3.75707 -6.58493,-7.40512 z" style="color:#000000;fill:url(#linearGradient6109);fill-opacity:1;fill-rule:nonzero;stroke:none;stroke-width:0.40000001;marker:none;visibility:visible;display:inline;overflow:visible;enable-background:accumulate"/>
    <path transform="matrix(1.0750899,0.13390869,0,1.0750899,105.60926,189.42461)" d="m 275.75,375.11218 a 8.5,8.5 0 1 1 -17,0 8.5,8.5 0 1 1 17,0 z" sodipodi:ry="8.5" sodipodi:rx="8.5" sodipodi:cy="375.11218" sodipodi:cx="267.25" id="path5264" style="color:#000000;fill:#2f4e62;fill-opacity:1;fill-rule:nonzero;stroke:none;stroke-width:0.40000001;marker:none;visibility:visible;display:inline;overflow:visible;enable-background:accumulate" sodipodi:type="arc"/>
    <path transform="matrix(0.79050728,0.09846227,0,0.56126016,181.66397,387.87864)" sodipodi:type="arc" style="color:#000000;fill:url(#linearGradient5360);fill-opacity:1;fill-rule:nonzero;stroke:none;stroke-width:0.40000001;marker:none;visibility:visible;display:inline;overflow:visible;enable-background:accumulate" id="path5266" sodipodi:cx="267.25" sodipodi:cy="375.11218" sodipodi:rx="8.5" sodipodi:ry="8.5" d="m 275.75,375.11218 a 8.5,8.5 0 1 1 -17,0 8.5,8.5 0 1 1 17,0 z"/>
    <path inkscape:connector-curvature="0" id="path5268" d="m 383.82237,626.90041 c -0.008,0.15502 -0.0335,0.30826 -0.0335,0.46618 0,5.04692 4.09134,9.64786 9.13826,10.27648 5.04692,0.62863 9.13826,-2.95311 9.13826,-8.00004 0,-0.15792 -0.0257,-0.3176 -0.0335,-0.47453 -0.25371,4.78836 -4.22151,8.1421 -9.10467,7.53388 -4.88315,-0.60823 -8.85095,-4.95039 -9.10466,-9.80196 z" style="color:#000000;fill:url(#linearGradient6104);fill-opacity:1;fill-rule:nonzero;stroke:none;stroke-width:0.40000001;marker:none;visibility:visible;display:inline;overflow:visible;enable-background:accumulate"/>
    <path transform="matrix(1.0750899,0.13390869,0,1.0750899,105.60926,189.42461)" d="m 275.75,375.11218 a 8.5,8.5 0 1 1 -17,0 8.5,8.5 0 1 1 17,0 z" sodipodi:ry="8.5" sodipodi:rx="8.5" sodipodi:cy="375.11218" sodipodi:cx="267.25" id="path5270" style="color:#000000;fill:#2f4e62;fill-opacity:1;fill-rule:nonzero;stroke:none;stroke-width:0.40000001;marker:none;visibility:visible;display:inline;overflow:visible;enable-background:accumulate" sodipodi:type="arc"/>
    <path transform="matrix(0.79050728,0.09846227,0,0.56126016,181.66397,387.87864)" sodipodi:type="arc" style="color:#000000;fill:url(#linearGradient5364);fill-opacity:1;fill-rule:nonzero;stroke:none;stroke-width:0.40000001;marker:none;visibility:visible;display:inline;overflow:visible;enable-background:accumulate" id="path5272" sodipodi:cx="267.25" sodipodi:cy="375.11218" sodipodi:rx="8.5" sodipodi:ry="8.5" d="m 275.75,375.11218 a 8.5,8.5 0 1 1 -17,0 8.5,8.5 0 1 1 17,0 z"/>
    <path inkscape:connector-curvature="0" id="path5274" d="m 383.82237,626.90041 c -0.008,0.15502 -0.0335,0.30826 -0.0335,0.46618 0,5.04692 4.09134,9.64786 9.13826,10.27648 5.04692,0.62863 9.13826,-2.95311 9.13826,-8.00004 0,-0.15792 -0.0257,-0.3176 -0.0335,-0.47453 -0.25371,4.78836 -4.22151,8.1421 -9.10467,7.53388 -4.88315,-0.60823 -8.85095,-4.95039 -9.10466,-9.80196 z" style="color:#000000;fill:url(#linearGradient6099);fill-opacity:1;fill-rule:nonzero;stroke:none;stroke-width:0.40000001;marker:none;visibility:visible;display:inline;overflow:visible;enable-background:accumulate"/>
    <rect style="color:#000000;fill:#2f4e62;fill-opacity:1;fill-rule:nonzero;stroke:none;stroke-width:0.40000001;marker:none;visibility:visible;display:inline;overflow:visible;enable-background:accumulate" id="rect5278" width="16.742689" height="16.71977" x="400.65237" y="505.91107" rx="3.3900452" ry="3.3854043" transform="matrix(0.99863108,0.05230644,0,1,0,0)"/>
    <rect ry="2.4531438" rx="1.9701569" y="506.42877" x="401.55176" height="4.9062877" width="14.943889" id="rect5280" style="color:#000000;fill:url(#linearGradient6095);fill-opacity:1;fill-rule:nonzero;stroke:none;stroke-width:0.24782795;marker:none;visibility:visible;display:inline;overflow:visible;enable-background:accumulate" transform="matrix(0.99863108,0.05230644,0,1,0,0)"/>
    <path style="color:#000000;fill:url(#linearGradient6092);fill-opacity:1;fill-rule:nonzero;stroke:none;stroke-width:0.40000001;marker:none;visibility:visible;display:inline;overflow:visible;enable-background:accumulate" d="m 400.10391,539.11398 0,1.08816 c 0,1.87552 1.5099,3.4645 3.38541,3.56273 l 9.94896,0.52111 c 1.87551,0.0982 3.38541,-1.33257 3.38541,-3.20809 l 0,-1.08816 c 0,1.87551 -1.5099,3.30632 -3.38541,3.20808 l -9.94896,-0.52111 c -1.87551,-0.0982 -3.38541,-1.68721 -3.38541,-3.56272 z" id="path5282" inkscape:connector-curvature="0"/>
    <path sodipodi:type="arc" style="color:#000000;fill:#2f4e62;fill-opacity:1;fill-rule:nonzero;stroke:none;stroke-width:0.40000001;marker:none;visibility:visible;display:inline;overflow:visible;enable-background:accumulate" id="path5284" sodipodi:cx="267.25" sodipodi:cy="375.11218" sodipodi:rx="8.5" sodipodi:ry="8.5" d="m 275.75,375.11218 a 8.5,8.5 0 1 1 -17,0 8.5,8.5 0 1 1 17,0 z" transform="matrix(0.55271969,0.02895043,0,0.55271969,260.67959,307.73616)"/>
    <path d="m 275.75,375.11218 a 8.5,8.5 0 1 1 -17,0 8.5,8.5 0 1 1 17,0 z" sodipodi:ry="8.5" sodipodi:rx="8.5" sodipodi:cy="375.11218" sodipodi:cx="267.25" id="path5286" style="color:#000000;fill:url(#linearGradient5372);fill-opacity:1;fill-rule:nonzero;stroke:none;stroke-width:0.40000001;marker:none;visibility:visible;display:inline;overflow:visible;enable-background:accumulate" sodipodi:type="arc" transform="matrix(0.40641154,0.02128708,0,0.28855219,299.78044,406.94211)"/>
    <path style="color:#000000;fill:url(#linearGradient6087);fill-opacity:1;fill-rule:nonzero;stroke:none;stroke-width:0.40000001;marker:none;visibility:visible;display:inline;overflow:visible;enable-background:accumulate" d="m 403.71308,522.32514 c -0.004,0.08 -0.0172,0.15972 -0.0172,0.24091 0,2.5947 2.10341,4.80829 4.69811,4.9442 2.5947,0.13591 4.69812,-1.85734 4.69812,-4.45204 0,-0.0812 -0.0132,-0.16233 -0.0172,-0.24272 -0.13044,2.47118 -2.17035,4.34263 -4.68085,4.21113 -2.5105,-0.13149 -4.55041,-2.21663 -4.68084,-4.70147 z" id="path5288" inkscape:connector-curvature="0"/>
    <path sodipodi:type="arc" style="color:#000000;fill:#2f4e62;fill-opacity:1;fill-rule:nonzero;stroke:none;stroke-width:0.40000001;marker:none;visibility:visible;display:inline;overflow:visible;enable-background:accumulate" id="path5290" sodipodi:cx="267.25" sodipodi:cy="375.11218" sodipodi:rx="8.5" sodipodi:ry="8.5" d="m 275.75,375.11218 a 8.5,8.5 0 1 1 -17,0 8.5,8.5 0 1 1 17,0 z" transform="matrix(0.55271969,0.02895043,0,0.55271969,260.67959,307.73616)"/>
    <path d="m 275.75,375.11218 a 8.5,8.5 0 1 1 -17,0 8.5,8.5 0 1 1 17,0 z" sodipodi:ry="8.5" sodipodi:rx="8.5" sodipodi:cy="375.11218" sodipodi:cx="267.25" id="path5292" style="color:#000000;fill:url(#linearGradient5376);fill-opacity:1;fill-rule:nonzero;stroke:none;stroke-width:0.40000001;marker:none;visibility:visible;display:inline;overflow:visible;enable-background:accumulate" sodipodi:type="arc" transform="matrix(0.40641154,0.02128708,0,0.28855219,299.78044,406.94211)"/>
    <path style="color:#000000;fill:url(#linearGradient6082);fill-opacity:1;fill-rule:nonzero;stroke:none;stroke-width:0.40000001;marker:none;visibility:visible;display:inline;overflow:visible;enable-background:accumulate" d="m 403.71308,522.32514 c -0.004,0.08 -0.0172,0.15972 -0.0172,0.24091 0,2.5947 2.10341,4.80829 4.69811,4.9442 2.5947,0.13591 4.69812,-1.85734 4.69812,-4.45204 0,-0.0812 -0.0132,-0.16233 -0.0172,-0.24272 -0.13044,2.47118 -2.17035,4.34263 -4.68085,4.21113 -2.5105,-0.13149 -4.55041,-2.21663 -4.68084,-4.70147 z" id="path5294" inkscape:connector-curvature="0"/>
    <rect ry="4.1065593" rx="4.1156502" y="548.24255" x="478.89563" height="20.281397" width="20.326294" id="rect5298" style="color:#000000;fill:#2f4e62;fill-opacity:1;fill-rule:nonzero;stroke:none;stroke-width:0.40000001;marker:none;visibility:visible;display:inline;overflow:visible;enable-background:accumulate" transform="matrix(0.99779119,0.06642852,0,1,0,0)"/>
    <rect style="color:#000000;fill:url(#linearGradient6078);fill-opacity:1;fill-rule:nonzero;stroke:none;stroke-width:0.24782795;marker:none;visibility:visible;display:inline;overflow:visible;enable-background:accumulate" id="rect5300" width="18.142477" height="5.9514194" x="479.98755" y="548.87054" rx="2.391849" ry="2.9757097" transform="matrix(0.99779119,0.06642852,0,1,0,0)"/>
    <path inkscape:connector-curvature="0" id="path5302" d="m 477.83786,594.90974 0,1.31996 c 0,2.27504 1.83152,4.2285 4.10656,4.37996 l 12.06827,0.80346 c 2.27504,0.15146 4.10656,-1.55814 4.10656,-3.83317 l 0,-1.31997 c 0,2.27504 -1.83152,3.98463 -4.10656,3.83317 l -12.06827,-0.80345 c -2.27504,-0.15147 -4.10656,-2.10493 -4.10656,-4.37996 z" style="color:#000000;fill:url(#linearGradient6075);fill-opacity:1;fill-rule:nonzero;stroke:none;stroke-width:0.40000001;marker:none;visibility:visible;display:inline;overflow:visible;enable-background:accumulate"/>
    <path transform="matrix(0.67045942,0.04463622,0,0.67045942,308.71352,311.84294)" d="m 275.75,375.11218 a 8.5,8.5 0 1 1 -17,0 8.5,8.5 0 1 1 17,0 z" sodipodi:ry="8.5" sodipodi:rx="8.5" sodipodi:cy="375.11218" sodipodi:cx="267.25" id="path5304" style="color:#000000;fill:#2f4e62;fill-opacity:1;fill-rule:nonzero;stroke:none;stroke-width:0.40000001;marker:none;visibility:visible;display:inline;overflow:visible;enable-background:accumulate" sodipodi:type="arc"/>
    <path transform="matrix(0.49298487,0.03282075,0,0.35001925,356.14359,432.85503)" sodipodi:type="arc" style="color:#000000;fill:url(#linearGradient5384);fill-opacity:1;fill-rule:nonzero;stroke:none;stroke-width:0.40000001;marker:none;visibility:visible;display:inline;overflow:visible;enable-background:accumulate" id="path5306" sodipodi:cx="267.25" sodipodi:cy="375.11218" sodipodi:rx="8.5" sodipodi:ry="8.5" d="m 275.75,375.11218 a 8.5,8.5 0 1 1 -17,0 8.5,8.5 0 1 1 17,0 z"/>
    <path inkscape:connector-curvature="0" id="path5308" d="m 482.21584,574.60672 c -0.005,0.0969 -0.0209,0.19345 -0.0209,0.29193 0,3.14742 2.55149,5.86878 5.69891,6.07832 3.14742,0.20954 5.6989,-2.17208 5.6989,-5.3195 0,-0.0985 -0.016,-0.19714 -0.0209,-0.29472 -0.15823,2.99534 -2.63267,5.23031 -5.67796,5.02757 -3.04528,-0.20274 -5.51973,-2.76718 -5.67795,-5.7836 z" style="color:#000000;fill:url(#linearGradient6070);fill-opacity:1;fill-rule:nonzero;stroke:none;stroke-width:0.40000001;marker:none;visibility:visible;display:inline;overflow:visible;enable-background:accumulate"/>
    <path transform="matrix(0.67045942,0.04463622,0,0.67045942,308.71352,311.84294)" d="m 275.75,375.11218 a 8.5,8.5 0 1 1 -17,0 8.5,8.5 0 1 1 17,0 z" sodipodi:ry="8.5" sodipodi:rx="8.5" sodipodi:cy="375.11218" sodipodi:cx="267.25" id="path5310" style="color:#000000;fill:#2f4e62;fill-opacity:1;fill-rule:nonzero;stroke:none;stroke-width:0.40000001;marker:none;visibility:visible;display:inline;overflow:visible;enable-background:accumulate" sodipodi:type="arc"/>
    <path transform="matrix(0.49298487,0.03282075,0,0.35001925,356.14359,432.85503)" sodipodi:type="arc" style="color:#000000;fill:url(#linearGradient5388);fill-opacity:1;fill-rule:nonzero;stroke:none;stroke-width:0.40000001;marker:none;visibility:visible;display:inline;overflow:visible;enable-background:accumulate" id="path5312" sodipodi:cx="267.25" sodipodi:cy="375.11218" sodipodi:rx="8.5" sodipodi:ry="8.5" d="m 275.75,375.11218 a 8.5,8.5 0 1 1 -17,0 8.5,8.5 0 1 1 17,0 z"/>
    <path inkscape:connector-curvature="0" id="path5314" d="m 482.21584,574.60672 c -0.005,0.0969 -0.0209,0.19345 -0.0209,0.29193 0,3.14742 2.55149,5.86878 5.69891,6.07832 3.14742,0.20954 5.6989,-2.17208 5.6989,-5.3195 0,-0.0985 -0.016,-0.19714 -0.0209,-0.29472 -0.15823,2.99534 -2.63267,5.23031 -5.67796,5.02757 -3.04528,-0.20274 -5.51973,-2.76718 -5.67795,-5.7836 z" style="color:#000000;fill:url(#linearGradient6065);fill-opacity:1;fill-rule:nonzero;stroke:none;stroke-width:0.40000001;marker:none;visibility:visible;display:inline;overflow:visible;enable-background:accumulate"/>
    <rect style="color:#000000;fill:#2f4e62;fill-opacity:1;fill-rule:nonzero;stroke:none;stroke-width:0.40000001;marker:none;visibility:visible;display:inline;overflow:visible;enable-background:accumulate" id="rect5318" width="20.326294" height="20.281397" x="393.46106" y="546.40955" rx="4.1156502" ry="4.1065593" transform="matrix(0.99779119,0.06642852,0,1,0,0)"/>
    <rect ry="2.9757097" rx="2.391849" y="547.03754" x="394.55298" height="5.9514194" width="18.142477" id="rect5320" style="color:#000000;fill:url(#linearGradient6061);fill-opacity:1;fill-rule:nonzero;stroke:none;stroke-width:0.24782795;marker:none;visibility:visible;display:inline;overflow:visible;enable-background:accumulate" transform="matrix(0.99779119,0.06642852,0,1,0,0)"/>
    <path style="color:#000000;fill:url(#linearGradient6058);fill-opacity:1;fill-rule:nonzero;stroke:none;stroke-width:0.40000001;marker:none;visibility:visible;display:inline;overflow:visible;enable-background:accumulate" d="m 392.592,587.40147 0,1.31996 c 0,2.27504 1.83152,4.2285 4.10656,4.37996 l 12.06827,0.80346 c 2.27504,0.15146 4.10656,-1.55814 4.10656,-3.83317 l 0,-1.31997 c 0,2.27504 -1.83152,3.98463 -4.10656,3.83317 l -12.06827,-0.80345 c -2.27504,-0.15147 -4.10656,-2.10493 -4.10656,-4.37996 z" id="path5322" inkscape:connector-curvature="0"/>
    <path sodipodi:type="arc" style="color:#000000;fill:#2f4e62;fill-opacity:1;fill-rule:nonzero;stroke:none;stroke-width:0.40000001;marker:none;visibility:visible;display:inline;overflow:visible;enable-background:accumulate" id="path5324" sodipodi:cx="267.25" sodipodi:cy="375.11218" sodipodi:rx="8.5" sodipodi:ry="8.5" d="m 275.75,375.11218 a 8.5,8.5 0 1 1 -17,0 8.5,8.5 0 1 1 17,0 z" transform="matrix(0.67045942,0.04463622,0,0.67045942,223.46766,304.33467)"/>
    <path d="m 275.75,375.11218 a 8.5,8.5 0 1 1 -17,0 8.5,8.5 0 1 1 17,0 z" sodipodi:ry="8.5" sodipodi:rx="8.5" sodipodi:cy="375.11218" sodipodi:cx="267.25" id="path5326" style="color:#000000;fill:url(#linearGradient5396);fill-opacity:1;fill-rule:nonzero;stroke:none;stroke-width:0.40000001;marker:none;visibility:visible;display:inline;overflow:visible;enable-background:accumulate" sodipodi:type="arc" transform="matrix(0.49298487,0.03282075,0,0.35001925,270.89773,425.34676)"/>
    <path style="color:#000000;fill:url(#linearGradient6053);fill-opacity:1;fill-rule:nonzero;stroke:none;stroke-width:0.40000001;marker:none;visibility:visible;display:inline;overflow:visible;enable-background:accumulate" d="m 396.96998,567.09845 c -0.005,0.0969 -0.0209,0.19345 -0.0209,0.29193 0,3.14742 2.55149,5.86878 5.69891,6.07832 3.14742,0.20954 5.6989,-2.17208 5.6989,-5.3195 0,-0.0985 -0.016,-0.19714 -0.0209,-0.29472 -0.15823,2.99534 -2.63267,5.23031 -5.67796,5.02757 -3.04528,-0.20274 -5.51973,-2.76718 -5.67795,-5.7836 z" id="path5328" inkscape:connector-curvature="0"/>
    <path sodipodi:type="arc" style="color:#000000;fill:#2f4e62;fill-opacity:1;fill-rule:nonzero;stroke:none;stroke-width:0.40000001;marker:none;visibility:visible;display:inline;overflow:visible;enable-background:accumulate" id="path5330" sodipodi:cx="267.25" sodipodi:cy="375.11218" sodipodi:rx="8.5" sodipodi:ry="8.5" d="m 275.75,375.11218 a 8.5,8.5 0 1 1 -17,0 8.5,8.5 0 1 1 17,0 z" transform="matrix(0.67045942,0.04463622,0,0.67045942,223.46766,304.33467)"/>
    <path d="m 275.75,375.11218 a 8.5,8.5 0 1 1 -17,0 8.5,8.5 0 1 1 17,0 z" sodipodi:ry="8.5" sodipodi:rx="8.5" sodipodi:cy="375.11218" sodipodi:cx="267.25" id="path5332" style="color:#000000;fill:url(#linearGradient5400);fill-opacity:1;fill-rule:nonzero;stroke:none;stroke-width:0.40000001;marker:none;visibility:visible;display:inline;overflow:visible;enable-background:accumulate" sodipodi:type="arc" transform="matrix(0.49298487,0.03282075,0,0.35001925,270.89773,425.34676)"/>
    <path style="color:#000000;fill:url(#linearGradient6048);fill-opacity:1;fill-rule:nonzero;stroke:none;stroke-width:0.40000001;marker:none;visibility:visible;display:inline;overflow:visible;enable-background:accumulate" d="m 396.96998,567.09845 c -0.005,0.0969 -0.0209,0.19345 -0.0209,0.29193 0,3.14742 2.55149,5.86878 5.69891,6.07832 3.14742,0.20954 5.6989,-2.17208 5.6989,-5.3195 0,-0.0985 -0.016,-0.19714 -0.0209,-0.29472 -0.15823,2.99534 -2.63267,5.23031 -5.67796,5.02757 -3.04528,-0.20274 -5.51973,-2.76718 -5.67795,-5.7836 z" id="path5334" inkscape:connector-curvature="0"/>
    <rect style="color:#000000;fill:#2f4e62;fill-opacity:1;fill-rule:nonzero;stroke:none;stroke-width:0.40000001;marker:none;visibility:visible;display:inline;overflow:visible;enable-background:accumulate" id="rect5338" width="21.177389" height="21.152552" x="309.45691" y="548.89288" rx="4.2879791" ry="4.2829499" transform="matrix(0.99882715,0.04841812,0,1,0,0)"/>
    <rect ry="3.1035264" rx="2.4919996" y="549.54785" x="310.59454" height="6.2070527" width="18.902132" id="rect5340" style="color:#000000;fill:url(#linearGradient6044);fill-opacity:1;fill-rule:nonzero;stroke:none;stroke-width:0.24782795;marker:none;visibility:visible;display:inline;overflow:visible;enable-background:accumulate" transform="matrix(0.99882715,0.04841812,0,1,0,0)"/>
    <path style="color:#000000;fill:url(#linearGradient6041);fill-opacity:1;fill-rule:nonzero;stroke:none;stroke-width:0.40000001;marker:none;visibility:visible;display:inline;overflow:visible;enable-background:accumulate" d="m 309.09399,579.36914 0,1.37667 c 0,2.37275 1.9102,4.37555 4.28296,4.49057 l 12.58664,0.61013 c 2.37276,0.11502 4.28295,-1.70258 4.28295,-4.07533 l 0,-1.37667 c 0,2.37276 -1.91019,4.19036 -4.28295,4.07534 l -12.58664,-0.61014 c -2.37276,-0.11502 -4.28296,-2.11781 -4.28296,-4.49057 z" id="path5342" inkscape:connector-curvature="0"/>
    <path sodipodi:type="arc" style="color:#000000;fill:#2f4e62;fill-opacity:1;fill-rule:nonzero;stroke:none;stroke-width:0.40000001;marker:none;visibility:visible;display:inline;overflow:visible;enable-background:accumulate" id="path5344" sodipodi:cx="267.25" sodipodi:cy="375.11218" sodipodi:rx="8.5" sodipodi:ry="8.5" d="m 275.75,375.11218 a 8.5,8.5 0 1 1 -17,0 8.5,8.5 0 1 1 17,0 z" transform="matrix(0.6992579,0.03389651,0,0.6992579,132.70519,287.33642)"/>
    <path d="m 275.75,375.11218 a 8.5,8.5 0 1 1 -17,0 8.5,8.5 0 1 1 17,0 z" sodipodi:ry="8.5" sodipodi:rx="8.5" sodipodi:cy="375.11218" sodipodi:cx="267.25" id="path5346" style="color:#000000;fill:url(#linearGradient5408);fill-opacity:1;fill-rule:nonzero;stroke:none;stroke-width:0.40000001;marker:none;visibility:visible;display:inline;overflow:visible;enable-background:accumulate" sodipodi:type="arc" transform="matrix(0.51416022,0.0249239,0,0.36505375,182.17255,412.651)"/>
    <path style="color:#000000;fill:url(#linearGradient6036);fill-opacity:1;fill-rule:nonzero;stroke:none;stroke-width:0.40000001;marker:none;visibility:visible;display:inline;overflow:visible;enable-background:accumulate" d="m 313.66003,558.1114 c -0.005,0.10119 -0.0218,0.20215 -0.0218,0.30487 0,3.28261 2.66108,6.07268 5.94369,6.23181 3.28261,0.15912 5.9437,-2.37296 5.9437,-5.65557 0,-0.10272 -0.0167,-0.20531 -0.0218,-0.30699 -0.16502,3.12699 -2.74575,5.50467 -5.92184,5.35071 -3.17609,-0.15396 -5.75682,-2.78184 -5.92184,-5.92483 z" id="path5348" inkscape:connector-curvature="0"/>
    <path sodipodi:type="arc" style="color:#000000;fill:#2f4e62;fill-opacity:1;fill-rule:nonzero;stroke:none;stroke-width:0.40000001;marker:none;visibility:visible;display:inline;overflow:visible;enable-background:accumulate" id="path5350" sodipodi:cx="267.25" sodipodi:cy="375.11218" sodipodi:rx="8.5" sodipodi:ry="8.5" d="m 275.75,375.11218 a 8.5,8.5 0 1 1 -17,0 8.5,8.5 0 1 1 17,0 z" transform="matrix(0.6992579,0.03389651,0,0.6992579,132.70519,287.33642)"/>
    <path d="m 275.75,375.11218 a 8.5,8.5 0 1 1 -17,0 8.5,8.5 0 1 1 17,0 z" sodipodi:ry="8.5" sodipodi:rx="8.5" sodipodi:cy="375.11218" sodipodi:cx="267.25" id="path5352" style="color:#000000;fill:url(#linearGradient5412);fill-opacity:1;fill-rule:nonzero;stroke:none;stroke-width:0.40000001;marker:none;visibility:visible;display:inline;overflow:visible;enable-background:accumulate" sodipodi:type="arc" transform="matrix(0.51416022,0.0249239,0,0.36505375,182.17255,412.651)"/>
    <path style="color:#000000;fill:url(#linearGradient6031);fill-opacity:1;fill-rule:nonzero;stroke:none;stroke-width:0.40000001;marker:none;visibility:visible;display:inline;overflow:visible;enable-background:accumulate" d="m 313.66003,558.1114 c -0.005,0.10119 -0.0218,0.20215 -0.0218,0.30487 0,3.28261 2.66108,6.07268 5.94369,6.23181 3.28261,0.15912 5.9437,-2.37296 5.9437,-5.65557 0,-0.10272 -0.0167,-0.20531 -0.0218,-0.30699 -0.16502,3.12699 -2.74575,5.50467 -5.92184,5.35071 -3.17609,-0.15396 -5.75682,-2.78184 -5.92184,-5.92483 z" id="path5354" inkscape:connector-curvature="0"/>
  </g>
</svg>