<?xml version="1.0" encoding="UTF-8" standalone="no"?>
<!-- Created with Inkscape (http://www.inkscape.org/) -->
<svg xmlns:dc="http://purl.org/dc/elements/1.1/" xmlns:cc="http://creativecommons.org/ns#" xmlns:rdf="http://www.w3.org/1999/02/22-rdf-syntax-ns#" xmlns:svg="http://www.w3.org/2000/svg" xmlns="http://www.w3.org/2000/svg" xmlns:xlink="http://www.w3.org/1999/xlink" xmlns:sodipodi="http://sodipodi.sourceforge.net/DTD/sodipodi-0.dtd" xmlns:inkscape="http://www.inkscape.org/namespaces/inkscape" sodipodi:docname="internet-news-reader.svg" sodipodi:docbase="/home/jimmac/src/cvs/tango-icon-theme/scalable/apps" inkscape:version="0.46" sodipodi:version="0.32" id="svg1724" height="48px" width="48px" inkscape:output_extension="org.inkscape.output.svg.inkscape">
  <defs id="defs3">
    <inkscape:perspective sodipodi:type="inkscape:persp3d" inkscape:vp_x="0 : 24 : 1" inkscape:vp_y="0 : 1000 : 0" inkscape:vp_z="48 : 24 : 1" inkscape:persp3d-origin="24 : 16 : 1" id="perspective66"/>
    <radialGradient inkscape:collect="always" xlink:href="#linearGradient5060" id="radialGradient6719" gradientUnits="userSpaceOnUse" gradientTransform="matrix(-2.774389,0,0,1.969706,112.7623,-872.8854)" cx="605.71429" cy="486.64789" fx="605.71429" fy="486.64789" r="117.14286"/>
    <linearGradient inkscape:collect="always" id="linearGradient5060">
      <stop style="stop-color:black;stop-opacity:1;" offset="0" id="stop5062"/>
      <stop style="stop-color:black;stop-opacity:0;" offset="1" id="stop5064"/>
    </linearGradient>
    <radialGradient inkscape:collect="always" xlink:href="#linearGradient5060" id="radialGradient6717" gradientUnits="userSpaceOnUse" gradientTransform="matrix(2.774389,0,0,1.969706,-1891.633,-872.8854)" cx="605.71429" cy="486.64789" fx="605.71429" fy="486.64789" r="117.14286"/>
    <linearGradient id="linearGradient5048">
      <stop style="stop-color:black;stop-opacity:0;" offset="0" id="stop5050"/>
      <stop id="stop5056" offset="0.5" style="stop-color:black;stop-opacity:1;"/>
      <stop style="stop-color:black;stop-opacity:0;" offset="1" id="stop5052"/>
    </linearGradient>
    <linearGradient inkscape:collect="always" xlink:href="#linearGradient5048" id="linearGradient6715" gradientUnits="userSpaceOnUse" gradientTransform="matrix(2.774389,0,0,1.969706,-1892.179,-872.8854)" x1="302.85715" y1="366.64789" x2="302.85715" y2="609.50507"/>
    <linearGradient id="linearGradient2951" inkscape:collect="always">
      <stop id="stop2953" offset="0" style="stop-color:#000000;stop-opacity:1;"/>
      <stop id="stop2955" offset="1" style="stop-color:#000000;stop-opacity:0;"/>
    </linearGradient>
    <linearGradient id="linearGradient2941" inkscape:collect="always">
      <stop id="stop2943" offset="0" style="stop-color:#ffffff;stop-opacity:1;"/>
      <stop id="stop2945" offset="1" style="stop-color:#ffffff;stop-opacity:0;"/>
    </linearGradient>
    <linearGradient id="linearGradient2926">
      <stop id="stop2928" offset="0.0000000" style="stop-color:#787878;stop-opacity:1.0000000;"/>
      <stop id="stop2930" offset="1.0000000" style="stop-color:#d0d0d0;stop-opacity:1.0000000;"/>
    </linearGradient>
    <linearGradient id="linearGradient2908">
      <stop id="stop2910" offset="0" style="stop-color:#828282;stop-opacity:1;"/>
      <stop id="stop2912" offset="1" style="stop-color:#828282;stop-opacity:0;"/>
    </linearGradient>
    <linearGradient id="linearGradient2831">
      <stop id="stop2833" offset="0.0000000" style="stop-color:#919191;stop-opacity:1.0000000;"/>
      <stop style="stop-color:#e9e9e9;stop-opacity:1.0000000;" offset="0.20232038" id="stop2839"/>
      <stop id="stop2843" offset="0.23641536" style="stop-color:#f3f3f3;stop-opacity:1.0000000;"/>
      <stop id="stop2841" offset="0.29892281" style="stop-color:#e6e6e6;stop-opacity:1.0000000;"/>
      <stop id="stop2835" offset="1.0000000" style="stop-color:#f8f8f8;stop-opacity:1.0000000;"/>
    </linearGradient>
    <linearGradient gradientUnits="userSpaceOnUse" y2="17.640900" x2="17.808550" y1="46.606094" x1="17.827532" gradientTransform="matrix(1.376922,0.000000,0.000000,0.824973,-1.442762,-2.734599)" id="linearGradient2837" xlink:href="#linearGradient2831" inkscape:collect="always"/>
    <linearGradient gradientUnits="userSpaceOnUse" y2="25.539530" x2="12.728428" y1="38.134369" x1="12.745098" gradientTransform="matrix(1.119541,0.000000,0.000000,0.893223,0.125000,-1.125000)" id="linearGradient2932" xlink:href="#linearGradient2926" inkscape:collect="always"/>
    <linearGradient gradientUnits="userSpaceOnUse" y2="73.135864" x2="40.419140" y1="13.835308" x1="4.6806560" gradientTransform="matrix(1.310510,0.000000,0.000000,0.763062,0.125000,-1.125000)" id="linearGradient2947" xlink:href="#linearGradient2941" inkscape:collect="always"/>
    <radialGradient gradientUnits="userSpaceOnUse" r="10.295440" fy="44.613575" fx="11.770608" cy="44.613575" cx="11.770608" gradientTransform="scale(2.033667,0.491723)" id="radialGradient2957" xlink:href="#linearGradient2951" inkscape:collect="always"/>
  </defs>
  <sodipodi:namedview inkscape:window-y="-4" inkscape:window-x="-4" inkscape:window-height="744" inkscape:window-width="1280" inkscape:document-units="px" inkscape:grid-bbox="true" showgrid="false" inkscape:current-layer="layer1" inkscape:cy="18.851997" inkscape:cx="22.057648" inkscape:zoom="11.313708" inkscape:pageshadow="2" inkscape:pageopacity="0.0" borderopacity="0.16470588" bordercolor="#666666" pagecolor="#ffffff" id="base" inkscape:showpageshadow="false"/>
  <metadata id="metadata4">
    <rdf:RDF>
      <cc:Work rdf:about="">
        <dc:format>image/svg+xml</dc:format>
        <dc:type rdf:resource="http://purl.org/dc/dcmitype/StillImage"/>
        <dc:title>News</dc:title>
        <dc:date>2005-03-11</dc:date>
        <dc:creator>
          <cc:Agent>
            <dc:title>Jakub Steiner</dc:title>
          </cc:Agent>
        </dc:creator>
        <dc:source>http://jimmac.musichall.cz/</dc:source>
        <dc:subject>
          <rdf:Bag>
            <rdf:li>news</rdf:li>
            <rdf:li>usenet</rdf:li>
            <rdf:li>new</rdf:li>
          </rdf:Bag>
        </dc:subject>
        <cc:license rdf:resource="http://creativecommons.org/licenses/publicdomain/"/>
      </cc:Work>
      <cc:License rdf:about="http://creativecommons.org/licenses/publicdomain/">
        <cc:permits rdf:resource="http://creativecommons.org/ns#Reproduction"/>
        <cc:permits rdf:resource="http://creativecommons.org/ns#Distribution"/>
        <cc:permits rdf:resource="http://creativecommons.org/ns#DerivativeWorks"/>
      </cc:License>
    </rdf:RDF>
  </metadata>
  <g inkscape:groupmode="layer" inkscape:label="Layer 1" id="layer1">
    <g transform="matrix(2.374466e-2,0,0,2.086758e-2,44.68185,33.2786)" id="g6707">
      <rect style="opacity:0.40206185;color:black;fill:url(#linearGradient6715);fill-opacity:1;fill-rule:nonzero;stroke:none;stroke-width:1;stroke-linecap:round;stroke-linejoin:miter;marker:none;marker-start:none;marker-mid:none;marker-end:none;stroke-miterlimit:4;stroke-dasharray:none;stroke-dashoffset:0;stroke-opacity:1;visibility:visible;display:inline;overflow:visible" id="rect6709" width="1339.6335" height="478.35718" x="-1559.2523" y="-150.69685"/>
      <path style="opacity:0.40206185;color:black;fill:url(#radialGradient6717);fill-opacity:1;fill-rule:nonzero;stroke:none;stroke-width:1;stroke-linecap:round;stroke-linejoin:miter;marker:none;marker-start:none;marker-mid:none;marker-end:none;stroke-miterlimit:4;stroke-dasharray:none;stroke-dashoffset:0;stroke-opacity:1;visibility:visible;display:inline;overflow:visible" d="M -219.61876,-150.68038 C -219.61876,-150.68038 -219.61876,327.65041 -219.61876,327.65041 C -76.744594,328.55086 125.78146,220.48075 125.78138,88.454235 C 125.78138,-43.572302 -33.655436,-150.68036 -219.61876,-150.68038 z " id="path6711" sodipodi:nodetypes="cccc"/>
      <path sodipodi:nodetypes="cccc" id="path6713" d="M -1559.2523,-150.68038 C -1559.2523,-150.68038 -1559.2523,327.65041 -1559.2523,327.65041 C -1702.1265,328.55086 -1904.6525,220.48075 -1904.6525,88.454235 C -1904.6525,-43.572302 -1745.2157,-150.68036 -1559.2523,-150.68038 z " style="opacity:0.40206185;color:black;fill:url(#radialGradient6719);fill-opacity:1;fill-rule:nonzero;stroke:none;stroke-width:1;stroke-linecap:round;stroke-linejoin:miter;marker:none;marker-start:none;marker-mid:none;marker-end:none;stroke-miterlimit:4;stroke-dasharray:none;stroke-dashoffset:0;stroke-opacity:1;visibility:visible;display:inline;overflow:visible"/>
    </g>
    <path sodipodi:nodetypes="cssssssss" id="path1943" d="M 6.6318643,11.549491 L 2.3792281,31.036252 C 1.6982888,34.156506 3.1866903,36.150182 5.3399238,36.150182 L 42.590860,36.150182 C 44.744093,36.150182 46.246357,33.815110 45.497724,31.090083 L 40.114641,11.495661 C 39.966374,10.955968 39.277978,10.525719 38.715040,10.526706 L 8.0314653,10.580537 C 7.2043318,10.581987 6.7925280,10.813285 6.6318643,11.549491 z " style="fill:url(#linearGradient2837);fill-opacity:1.0000000;fill-rule:evenodd;stroke:#828282;stroke-width:1.0000000;stroke-linecap:butt;stroke-linejoin:miter;stroke-miterlimit:4.0000000;stroke-opacity:1.0000000"/>
    <path sodipodi:nodetypes="ccccc" id="path2850" d="M 36.854646,13.732143 L 28.535714,13.732143 L 29.311828,18.303571 L 37.696429,18.303571 L 36.854646,13.732143 z " style="fill:#000000;fill-opacity:0.17543860;fill-rule:evenodd;stroke:none;stroke-width:1.0000000px;stroke-linecap:butt;stroke-linejoin:miter;stroke-opacity:1.0000000"/>
    <path sodipodi:nodetypes="cc" id="path2852" d="M 38.714286,21.357143 L 23.714286,21.357143" style="stroke-opacity:0.099415191;stroke-linejoin:miter;stroke-linecap:round;stroke-width:1.0000000px;stroke:#000000;fill-rule:evenodd;fill-opacity:0.75000000;fill:none"/>
    <path style="fill:none;fill-opacity:0.75000000;fill-rule:evenodd;stroke:#000000;stroke-width:1.0000000px;stroke-linecap:round;stroke-linejoin:miter;stroke-opacity:0.099415191" d="M 39.214286,23.357143 L 23.714286,23.357143" id="path2854" sodipodi:nodetypes="cc"/>
    <path sodipodi:nodetypes="cc" id="path2856" d="M 39.839286,25.357143 L 23.714286,25.357143" style="stroke-opacity:0.12280702;stroke-linejoin:miter;stroke-linecap:round;stroke-width:1.0000000px;stroke:#000000;fill-rule:evenodd;fill-opacity:0.75000000;fill:none"/>
    <path style="stroke-opacity:0.15204678;stroke-linejoin:miter;stroke-linecap:round;stroke-width:0.99128145px;stroke:#000000;fill-rule:evenodd;fill-opacity:0.75000000;fill:none" d="M 40.410467,27.357143 L 23.705605,27.357143" id="path2858" sodipodi:nodetypes="cc"/>
    <path sodipodi:nodetypes="cc" id="path2860" d="M 41.035175,29.357143 L 23.705897,29.357143" style="fill:none;fill-opacity:0.75000000;fill-rule:evenodd;stroke:#000000;stroke-width:0.99157524px;stroke-linecap:round;stroke-linejoin:miter;stroke-opacity:0.15204675"/>
    <path style="fill:none;fill-opacity:0.75000000;fill-rule:evenodd;stroke:#000000;stroke-width:0.99190271px;stroke-linecap:round;stroke-linejoin:miter;stroke-opacity:0.15204675" d="M 41.784851,31.357143 L 23.706221,31.357143" id="path2862" sodipodi:nodetypes="cc"/>
    <path sodipodi:nodetypes="cc" id="path2864" d="M 40.852709,33.357143 L 23.700863,33.357143" style="stroke-opacity:0.11695904;stroke-linejoin:miter;stroke-linecap:round;stroke-width:0.98648584px;stroke:#000000;fill-rule:evenodd;fill-opacity:0.75000000;fill:none"/>
    <path transform="matrix(1,0,-0.169202,1,0,0)" style="font-size:6.58773756px;font-style:normal;font-variant:normal;font-weight:normal;font-stretch:normal;line-height:100%;writing-mode:lr-tb;text-anchor:start;fill:#000000;fill-opacity:1;stroke:none;stroke-width:1px;stroke-linecap:butt;stroke-linejoin:miter;stroke-opacity:1;font-family:Times New Roman" d="M 11.962698,13.845122 L 13.146432,13.845122 L 15.813051,17.116474 L 15.813051,14.601039 C 15.813047,14.332987 15.783025,14.16572 15.722984,14.099238 C 15.643636,14.009176 15.518186,13.964143 15.346634,13.964138 L 15.19545,13.964138 L 15.19545,13.845122 L 16.713718,13.845122 L 16.713718,13.964138 L 16.559318,13.964138 C 16.374891,13.964143 16.24408,14.019898 16.166884,14.131405 C 16.119702,14.200031 16.096113,14.356576 16.096117,14.601039 L 16.096117,18.277691 L 15.980317,18.277691 L 13.104615,14.765089 L 13.104615,17.451007 C 13.104614,17.719064 13.133564,17.88633 13.191466,17.952808 C 13.272953,18.042874 13.398403,18.087908 13.567816,18.087908 L 13.722216,18.087908 L 13.722216,18.206924 L 12.203948,18.206924 L 12.203948,18.087908 L 12.355132,18.087908 C 12.541698,18.087908 12.673581,18.032152 12.750782,17.920641 C 12.797959,17.852019 12.821548,17.695475 12.821549,17.451007 L 12.821549,14.417689 C 12.695026,14.269726 12.599062,14.172154 12.533657,14.124972 C 12.468251,14.077798 12.372287,14.033837 12.245765,13.993088 C 12.183576,13.973793 12.08922,13.964143 11.962698,13.964138 L 11.962698,13.845122 z" id="text2866"/>
    <path transform="matrix(1,0,-0.114632,1,0,0)" style="font-size:6.58773756px;font-style:normal;font-variant:normal;font-weight:normal;font-stretch:normal;line-height:100%;writing-mode:lr-tb;text-anchor:start;fill:#000000;fill-opacity:1;stroke:none;stroke-width:1px;stroke-linecap:butt;stroke-linejoin:miter;stroke-opacity:1;font-family:Times New Roman" d="M 17.19276,14.083155 L 17.19276,15.80729 L 18.151327,15.80729 C 18.40008,15.807292 18.566275,15.769764 18.649911,15.694706 C 18.761419,15.596064 18.823608,15.422364 18.836478,15.173606 L 18.955494,15.173606 L 18.955494,16.691873 L 18.836478,16.691873 C 18.806452,16.479575 18.77643,16.343403 18.746411,16.283357 C 18.707808,16.208303 18.644547,16.149331 18.556627,16.10644 C 18.468703,16.063553 18.333603,16.042109 18.151327,16.042106 L 17.19276,16.042106 L 17.19276,17.479957 C 17.192759,17.672958 17.201336,17.790366 17.218493,17.832183 C 17.235647,17.874 17.26567,17.907238 17.30856,17.931899 C 17.351447,17.956561 17.432936,17.968891 17.553027,17.968891 L 18.292861,17.968891 C 18.539469,17.968891 18.71853,17.951736 18.830044,17.917424 C 18.941552,17.883113 19.048775,17.815563 19.151711,17.714774 C 19.284663,17.581819 19.420836,17.381314 19.560228,17.113257 L 19.688895,17.113257 L 19.312545,18.206924 L 15.951126,18.206924 L 15.951126,18.087908 L 16.105526,18.087908 C 16.208459,18.087908 16.306031,18.063247 16.398243,18.013924 C 16.466864,17.979613 16.513506,17.928147 16.538168,17.859524 C 16.562828,17.790902 16.575159,17.650441 16.57516,17.438141 L 16.57516,14.604255 C 16.575159,14.327626 16.547281,14.157143 16.491526,14.092805 C 16.414326,14.007031 16.285659,13.964143 16.105526,13.964138 L 15.951126,13.964138 L 15.951126,13.845122 L 19.312545,13.845122 L 19.360795,14.800472 L 19.235345,14.800472 C 19.190308,14.57102 19.14045,14.413404 19.085769,14.327622 C 19.031083,14.241848 18.95013,14.176443 18.842911,14.131405 C 18.75713,14.099243 18.605947,14.083159 18.389361,14.083155 L 17.19276,14.083155 z" id="text2870"/>
    <path transform="matrix(1,0,5.603472e-2,1,0,0)" style="font-size:6.58773756px;font-style:normal;font-variant:normal;font-weight:normal;font-stretch:normal;line-height:100%;writing-mode:lr-tb;text-anchor:start;fill:#000000;fill-opacity:1;stroke:none;stroke-width:1px;stroke-linecap:butt;stroke-linejoin:miter;stroke-opacity:1;font-family:Times New Roman" d="M 23.367183,13.845122 L 23.367183,13.964138 C 23.253521,13.964143 23.16131,13.984515 23.090549,14.025255 C 23.019776,14.066004 22.952226,14.142131 22.887899,14.253639 C 22.845004,14.328698 22.777454,14.507759 22.685249,14.790822 L 21.469348,18.306641 L 21.340681,18.306641 L 20.346731,15.517789 L 19.359213,18.306641 L 19.243413,18.306641 L 17.947096,14.684672 C 17.850595,14.414476 17.789478,14.254715 17.763746,14.205389 C 17.720856,14.123904 17.66242,14.063323 17.588437,14.023647 C 17.514453,13.983979 17.414201,13.964143 17.287679,13.964138 L 17.287679,13.845122 L 18.902446,13.845122 L 18.902446,13.964138 L 18.825246,13.964138 C 18.711589,13.964143 18.624739,13.989876 18.564696,14.041338 C 18.50465,14.092809 18.474628,14.154998 18.474629,14.227905 C 18.474628,14.302965 18.521806,14.475592 18.616163,14.745789 L 19.475013,17.193674 L 20.198764,15.112489 L 20.070097,14.745789 L 19.967164,14.453072 C 19.922128,14.345854 19.871733,14.251498 19.81598,14.170005 C 19.7881,14.129265 19.753789,14.094954 19.713047,14.067072 C 19.659433,14.028476 19.605822,14.000598 19.552213,13.983438 C 19.511467,13.970576 19.447133,13.964143 19.359213,13.964138 L 19.359213,13.845122 L 21.057614,13.845122 L 21.057614,13.964138 L 20.941814,13.964138 C 20.821722,13.964143 20.7338,13.989876 20.678047,14.041338 C 20.622288,14.092809 20.594411,14.162504 20.594414,14.250422 C 20.594411,14.359792 20.642661,14.550648 20.739164,14.822989 L 21.575498,17.193674 L 22.405399,14.790822 C 22.499749,14.524915 22.546927,14.340492 22.546932,14.237555 C 22.546927,14.188237 22.531379,14.142131 22.50029,14.099238 C 22.469191,14.056354 22.430054,14.026331 22.382882,14.009172 C 22.301388,13.979154 22.195238,13.964143 22.064432,13.964138 L 22.064432,13.845122 L 23.367183,13.845122 z" id="text2874"/>
    <path transform="matrix(1,0,0.109619,1,0,0)" style="font-size:6.58773756px;font-style:normal;font-variant:normal;font-weight:normal;font-stretch:normal;line-height:100%;writing-mode:lr-tb;text-anchor:start;fill:#000000;fill-opacity:1;stroke:none;stroke-width:1px;stroke-linecap:butt;stroke-linejoin:miter;stroke-opacity:1;font-family:Times New Roman" d="M 25.455108,13.742187 L 25.455108,15.250805 L 25.336091,15.250805 C 25.297488,14.961308 25.22833,14.73078 25.128616,14.559221 C 25.028897,14.387669 24.886827,14.251497 24.702408,14.150704 C 24.517983,14.049919 24.327128,13.999525 24.129841,13.999521 C 23.906817,13.999525 23.722395,14.067611 23.576574,14.203779 C 23.43075,14.339955 23.357839,14.494891 23.35784,14.668588 C 23.357839,14.801547 23.403945,14.922708 23.496157,15.032071 C 23.629111,15.192908 23.945417,15.407352 24.445074,15.675405 C 24.852516,15.894141 25.130758,16.061944 25.2798,16.178814 C 25.428836,16.295688 25.543563,16.433468 25.623983,16.592156 C 25.704397,16.750846 25.744605,16.917041 25.744608,17.090739 C 25.744605,17.420985 25.616474,17.70566 25.360216,17.944765 C 25.103952,18.183871 24.774244,18.303423 24.371091,18.303423 C 24.244567,18.303423 24.12555,18.293773 24.01404,18.274473 C 23.947561,18.263751 23.809781,18.224615 23.600699,18.157065 C 23.391614,18.089515 23.259195,18.05574 23.20344,18.05574 C 23.149828,18.05574 23.107475,18.071823 23.076382,18.10399 C 23.045286,18.136157 23.022234,18.202635 23.007223,18.303423 L 22.888206,18.303423 L 22.888206,16.807673 L 23.007223,16.807673 C 23.062978,17.120763 23.138034,17.355043 23.23239,17.510515 C 23.326745,17.665987 23.470959,17.79519 23.665032,17.898123 C 23.859103,18.001057 24.071939,18.052523 24.303541,18.052523 C 24.571594,18.052523 24.783358,17.981757 24.938833,17.840223 C 25.094302,17.69869 25.172038,17.531424 25.172041,17.338423 C 25.172038,17.231202 25.142552,17.122907 25.083583,17.013539 C 25.024608,16.904174 24.932933,16.802313 24.808558,16.707956 C 24.724922,16.643624 24.496539,16.506916 24.123407,16.297831 C 23.750272,16.088749 23.484897,15.922019 23.327282,15.797639 C 23.169664,15.673263 23.050111,15.536019 22.968623,15.385905 C 22.887134,15.235797 22.846389,15.070675 22.84639,14.890538 C 22.846389,14.577452 22.966478,14.307789 23.206657,14.081546 C 23.446834,13.855311 23.752417,13.742192 24.123407,13.742187 C 24.355005,13.742192 24.600544,13.799019 24.860024,13.912671 C 24.980111,13.966286 25.064816,13.993092 25.114141,13.993087 C 25.169894,13.993092 25.215463,13.976472 25.25085,13.943229 C 25.28623,13.909994 25.314644,13.842981 25.336091,13.742187 L 25.455108,13.742187 z" id="text2878"/>
    <path sodipodi:nodetypes="ccsscc" id="path2924" d="M 21.125000,21.375000 L 21.125000,33.375000 L 8.1874999,33.375000 C 7.0555768,33.375000 6.1249999,32.187500 6.6874999,30.500000 C 6.6874999,30.500000 8.6249999,21.375000 8.6249999,21.375000 L 21.125000,21.375000 z " style="fill:url(#linearGradient2932);fill-opacity:1.0000000;fill-rule:evenodd;stroke:#9e9e9e;stroke-width:1.0000000px;stroke-linecap:butt;stroke-linejoin:miter;stroke-opacity:1.0000000"/>
    <path sodipodi:nodetypes="cc" id="path2934" d="M 20.187500,31.437500 L 7.6875000,31.437500" style="fill:none;fill-opacity:0.75000000;fill-rule:evenodd;stroke:#ffffff;stroke-width:1.0000000px;stroke-linecap:round;stroke-linejoin:round;stroke-opacity:0.30994150"/>
    <path style="fill:none;fill-opacity:0.75000000;fill-rule:evenodd;stroke:#ffffff;stroke-width:2.4495406px;stroke-linecap:round;stroke-linejoin:round;stroke-opacity:0.30994150" d="M 20.187500,31.437350 L 7.6875000,31.437350" id="path2937" sodipodi:nodetypes="cc"/>
    <path style="fill:none;fill-opacity:1.0000000;fill-rule:evenodd;stroke:url(#linearGradient2947);stroke-width:0.98188436px;stroke-linecap:butt;stroke-linejoin:miter;stroke-opacity:1.0000000" d="M 7.4330493,12.290153 L 3.4527295,31.055192 C 3.0113565,33.136025 3.1341190,35.141495 5.4303252,35.141495 L 42.123439,35.141495 C 44.357145,35.141495 45.079222,33.295029 44.301442,30.479785 L 39.279677,12.303060 C 39.142367,11.806056 38.821386,11.472031 38.302769,11.472893 L 8.4724575,11.522485 C 7.8354451,11.523544 7.5463405,11.756047 7.4330493,12.290153 z " id="path2939" sodipodi:nodetypes="cssssssss"/>
    <path transform="translate(-0.156250,0.125000)" d="M 6.2187500 31.437500 A 0.96875000 0.96875000 0 1 1  4.2812500,31.437500 A 0.96875000 0.96875000 0 1 1  6.2187500 31.437500 z" sodipodi:ry="0.96875000" sodipodi:rx="0.96875000" sodipodi:cy="31.437500" sodipodi:cx="5.2500000" id="path2963" style="overflow:visible;display:inline;visibility:visible;marker-end:none;marker-mid:none;marker-start:none;marker:none;stroke-opacity:1.0000000;stroke-dashoffset:0.0000000;stroke-miterlimit:4.0000000;stroke-linejoin:round;stroke-linecap:round;stroke-width:1.0000000;stroke:none;fill-rule:nonzero;fill-opacity:0.63742691;fill:#ffffff;color:#000000" sodipodi:type="arc"/>
  </g>
</svg>