<?xml version="1.0" encoding="UTF-8" standalone="no"?>
<!-- Created with Inkscape (http://www.inkscape.org/) -->
<svg xmlns:dc="http://purl.org/dc/elements/1.1/" xmlns:cc="http://creativecommons.org/ns#" xmlns:rdf="http://www.w3.org/1999/02/22-rdf-syntax-ns#" xmlns:svg="http://www.w3.org/2000/svg" xmlns="http://www.w3.org/2000/svg" xmlns:xlink="http://www.w3.org/1999/xlink" xmlns:sodipodi="http://sodipodi.sourceforge.net/DTD/sodipodi-0.dtd" xmlns:inkscape="http://www.inkscape.org/namespaces/inkscape" width="256" height="256" id="svg2" version="1.1" inkscape:version="0.47 r22583" sodipodi:docname="speedometer.svg" enable-background="new">
  <defs id="defs4">
    <linearGradient inkscape:collect="always" id="linearGradient3680">
      <stop style="stop-color:#000000;stop-opacity:1;" offset="0" id="stop3682"/>
      <stop style="stop-color:#000000;stop-opacity:0;" offset="1" id="stop3684"/>
    </linearGradient>
    <linearGradient inkscape:collect="always" id="linearGradient2894">
      <stop style="stop-color:#d40000;stop-opacity:1" offset="0" id="stop2896"/>
      <stop id="stop2902" offset="0.45052123" style="stop-color:#ff5555;stop-opacity:1"/>
      <stop style="stop-color:#d40000;stop-opacity:1" offset="1" id="stop2898"/>
    </linearGradient>
    <inkscape:perspective sodipodi:type="inkscape:persp3d" inkscape:vp_x="0 : 526.18109 : 1" inkscape:vp_y="0 : 1000 : 0" inkscape:vp_z="744.09448 : 526.18109 : 1" inkscape:persp3d-origin="372.04724 : 350.78739 : 1" id="perspective65"/>
    <linearGradient inkscape:collect="always" id="linearGradient3664">
      <stop style="stop-color:#989898;stop-opacity:1" offset="0" id="stop3666"/>
      <stop id="stop3672" offset="0.6638245" style="stop-color:#333333;stop-opacity:1"/>
      <stop style="stop-color:#000000;stop-opacity:1" offset="1" id="stop3668"/>
    </linearGradient>
    <linearGradient inkscape:collect="always" id="linearGradient3654">
      <stop style="stop-color:#ececec;stop-opacity:1;" offset="0" id="stop3656"/>
      <stop style="stop-color:#ffffff;stop-opacity:1" offset="1" id="stop3658"/>
    </linearGradient>
    <linearGradient inkscape:collect="always" id="linearGradient3642">
      <stop style="stop-color:#ffffff;stop-opacity:1" offset="0" id="stop3644"/>
      <stop id="stop3650" offset="0.53012049" style="stop-color:#e6e6e6;stop-opacity:1"/>
      <stop style="stop-color:#b3b3b3;stop-opacity:1" offset="0.87550199" id="stop3652"/>
      <stop style="stop-color:#808080;stop-opacity:1" offset="1" id="stop3646"/>
    </linearGradient>
    <radialGradient inkscape:collect="always" xlink:href="#linearGradient3642" id="radialGradient3648" cx="162.28101" cy="341.3663" fx="162.28101" fy="263.93811" r="88.034798" gradientUnits="userSpaceOnUse"/>
    <linearGradient inkscape:collect="always" xlink:href="#linearGradient3654" id="linearGradient3660" x1="161.5" y1="421.36218" x2="161.5" y2="260.81528" gradientUnits="userSpaceOnUse" gradientTransform="matrix(1.1820171,0,0,1.1820171,-59.582626,518.22898)"/>
    <radialGradient inkscape:collect="always" xlink:href="#linearGradient3664" id="radialGradient3670" cx="156.125" cy="335.73718" fx="156.125" fy="335.73718" r="7.25" gradientUnits="userSpaceOnUse" gradientTransform="matrix(1.3620962,0,0,1.3620962,-56.532277,-121.56917)"/>
    <linearGradient inkscape:collect="always" xlink:href="#linearGradient2894" id="linearGradient2900" x1="143.77145" y1="911.75861" x2="146.5" y2="916.61218" gradientUnits="userSpaceOnUse"/>
    <radialGradient inkscape:collect="always" xlink:href="#linearGradient3680" id="radialGradient3686" cx="162.28101" cy="341.3663" fx="162.28101" fy="341.3663" r="88.034798" gradientUnits="userSpaceOnUse" gradientTransform="matrix(1.1820171,0,0,0.24488767,-461.58263,868.63341)"/>
    <inkscape:perspective id="perspective3797" inkscape:persp3d-origin="0.5 : 0.33333333 : 1" inkscape:vp_z="1 : 0.5 : 1" inkscape:vp_y="0 : 1000 : 0" inkscape:vp_x="0 : 0.5 : 1" sodipodi:type="inkscape:persp3d"/>
    <radialGradient inkscape:collect="always" xlink:href="#linearGradient3642-7" id="radialGradient3648-1" cx="162.28101" cy="341.3663" fx="162.28101" fy="263.93811" r="88.034798" gradientUnits="userSpaceOnUse"/>
    <linearGradient inkscape:collect="always" id="linearGradient3642-7">
      <stop style="stop-color:#ffffff;stop-opacity:1" offset="0" id="stop3644-4"/>
      <stop id="stop3650-0" offset="0.53012049" style="stop-color:#e6e6e6;stop-opacity:1"/>
      <stop style="stop-color:#b3b3b3;stop-opacity:1" offset="0.87550199" id="stop3652-9"/>
      <stop style="stop-color:#808080;stop-opacity:1" offset="1" id="stop3646-4"/>
    </linearGradient>
    <radialGradient gradientTransform="matrix(1.1820171,0,0,1.1820171,-59.582627,-278.13318)" r="88.034798" fy="263.93811" fx="162.28101" cy="341.3663" cx="162.28101" gradientUnits="userSpaceOnUse" id="radialGradient3808" xlink:href="#linearGradient3642-7" inkscape:collect="always"/>
    <filter inkscape:collect="always" id="filter3848">
      <feBlend inkscape:collect="always" mode="multiply" in2="BackgroundImage" id="feBlend3850"/>
    </filter>
    <radialGradient inkscape:collect="always" xlink:href="#linearGradient3642-7" id="radialGradient3852" gradientUnits="userSpaceOnUse" gradientTransform="matrix(1.1820171,0,0,1.1820171,-59.582627,-278.13318)" cx="162.28101" cy="341.3663" fx="162.28101" fy="263.93811" r="88.034798"/>
    <radialGradient inkscape:collect="always" xlink:href="#linearGradient3642-7" id="radialGradient3856" gradientUnits="userSpaceOnUse" gradientTransform="matrix(1.1820171,0,0,1.1820171,-59.582627,-278.13318)" cx="162.28101" cy="341.3663" fx="162.28101" fy="263.93811" r="88.034798"/>
    <radialGradient inkscape:collect="always" xlink:href="#linearGradient3642-7" id="radialGradient3860" gradientUnits="userSpaceOnUse" gradientTransform="matrix(1.1820171,0,0,1.1820171,-59.582627,-278.13318)" cx="162.28101" cy="341.3663" fx="162.28101" fy="263.93811" r="88.034798"/>
    <radialGradient inkscape:collect="always" xlink:href="#linearGradient3642-7" id="radialGradient3864" gradientUnits="userSpaceOnUse" gradientTransform="matrix(1.1820171,0,0,1.1820171,-59.582627,-278.13318)" cx="162.28101" cy="341.3663" fx="162.28101" fy="263.93811" r="88.034798"/>
    <radialGradient inkscape:collect="always" xlink:href="#linearGradient3642-7" id="radialGradient3868" gradientUnits="userSpaceOnUse" gradientTransform="matrix(1.1820171,0,0,1.1820171,-59.582627,-278.13318)" cx="162.28101" cy="341.3663" fx="162.28101" fy="263.93811" r="88.034798"/>
    <radialGradient inkscape:collect="always" xlink:href="#linearGradient3642-7" id="radialGradient3872" gradientUnits="userSpaceOnUse" gradientTransform="matrix(1.1820171,0,0,1.1820171,-59.582627,-278.13318)" cx="162.28101" cy="341.3663" fx="162.28101" fy="263.93811" r="88.034798"/>
    <radialGradient inkscape:collect="always" xlink:href="#linearGradient3642-7" id="radialGradient3876" gradientUnits="userSpaceOnUse" gradientTransform="matrix(1.1820171,0,0,1.1820171,-59.582627,-278.13318)" cx="162.28101" cy="341.3663" fx="162.28101" fy="263.93811" r="88.034798"/>
    <inkscape:perspective id="perspective2911" inkscape:persp3d-origin="0.5 : 0.33333333 : 1" inkscape:vp_z="1 : 0.5 : 1" inkscape:vp_y="0 : 1000 : 0" inkscape:vp_x="0 : 0.5 : 1" sodipodi:type="inkscape:persp3d"/>
    <radialGradient inkscape:collect="always" xlink:href="#linearGradient3642-7-7" id="radialGradient3876-1" gradientUnits="userSpaceOnUse" gradientTransform="matrix(1.1820171,0,0,1.1820171,-59.582627,-278.13318)" cx="162.28101" cy="341.3663" fx="162.28101" fy="263.93811" r="88.034798"/>
    <linearGradient inkscape:collect="always" id="linearGradient3642-7-7">
      <stop style="stop-color:#ffffff;stop-opacity:1" offset="0" id="stop3644-4-4"/>
      <stop id="stop3650-0-0" offset="0.53012049" style="stop-color:#e6e6e6;stop-opacity:1"/>
      <stop style="stop-color:#b3b3b3;stop-opacity:1" offset="0.87550199" id="stop3652-9-9"/>
      <stop style="stop-color:#808080;stop-opacity:1" offset="1" id="stop3646-4-4"/>
    </linearGradient>
    <radialGradient r="88.034798" fy="263.93811" fx="162.28101" cy="341.3663" cx="162.28101" gradientTransform="matrix(1.1820171,0,0,1.1820171,-60.356628,519.9519)" gradientUnits="userSpaceOnUse" id="radialGradient2922" xlink:href="#linearGradient3642-7-7" inkscape:collect="always"/>
  </defs>
  <sodipodi:namedview id="base" pagecolor="#ffffff" bordercolor="#666666" borderopacity="1.0" inkscape:pageopacity="0.0" inkscape:pageshadow="2" inkscape:zoom="2" inkscape:cx="193.89768" inkscape:cy="115.99969" inkscape:document-units="px" inkscape:current-layer="layer1" showgrid="false" inkscape:window-width="1280" inkscape:window-height="975" inkscape:window-x="-4" inkscape:window-y="-4" inkscape:window-maximized="1" showguides="true" inkscape:guide-bbox="true"/>
  <metadata id="metadata7">
    <rdf:RDF>
      <cc:Work rdf:about="">
        <dc:format>image/svg+xml</dc:format>
        <dc:type rdf:resource="http://purl.org/dc/dcmitype/StillImage"/>
        <dc:title/>
      </cc:Work>
    </rdf:RDF>
  </metadata>
  <g inkscape:label="Layer 1" inkscape:groupmode="layer" id="layer1" transform="translate(0,-796.36218)">
    <path transform="matrix(1.1820171,0,0,1.1820171,-59.582627,518.229)" style="fill:url(#radialGradient3648);fill-opacity:1;stroke:none" d="m 250.3158,341.3663 c 0,48.62028 -39.41452,88.0348 -88.03479,88.0348 -48.62028,0 -88.034802,-39.41452 -88.034802,-88.0348 0,-48.62027 39.414522,-88.0348 88.034802,-88.0348 48.62027,0 88.03479,39.41453 88.03479,88.0348 z" id="path2858"/>
    <path style="fill:url(#linearGradient3660);fill-opacity:1;stroke:#666666;stroke-width:1.18201709" d="m 131.38702,827.14179 c -51.224359,-0.96885 -96.985811,46.56413 -93.859551,97.70111 1.1212,45.32895 38.545401,87.2207 84.062871,90.9318 40.19551,4.8003 82.49772,-18.73704 97.63533,-56.57943 15.04543,-34.88075 7.27702,-79.49239 -21.20243,-105.42115 C 180.40628,836.9057 156.0208,826.4519 131.38702,827.14179 z" id="path2860"/>
    <path style="fill:url(#linearGradient2900);stroke:none;fill-opacity:1" d="m 128.94911,919.95192 71.21653,-36.93803 -66.78397,41.3706 -4.43256,-4.43257 z" id="path3674"/>
    <path transform="matrix(1.1820171,0,0,1.1820171,-55.584916,521.80159)" style="fill:url(#radialGradient3670);fill-opacity:1;stroke:none" d="m 166,338.36218 c 0,4.00407 -3.24594,7.25 -7.25,7.25 -4.00406,0 -7.25,-3.24593 -7.25,-7.25 0,-4.00406 3.24594,-7.25 7.25,-7.25 4.00406,0 7.25,3.24594 7.25,7.25 z" id="path3662"/>
    <path style="fill:none;stroke:#000000;stroke-width:1.18201709px;stroke-linecap:butt;stroke-linejoin:miter;stroke-opacity:1" d="m 40.002317,921.7515 9.160633,0" id="path3676"/>
    <path id="path3678" d="m 214.94086,921.7515 9.16063,0" style="fill:none;stroke:#000000;stroke-width:1.18201709px;stroke-linecap:butt;stroke-linejoin:miter;stroke-opacity:1"/>
    <path style="fill:none;stroke:#000000;stroke-width:1.18201709px;stroke-linecap:butt;stroke-linejoin:miter;stroke-opacity:1" d="m 210.81539,889.1266 6.27924,-2.60095" id="path3688" sodipodi:nodetypes="cc"/>
    <path sodipodi:nodetypes="cc" id="path3700" d="m 217.98539,904.65827 4.34739,-0.86476" style="fill:none;stroke:#000000;stroke-width:1.18201709px;stroke-linecap:butt;stroke-linejoin:miter;stroke-opacity:1"/>
    <path style="fill:none;stroke:#000000;stroke-width:1.18201709px;stroke-linecap:butt;stroke-linejoin:miter;stroke-opacity:1" d="m 190.66324,863.14015 6.47755,-6.47754" id="path3712"/>
    <path id="path3718" d="m 132.0519,838.86255 0,-9.16064" style="fill:none;stroke:#000000;stroke-width:1.18201709px;stroke-linecap:butt;stroke-linejoin:miter;stroke-opacity:1"/>
    <path style="fill:none;stroke:#000000;stroke-width:1.18201709px;stroke-linecap:butt;stroke-linejoin:miter;stroke-opacity:1" d="m 73.440565,863.14016 -6.477548,-6.47755" id="path3724"/>
    <path sodipodi:nodetypes="cc" id="path3738" d="m 164.67681,842.98801 2.60094,-6.27923" style="fill:none;stroke:#000000;stroke-width:1.18201709px;stroke-linecap:butt;stroke-linejoin:miter;stroke-opacity:1"/>
    <path style="fill:none;stroke:#000000;stroke-width:1.18201709px;stroke-linecap:butt;stroke-linejoin:miter;stroke-opacity:1" d="m 99.427003,842.98801 -2.60095,-6.27924" id="path3744" sodipodi:nodetypes="cc"/>
    <path sodipodi:nodetypes="cc" id="path3750" d="M 53.288419,889.1266 47.00918,886.52565" style="fill:none;stroke:#000000;stroke-width:1.18201709px;stroke-linecap:butt;stroke-linejoin:miter;stroke-opacity:1"/>
    <path style="fill:none;stroke:#000000;stroke-width:1.18201709px;stroke-linecap:butt;stroke-linejoin:miter;stroke-opacity:1" d="m 204.9028,873.07408 3.68554,-2.4626" id="path3764" sodipodi:nodetypes="cc"/>
    <path sodipodi:nodetypes="cc" id="path3770" d="m 180.72931,848.90061 2.4626,-3.68554" style="fill:none;stroke:#000000;stroke-width:1.18201709px;stroke-linecap:butt;stroke-linejoin:miter;stroke-opacity:1"/>
    <path style="fill:none;stroke:#000000;stroke-width:1.18201709px;stroke-linecap:butt;stroke-linejoin:miter;stroke-opacity:1" d="m 149.14514,835.81801 0.86475,-4.3474" id="path3776" sodipodi:nodetypes="cc"/>
    <path sodipodi:nodetypes="cc" id="path3782" d="m 114.95867,835.81802 -0.86475,-4.3474" style="fill:none;stroke:#000000;stroke-width:1.18201709px;stroke-linecap:butt;stroke-linejoin:miter;stroke-opacity:1"/>
    <path style="fill:none;stroke:#000000;stroke-width:1.18201709px;stroke-linecap:butt;stroke-linejoin:miter;stroke-opacity:1" d="m 83.374497,848.90061 -2.462603,-3.68554" id="path3788" sodipodi:nodetypes="cc"/>
    <path sodipodi:nodetypes="cc" id="path3794" d="M 59.201006,873.07411 55.515469,870.6115" style="fill:none;stroke:#000000;stroke-width:1.18201709px;stroke-linecap:butt;stroke-linejoin:miter;stroke-opacity:1"/>
    <path style="fill:none;stroke:#000000;stroke-width:1.18201709px;stroke-linecap:butt;stroke-linejoin:miter;stroke-opacity:1" d="m 46.118415,904.65828 -4.347394,-0.86475" id="path3800" sodipodi:nodetypes="cc"/>
    <path id="path3748" style="font-size:11.82017136px;font-style:normal;font-variant:normal;font-weight:bold;font-stretch:normal;text-align:start;line-height:125%;writing-mode:lr-tb;text-anchor:start;fill:#000000;fill-opacity:1;stroke:none;font-family:Segoe UI;-inkscape-font-specification:Segoe UI Bold" d="m 56.426115,926.07678 c -1.97003,0 -2.955043,-1.38325 -2.955043,-4.14975 0,-1.43519 0.266454,-2.52891 0.799362,-3.28114 0.532907,-0.75222 1.305334,-1.12833 2.317285,-1.12834 1.92385,10e-6 2.885778,1.40634 2.885784,4.21902 -6e-6,1.40057 -0.262613,2.47408 -0.787819,3.22053 -0.525218,0.74646 -1.278407,1.11968 -2.259569,1.11968 z m 0.0808,-7.16828 c -0.788784,0 -1.183174,0.99079 -1.183172,2.97235 -2e-6,1.86615 0.386693,2.79922 1.160086,2.79921 0.754147,10e-6 1.131222,-0.96192 1.131227,-2.88578 -5e-6,-1.92385 -0.369385,-2.88578 -1.108141,-2.88578 z"/>
    <path id="path3751" style="font-size:11.82017136px;font-style:normal;font-variant:normal;font-weight:bold;font-stretch:normal;text-align:start;line-height:125%;writing-mode:lr-tb;text-anchor:start;fill:#000000;fill-opacity:1;stroke:none;font-family:Segoe UI;-inkscape-font-specification:Segoe UI Bold" d="m 61.458922,926.07678 c -0.300123,0 -0.550224,-0.0923 -0.750304,-0.27703 -0.200081,-0.18469 -0.300122,-0.41171 -0.300121,-0.68105 -10e-7,-0.27703 0.102925,-0.50404 0.308779,-0.68104 0.205851,-0.17699 0.462686,-0.26549 0.770504,-0.26549 0.311663,0 0.566573,0.0895 0.764733,0.26837 0.198154,0.17892 0.297233,0.40498 0.297235,0.67816 -2e-6,0.28089 -0.101005,0.51079 -0.303007,0.68971 -0.202007,0.17891 -0.464613,0.26837 -0.787819,0.26837 z"/>
    <path id="path3753" style="font-size:11.82017136px;font-style:normal;font-variant:normal;font-weight:bold;font-stretch:normal;text-align:start;line-height:125%;writing-mode:lr-tb;text-anchor:start;fill:#000000;fill-opacity:1;stroke:none;font-family:Segoe UI;-inkscape-font-specification:Segoe UI Bold" d="m 66.445557,926.07678 c -1.97003,0 -2.955044,-1.38325 -2.955043,-4.14975 -10e-7,-1.43519 0.266453,-2.52891 0.799362,-3.28114 0.532906,-0.75222 1.305334,-1.12833 2.317284,-1.12834 1.923851,10e-6 2.885778,1.40634 2.885785,4.21902 -7e-6,1.40057 -0.262613,2.47408 -0.78782,3.22053 -0.525217,0.74646 -1.278406,1.11968 -2.259568,1.11968 z m 0.0808,-7.16828 c -0.788784,0 -1.183174,0.99079 -1.183172,2.97235 -2e-6,1.86615 0.386693,2.79922 1.160085,2.79921 0.754148,10e-6 1.131223,-0.96192 1.131228,-2.88578 -5e-6,-1.92385 -0.369385,-2.88578 -1.108141,-2.88578 z"/>
    <path id="path3740" style="font-size:11.82017136px;font-style:normal;font-variant:normal;font-weight:bold;font-stretch:normal;text-align:start;line-height:125%;writing-mode:lr-tb;text-anchor:start;fill:#000000;fill-opacity:1;stroke:none;font-family:Segoe UI;-inkscape-font-specification:Segoe UI Bold" d="m 78.490828,875.99231 -5.234812,0 0,-1.44289 1.714155,0 0,-5.15401 -1.760328,0.38092 0,-1.47752 3.578372,-0.72145 0,6.97206 1.702613,0 z"/>
    <path id="path3742" style="font-size:11.82017136px;font-style:normal;font-variant:normal;font-weight:bold;font-stretch:normal;text-align:start;line-height:125%;writing-mode:lr-tb;text-anchor:start;fill:#000000;fill-opacity:1;stroke:none;font-family:Segoe UI;-inkscape-font-specification:Segoe UI Bold" d="m 80.666709,876.1366 c -0.300123,0 -0.550224,-0.0924 -0.750304,-0.27704 -0.200082,-0.18469 -0.300122,-0.4117 -0.300122,-0.68104 0,-0.27704 0.102926,-0.50405 0.308779,-0.68105 0.205852,-0.17699 0.462686,-0.26549 0.770504,-0.26549 0.311663,0 0.566574,0.0895 0.764733,0.26838 0.198155,0.17892 0.297233,0.40497 0.297236,0.67816 -3e-6,0.28088 -0.101005,0.51078 -0.303007,0.6897 -0.202007,0.17892 -0.464613,0.26838 -0.787819,0.26838 z"/>
    <path id="path3745" style="font-size:11.82017136px;font-style:normal;font-variant:normal;font-weight:bold;font-stretch:normal;text-align:start;line-height:125%;writing-mode:lr-tb;text-anchor:start;fill:#000000;fill-opacity:1;stroke:none;font-family:Segoe UI;-inkscape-font-specification:Segoe UI Bold" d="m 85.653343,876.1366 c -1.97003,0 -2.955043,-1.38325 -2.955043,-4.14976 0,-1.43519 0.266454,-2.5289 0.799362,-3.28114 0.532907,-0.75221 1.305334,-1.12833 2.317285,-1.12834 1.923851,10e-6 2.885778,1.40635 2.885784,4.21902 -6e-6,1.40057 -0.262612,2.47408 -0.787819,3.22053 -0.525218,0.74646 -1.278407,1.11969 -2.259569,1.11969 z m 0.0808,-7.16829 c -0.788784,10e-6 -1.183174,0.99079 -1.183171,2.97236 -3e-6,1.86614 0.386692,2.79921 1.160085,2.79921 0.754147,0 1.131223,-0.96193 1.131227,-2.88578 -4e-6,-1.92385 -0.369384,-2.88578 -1.108141,-2.88579 z"/>
    <path id="path3733" style="font-size:11.82017136px;font-style:normal;font-variant:normal;font-weight:bold;font-stretch:normal;text-align:start;line-height:125%;writing-mode:lr-tb;text-anchor:start;fill:#000000;fill-opacity:1;stroke:none;font-family:Segoe UI;-inkscape-font-specification:Segoe UI Bold" d="m 126.70652,849.32767 0,0.0346 3.35905,0 0,1.51215 -5.44836,0 0,-1.41981 2.37212,-2.26822 c 0.47711,-0.45787 0.81282,-0.84168 1.00714,-1.15143 0.1943,-0.30973 0.29146,-0.63583 0.29146,-0.97828 0,-0.76184 -0.40978,-1.14276 -1.22934,-1.14277 -0.71183,10e-6 -1.39288,0.28281 -2.04314,0.84842 l 0,-1.6045 c 0.71952,-0.46556 1.53139,-0.69835 2.4356,-0.69836 0.8465,10e-6 1.50734,0.2126 1.98254,0.63776 0.47518,0.42518 0.71278,0.99945 0.71279,1.72282 -1e-5,0.96578 -0.57909,1.96426 -1.73725,2.99544 z"/>
    <path id="path3735" style="font-size:11.82017136px;font-style:normal;font-variant:normal;font-weight:bold;font-stretch:normal;text-align:start;line-height:125%;writing-mode:lr-tb;text-anchor:start;fill:#000000;fill-opacity:1;stroke:none;font-family:Segoe UI;-inkscape-font-specification:Segoe UI Bold" d="m 132.37997,851.01874 c -0.30012,0 -0.55022,-0.0924 -0.7503,-0.27704 -0.20008,-0.18469 -0.30012,-0.4117 -0.30012,-0.68104 0,-0.27703 0.10292,-0.50405 0.30878,-0.68105 0.20585,-0.17699 0.46268,-0.26549 0.7705,-0.26549 0.31166,0 0.56657,0.0895 0.76473,0.26838 0.19816,0.17892 0.29724,0.40497 0.29724,0.67816 0,0.28088 -0.10101,0.51078 -0.30301,0.6897 -0.202,0.17892 -0.46461,0.26838 -0.78782,0.26838 z"/>
    <path id="path3737" style="font-size:11.82017136px;font-style:normal;font-variant:normal;font-weight:bold;font-stretch:normal;text-align:start;line-height:125%;writing-mode:lr-tb;text-anchor:start;fill:#000000;fill-opacity:1;stroke:none;font-family:Segoe UI;-inkscape-font-specification:Segoe UI Bold" d="m 137.36661,851.01874 c -1.97003,0 -2.95505,-1.38325 -2.95505,-4.14976 0,-1.43519 0.26646,-2.5289 0.79937,-3.28113 0.5329,-0.75222 1.30533,-1.12834 2.31728,-1.12835 1.92385,10e-6 2.88578,1.40635 2.88579,4.21902 -10e-6,1.40057 -0.26262,2.47408 -0.78782,3.22054 -0.52522,0.74645 -1.27841,1.11968 -2.25957,1.11968 z m 0.0808,-7.16829 c -0.78878,10e-6 -1.18317,0.99079 -1.18317,2.97236 0,1.86614 0.38669,2.79921 1.16008,2.79921 0.75415,0 1.13123,-0.96193 1.13123,-2.88578 0,-1.92385 -0.36938,-2.88578 -1.10814,-2.88579 z"/>
    <path id="path3726" style="font-size:11.82017136px;font-style:normal;font-variant:normal;font-weight:bold;font-stretch:normal;text-align:start;line-height:125%;writing-mode:lr-tb;text-anchor:start;fill:#000000;fill-opacity:1;stroke:none;font-family:Segoe UI;-inkscape-font-specification:Segoe UI Bold" d="m 175.66327,874.83451 0,-1.58718 c 0.55407,0.40401 1.20048,0.60601 1.93925,0.60601 0.46557,0 0.82821,-0.10004 1.08794,-0.30012 0.25971,-0.20008 0.38957,-0.47904 0.38958,-0.83688 -1e-5,-0.36937 -0.16065,-0.6541 -0.48193,-0.85419 -0.32128,-0.20007 -0.76281,-0.30012 -1.32457,-0.30012 l -0.74453,0 0,-1.39672 0.68681,0 c 1.07736,10e-6 1.61604,-0.35783 1.61604,-1.07351 0,-0.67334 -0.41363,-1.01002 -1.24089,-1.01002 -0.55407,0 -1.09275,0.17892 -1.61603,0.53675 l 0,-1.48906 c 0.581,-0.29242 1.25819,-0.43863 2.03159,-0.43864 0.84649,10e-6 1.50541,0.19047 1.97676,0.57138 0.47134,0.38093 0.70701,0.87536 0.70702,1.4833 -1e-5,1.08121 -0.54831,1.7584 -1.6449,2.03159 l 0,0.0289 c 0.58485,0.0731 1.04657,0.28569 1.38518,0.63775 0.33859,0.35207 0.50789,0.78398 0.50789,1.29572 0,0.77339 -0.28281,1.38518 -0.84842,1.83536 -0.56562,0.45018 -1.3467,0.67527 -2.34325,0.67527 -0.8542,0 -1.54871,-0.13851 -2.08354,-0.41555 z"/>
    <path id="path3728" style="font-size:11.82017136px;font-style:normal;font-variant:normal;font-weight:bold;font-stretch:normal;text-align:start;line-height:125%;writing-mode:lr-tb;text-anchor:start;fill:#000000;fill-opacity:1;stroke:none;font-family:Segoe UI;-inkscape-font-specification:Segoe UI Bold" d="m 183.20671,875.25006 c -0.30012,0 -0.55022,-0.0923 -0.7503,-0.27703 -0.20009,-0.18469 -0.30013,-0.41171 -0.30013,-0.68105 0,-0.27703 0.10293,-0.50405 0.30878,-0.68104 0.20585,-0.177 0.46269,-0.26549 0.77051,-0.26549 0.31166,0 0.56657,0.0895 0.76473,0.26837 0.19815,0.17892 0.29723,0.40498 0.29724,0.67816 -1e-5,0.28089 -0.10101,0.51079 -0.30301,0.68971 -0.20201,0.17891 -0.46461,0.26837 -0.78782,0.26837 z"/>
    <path id="path3730" style="font-size:11.82017136px;font-style:normal;font-variant:normal;font-weight:bold;font-stretch:normal;text-align:start;line-height:125%;writing-mode:lr-tb;text-anchor:start;fill:#000000;fill-opacity:1;stroke:none;font-family:Segoe UI;-inkscape-font-specification:Segoe UI Bold" d="m 188.19334,875.25006 c -1.97003,0 -2.95504,-1.38325 -2.95504,-4.14975 0,-1.4352 0.26645,-2.52891 0.79936,-3.28114 0.53291,-0.75222 1.30534,-1.12833 2.31729,-1.12834 1.92385,10e-6 2.88578,1.40634 2.88578,4.21901 0,1.40057 -0.26261,2.47408 -0.78782,3.22054 -0.52521,0.74646 -1.2784,1.11968 -2.25957,1.11968 z m 0.0808,-7.16828 c -0.78879,0 -1.18318,0.99079 -1.18318,2.97235 0,1.86615 0.3867,2.79921 1.16009,2.79921 0.75415,0 1.13122,-0.96192 1.13123,-2.88578 -1e-5,-1.92385 -0.36939,-2.88578 -1.10814,-2.88578 z"/>
    <path id="path3719" style="font-size:11.82017136px;font-style:normal;font-variant:normal;font-weight:bold;font-stretch:normal;text-align:start;line-height:125%;writing-mode:lr-tb;text-anchor:start;fill:#000000;fill-opacity:1;stroke:none;font-family:Segoe UI;-inkscape-font-specification:Segoe UI Bold" d="m 201.10087,924.17217 -0.99271,0 0,1.76033 -1.66221,0 0,-1.76033 -3.60723,0 0,-1.16009 3.47449,-5.35601 1.79495,0 0,5.21749 0.99271,0 z m -2.63183,-4.69229 -0.0346,0 c -0.0539,0.13853 -0.15776,0.354 -0.31166,0.64642 l -1.77188,2.74726 2.09508,0 0,-2.60297 c 0,-0.23086 0.008,-0.49443 0.0231,-0.79071 z"/>
    <path id="path3721" style="font-size:11.82017136px;font-style:normal;font-variant:normal;font-weight:bold;font-stretch:normal;text-align:start;line-height:125%;writing-mode:lr-tb;text-anchor:start;fill:#000000;fill-opacity:1;stroke:none;font-family:Segoe UI;-inkscape-font-specification:Segoe UI Bold" d="m 203.00549,926.07678 c -0.30012,0 -0.55022,-0.0923 -0.7503,-0.27703 -0.20008,-0.18469 -0.30012,-0.41171 -0.30012,-0.68105 0,-0.27703 0.10292,-0.50404 0.30878,-0.68104 0.20585,-0.17699 0.46268,-0.26549 0.7705,-0.26549 0.31166,0 0.56657,0.0895 0.76473,0.26837 0.19816,0.17892 0.29724,0.40498 0.29724,0.67816 0,0.28089 -0.10101,0.51079 -0.30301,0.68971 -0.20201,0.17891 -0.46461,0.26837 -0.78782,0.26837 z"/>
    <path id="path3723" style="font-size:11.82017136px;font-style:normal;font-variant:normal;font-weight:bold;font-stretch:normal;text-align:start;line-height:125%;writing-mode:lr-tb;text-anchor:start;fill:#000000;fill-opacity:1;stroke:none;font-family:Segoe UI;-inkscape-font-specification:Segoe UI Bold" d="m 207.99213,926.07678 c -1.97003,0 -2.95505,-1.38325 -2.95505,-4.14975 0,-1.43519 0.26646,-2.52891 0.79937,-3.28114 0.5329,-0.75222 1.30533,-1.12833 2.31728,-1.12834 1.92385,10e-6 2.88578,1.40634 2.88578,4.21902 0,1.40057 -0.26261,2.47408 -0.78781,3.22053 -0.52522,0.74646 -1.27841,1.11968 -2.25957,1.11968 z m 0.0808,-7.16828 c -0.78879,0 -1.18318,0.99079 -1.18317,2.97235 -1e-5,1.86615 0.38669,2.79922 1.16008,2.79921 0.75415,10e-6 1.13122,-0.96192 1.13123,-2.88578 -1e-5,-1.92385 -0.36939,-2.88578 -1.10814,-2.88578 z"/>
    <path id="path3711" style="font-size:8.22445202px;font-style:normal;font-variant:normal;font-weight:bold;font-stretch:normal;text-align:start;line-height:125%;writing-mode:lr-tb;text-anchor:start;fill:#000000;fill-opacity:1;stroke:none;font-family:Segoe UI;-inkscape-font-specification:Segoe UI Bold" d="m 196.16823,894.4921 0,-1.10436 c 0.38552,0.28112 0.83529,0.42167 1.34932,0.42167 0.32394,0 0.57627,-0.0696 0.75699,-0.20883 0.18071,-0.13921 0.27106,-0.33331 0.27107,-0.58229 -1e-5,-0.25702 -0.11178,-0.45513 -0.33533,-0.59435 -0.22355,-0.13921 -0.53076,-0.20882 -0.92163,-0.20882 l -0.51805,0 0,-0.97184 0.47789,0 c 0.74962,10e-6 1.12443,-0.24898 1.12443,-0.74694 0,-0.46851 -0.2878,-0.70277 -0.8634,-0.70278 -0.38552,1e-5 -0.76034,0.1245 -1.12444,0.37348 l 0,-1.03609 c 0.40426,-0.20347 0.87545,-0.3052 1.41358,-0.30521 0.58899,10e-6 1.04746,0.13253 1.37543,0.39757 0.32795,0.26505 0.49193,0.60908 0.49194,1.03208 -1e-5,0.7523 -0.38151,1.22349 -1.14452,1.41357 l 0,0.0201 c 0.40694,0.0509 0.7282,0.19879 0.9638,0.44375 0.2356,0.24497 0.35339,0.54549 0.3534,0.90156 -1e-5,0.53812 -0.19678,0.9638 -0.59033,1.27704 -0.39356,0.31324 -0.93703,0.46985 -1.63043,0.46985 -0.59435,0 -1.07759,-0.0964 -1.44972,-0.28914 z"/>
    <path id="path3713" style="font-size:8.22445202px;font-style:normal;font-variant:normal;font-weight:bold;font-stretch:normal;text-align:start;line-height:125%;writing-mode:lr-tb;text-anchor:start;fill:#000000;fill-opacity:1;stroke:none;font-family:Segoe UI;-inkscape-font-specification:Segoe UI Bold" d="m 201.41694,894.78124 c -0.20883,0 -0.38285,-0.0643 -0.52206,-0.19276 -0.13922,-0.1285 -0.20883,-0.28646 -0.20883,-0.47387 0,-0.19276 0.0716,-0.35071 0.21485,-0.47387 0.14323,-0.12315 0.32194,-0.18472 0.53612,-0.18473 0.21685,10e-6 0.39422,0.0623 0.53209,0.18674 0.13788,0.12449 0.20682,0.28178 0.20682,0.47186 0,0.19544 -0.0703,0.35541 -0.21083,0.4799 -0.14056,0.12449 -0.32328,0.18673 -0.54816,0.18673 z"/>
    <path id="path3715" style="font-size:8.22445202px;font-style:normal;font-variant:normal;font-weight:bold;font-stretch:normal;text-align:start;line-height:125%;writing-mode:lr-tb;text-anchor:start;fill:#000000;fill-opacity:1;stroke:none;font-family:Segoe UI;-inkscape-font-specification:Segoe UI Bold" d="m 203.208,894.53226 0,-1.08428 c 0.39355,0.24095 0.81254,0.36143 1.25696,0.36143 0.33465,0 0.59635,-0.0796 0.7851,-0.23894 0.18874,-0.1593 0.28311,-0.37548 0.28312,-0.64856 -10e-6,-0.57025 -0.40293,-0.85538 -1.20877,-0.85538 -0.26237,0 -0.57962,0.0241 -0.95176,0.0723 l 0,-3.2167 3.18858,0 0,1.03609 -2.1043,0 0,1.15255 c 0.16866,-0.0161 0.32796,-0.0241 0.47789,-0.0241 0.59166,0 1.05482,0.15528 1.38948,0.46583 0.33465,0.31056 0.50198,0.72821 0.50198,1.25295 0,0.58096 -0.19946,1.0555 -0.59836,1.42361 -0.39891,0.36812 -0.93971,0.55218 -1.6224,0.55218 -0.55419,0 -1.02003,-0.083 -1.39752,-0.24898 z"/>
    <path id="path3704" style="font-size:8.22445202px;font-style:normal;font-variant:normal;font-weight:bold;font-stretch:normal;text-align:start;line-height:125%;writing-mode:lr-tb;text-anchor:start;fill:#000000;fill-opacity:1;stroke:none;font-family:Segoe UI;-inkscape-font-specification:Segoe UI Bold" d="m 159.34932,852.52953 0,0.0241 2.33722,0 0,1.05215 -3.79096,0 0,-0.98789 1.65051,-1.57823 c 0.33198,-0.31859 0.56557,-0.58564 0.70077,-0.80116 0.1352,-0.21552 0.2028,-0.44241 0.2028,-0.68069 0,-0.53009 -0.28513,-0.79513 -0.85537,-0.79514 -0.49529,1e-5 -0.96916,0.19679 -1.42161,0.59033 l 0,-1.1164 c 0.50064,-0.32394 1.06553,-0.48591 1.69468,-0.48592 0.58899,10e-6 1.0488,0.14792 1.37945,0.44375 0.33063,0.29584 0.49595,0.69542 0.49595,1.19873 0,0.67199 -0.40292,1.36673 -1.20877,2.08423 z"/>
    <path id="path3706" style="font-size:8.22445202px;font-style:normal;font-variant:normal;font-weight:bold;font-stretch:normal;text-align:start;line-height:125%;writing-mode:lr-tb;text-anchor:start;fill:#000000;fill-opacity:1;stroke:none;font-family:Segoe UI;-inkscape-font-specification:Segoe UI Bold" d="m 163.29689,853.70617 c -0.20882,0 -0.38284,-0.0643 -0.52205,-0.19276 -0.13922,-0.12851 -0.20883,-0.28646 -0.20883,-0.47387 0,-0.19276 0.0716,-0.35072 0.21485,-0.47387 0.14323,-0.12315 0.32193,-0.18473 0.53611,-0.18473 0.21686,0 0.39422,0.0622 0.5321,0.18674 0.13788,0.12449 0.20682,0.28178 0.20682,0.47186 0,0.19544 -0.0703,0.3554 -0.21083,0.47989 -0.14056,0.12449 -0.32328,0.18674 -0.54817,0.18674 z"/>
    <path id="path3708" style="font-size:8.22445202px;font-style:normal;font-variant:normal;font-weight:bold;font-stretch:normal;text-align:start;line-height:125%;writing-mode:lr-tb;text-anchor:start;fill:#000000;fill-opacity:1;stroke:none;font-family:Segoe UI;-inkscape-font-specification:Segoe UI Bold" d="m 165.08796,853.45719 0,-1.08428 c 0.39355,0.24095 0.81254,0.36143 1.25696,0.36143 0.33465,0 0.59635,-0.0797 0.7851,-0.23895 0.18874,-0.15929 0.28311,-0.37548 0.28312,-0.64856 -1e-5,-0.57024 -0.40293,-0.85537 -1.20877,-0.85537 -0.26237,0 -0.57962,0.0241 -0.95176,0.0723 l 0,-3.21669 3.18858,0 0,1.03609 -2.1043,0 0,1.15255 c 0.16866,-0.0161 0.32796,-0.0241 0.47789,-0.0241 0.59166,10e-6 1.05482,0.15528 1.38948,0.46584 0.33465,0.31056 0.50197,0.72821 0.50198,1.25294 -1e-5,0.58096 -0.19946,1.0555 -0.59836,1.42362 -0.39891,0.36812 -0.93971,0.55218 -1.6224,0.55218 -0.55419,0 -1.02003,-0.083 -1.39752,-0.24898 z"/>
    <path id="path3696" style="font-size:8.22445202px;font-style:normal;font-variant:normal;font-weight:bold;font-stretch:normal;text-align:start;line-height:125%;writing-mode:lr-tb;text-anchor:start;fill:#000000;fill-opacity:1;stroke:none;font-family:Segoe UI;-inkscape-font-specification:Segoe UI Bold" d="m 100.61351,853.90125 -3.642372,0 0,-1.00397 1.192706,0 0,-3.58615 -1.224832,0.26505 0,-1.02806 2.489824,-0.50198 0,4.85114 1.184674,0 z"/>
    <path id="path3698" style="font-size:8.22445202px;font-style:normal;font-variant:normal;font-weight:bold;font-stretch:normal;text-align:start;line-height:125%;writing-mode:lr-tb;text-anchor:start;fill:#000000;fill-opacity:1;stroke:none;font-family:Segoe UI;-inkscape-font-specification:Segoe UI Bold" d="m 102.12748,854.00164 c -0.20882,0 -0.38284,-0.0642 -0.52206,-0.19276 -0.13921,-0.12851 -0.20882,-0.28646 -0.20882,-0.47387 0,-0.19276 0.0716,-0.35072 0.21485,-0.47387 0.14323,-0.12315 0.32193,-0.18473 0.53611,-0.18473 0.21686,0 0.39422,0.0622 0.5321,0.18674 0.13788,0.12449 0.20682,0.28178 0.20682,0.47186 0,0.19544 -0.0703,0.3554 -0.21083,0.47989 -0.14056,0.1245 -0.32328,0.18674 -0.54817,0.18674 z"/>
    <path id="path3701" style="font-size:8.22445202px;font-style:normal;font-variant:normal;font-weight:bold;font-stretch:normal;text-align:start;line-height:125%;writing-mode:lr-tb;text-anchor:start;fill:#000000;fill-opacity:1;stroke:none;font-family:Segoe UI;-inkscape-font-specification:Segoe UI Bold" d="m 103.91855,853.75266 0,-1.08428 c 0.39355,0.24095 0.81254,0.36143 1.25696,0.36143 0.33465,0 0.59635,-0.0797 0.7851,-0.23895 0.18874,-0.15929 0.28311,-0.37548 0.28312,-0.64856 -1e-5,-0.57024 -0.40293,-0.85537 -1.20877,-0.85537 -0.26237,0 -0.57963,0.0241 -0.95176,0.0723 l 0,-3.21669 3.18858,0 0,1.03609 -2.1043,0 0,1.15255 c 0.16866,-0.0161 0.32796,-0.0241 0.47788,-0.0241 0.59167,10e-6 1.05483,0.15529 1.38949,0.46584 0.33465,0.31056 0.50197,0.72821 0.50198,1.25295 -10e-6,0.58096 -0.19946,1.05549 -0.59836,1.42361 -0.39891,0.36812 -0.93971,0.55218 -1.6224,0.55218 -0.55419,0 -1.02003,-0.083 -1.39752,-0.24898 z"/>
    <path id="path3689" style="font-size:8.22445202px;font-style:normal;font-variant:normal;font-weight:bold;font-stretch:normal;text-align:start;line-height:125%;writing-mode:lr-tb;text-anchor:start;fill:#000000;fill-opacity:1;stroke:none;font-family:Segoe UI;-inkscape-font-specification:Segoe UI Bold" d="m 58.141585,894.48571 c -1.370743,0 -2.056113,-0.96246 -2.056113,-2.88739 0,-0.99861 0.185398,-1.75961 0.556195,-2.28301 0.370795,-0.52339 0.908249,-0.78509 1.612362,-0.7851 1.338612,10e-6 2.007919,0.97853 2.007923,2.93559 -4e-6,0.97451 -0.182725,1.72146 -0.548163,2.24084 -0.365445,0.51938 -0.889513,0.77907 -1.572204,0.77907 z m 0.05622,-4.98768 c -0.548834,10e-6 -0.82325,0.68939 -0.823248,2.06816 -2e-6,1.29846 0.26906,1.94769 0.807185,1.94769 0.524734,0 0.787103,-0.66931 0.787106,-2.00793 -3e-6,-1.33861 -0.257017,-2.00791 -0.771043,-2.00792 z"/>
    <path id="path3691" style="font-size:8.22445202px;font-style:normal;font-variant:normal;font-weight:bold;font-stretch:normal;text-align:start;line-height:125%;writing-mode:lr-tb;text-anchor:start;fill:#000000;fill-opacity:1;stroke:none;font-family:Segoe UI;-inkscape-font-specification:Segoe UI Bold" d="m 61.643403,894.48571 c -0.208825,0 -0.382845,-0.0643 -0.52206,-0.19276 -0.139216,-0.12851 -0.208824,-0.28646 -0.208824,-0.47387 0,-0.19276 0.07162,-0.35072 0.214848,-0.47387 0.143231,-0.12315 0.321936,-0.18473 0.536115,-0.18473 0.216855,0 0.394221,0.0622 0.5321,0.18674 0.137875,0.12449 0.206814,0.28178 0.206816,0.47186 -2e-6,0.19544 -0.07028,0.3554 -0.210832,0.47989 -0.140556,0.1245 -0.323277,0.18674 -0.548163,0.18674 z"/>
    <path id="path3693" style="font-size:8.22445202px;font-style:normal;font-variant:normal;font-weight:bold;font-stretch:normal;text-align:start;line-height:125%;writing-mode:lr-tb;text-anchor:start;fill:#000000;fill-opacity:1;stroke:none;font-family:Segoe UI;-inkscape-font-specification:Segoe UI Bold" d="m 63.43447,894.23673 0,-1.08428 c 0.393552,0.24095 0.812538,0.36143 1.25696,0.36143 0.334651,0 0.59635,-0.0797 0.785098,-0.23895 0.188741,-0.15929 0.283114,-0.37548 0.283117,-0.64856 -3e-6,-0.57024 -0.402926,-0.85537 -1.20877,-0.85537 -0.26237,0 -0.579622,0.0241 -0.951755,0.0723 l 0,-3.21669 3.188581,0 0,1.03609 -2.104303,0 0,1.15255 c 0.168663,-0.0161 0.327958,-0.0241 0.477886,-0.0241 0.591665,10e-6 1.054825,0.15529 1.389482,0.46584 0.33465,0.31056 0.501977,0.72821 0.501981,1.25294 -4e-6,0.58097 -0.199458,1.0555 -0.598361,1.42362 -0.398911,0.36812 -0.939711,0.55218 -1.622402,0.55218 -0.554188,0 -1.020026,-0.083 -1.397514,-0.24898 z"/>
    <path style="opacity:0.5;fill:url(#radialGradient2922);fill-opacity:1;stroke:none;filter:url(#filter3848)" d="m 130.7885,827.36633 c -50.57187,-0.94158 -96.43742,44.62094 -95.560579,95.24908 -0.663235,44.51081 33.092897,87.60509 77.414839,95.10979 40.67751,8.3682 85.78404,-12.3443 104.11363,-49.86766 18.15333,-34.57628 13.10782,-80.61058 -14.06164,-108.80371 -18.08499,-19.8416 -44.65379,-32.35905 -71.90625,-31.6875 z" id="path3785"/>
  </g>
</svg>